<svg width="42" height="42" viewBox="0 0 42 42" fill="none" xmlns="http://www.w3.org/2000/svg">
<rect width="42" height="42" rx="10" fill="url(#paint0_linear_2712_5978)"/>
<path d="M22.0752 18.2816L23.9788 16.6953C24.7476 16.0546 25.8848 16.1333 26.5581 16.8739L30.3325 21.0257C30.6452 21.3697 30.8185 21.8179 30.8185 22.2828V27.8883C30.8185 28.3168 30.4711 28.6643 30.0425 28.6643H24.7342" stroke="#4157A5" stroke-width="1.52727"/>
<path d="M11.1816 29.211V21.5869C11.1816 21.0154 11.4054 20.4667 11.8051 20.0582L16.7523 15.0019C17.625 14.11 19.066 14.1284 19.9156 15.0423L24.586 20.0662C24.9619 20.4706 25.1709 21.0023 25.1709 21.5545V29.211C25.1709 29.8146 24.6816 30.3039 24.078 30.3039H12.2746C11.671 30.3039 11.1816 29.8146 11.1816 29.211Z" stroke="#4157A5" stroke-width="1.52727"/>
<circle cx="16.4642" cy="21.9254" r="0.911458" fill="#4157A5"/>
<circle cx="20.1068" cy="21.9254" r="0.911458" fill="#4157A5"/>
<circle cx="16.4642" cy="25.5697" r="0.911458" fill="#4157A5"/>
<circle cx="20.1068" cy="25.5697" r="0.911458" fill="#4157A5"/>
<defs>
<linearGradient id="paint0_linear_2712_5978" x1="21" y1="0" x2="21" y2="42" gradientUnits="userSpaceOnUse">
<stop stop-color="#F1F4FF"/>
<stop offset="1" stop-color="#B7C7FF"/>
</linearGradient>
</defs>
</svg>
