<svg width="42" height="42" viewBox="0 0 42 42" fill="none" xmlns="http://www.w3.org/2000/svg">
<rect width="42" height="42" rx="10" fill="url(#paint0_linear_1327_3009)"/>
<path d="M13 17.2322C13 16.9017 13.1575 16.591 13.424 16.3955L20.168 11.4499C20.5332 11.1821 21.0299 11.1821 21.3951 11.4499L28.1391 16.3955C28.4056 16.591 28.563 16.9017 28.563 17.2322V18.2628C28.563 18.8358 28.0985 19.3003 27.5255 19.3003H14.0375C13.4645 19.3003 13 18.8358 13 18.2628V17.2322Z" fill="#BC82DF" fill-opacity="0.78"/>
<rect x="15.7061" y="20.2729" width="9.7269" height="2.50124" rx="1.25062" transform="rotate(90 15.7061 20.2729)" fill="#BC82DF" fill-opacity="0.78"/>
<rect x="22.0986" y="20.2729" width="9.7269" height="2.50124" rx="1.25062" transform="rotate(90 22.0986 20.2729)" fill="#BC82DF" fill-opacity="0.78"/>
<rect x="28.4902" y="20.2729" width="9.7269" height="2.50124" rx="1.25062" transform="rotate(90 28.4902 20.2729)" fill="#BC82DF" fill-opacity="0.78"/>
<defs>
<linearGradient id="paint0_linear_1327_3009" x1="21" y1="0" x2="21" y2="42" gradientUnits="userSpaceOnUse">
<stop stop-color="#D6AFEE" stop-opacity="0.07"/>
<stop offset="1" stop-color="#C899E5" stop-opacity="0.38"/>
</linearGradient>
</defs>
</svg>
