<svg width="42" height="42" viewBox="0 0 42 42" fill="none" xmlns="http://www.w3.org/2000/svg">
<rect width="42" height="42" rx="10" fill="url(#paint0_linear_835_2575)"/>
<path fill-rule="evenodd" clip-rule="evenodd" d="M16.7645 12.5295C17.1543 12.5295 17.4704 12.8456 17.4704 13.2354V24.5295C17.4704 24.9194 17.7864 25.2354 18.1762 25.2354H30.1762C30.5661 25.2354 30.8821 25.5515 30.8821 25.9413C30.8821 26.3312 30.5661 26.6472 30.1762 26.6472H18.1762C17.0067 26.6472 16.0586 25.6991 16.0586 24.5295V13.2354C16.0586 12.8456 16.3746 12.5295 16.7645 12.5295Z" fill="#69F498"/>
<path fill-rule="evenodd" clip-rule="evenodd" d="M11.1177 16.7645C11.1177 16.3746 11.4337 16.0586 11.8236 16.0586H16.7647C17.1546 16.0586 17.4706 16.3746 17.4706 16.7645C17.4706 17.1543 17.1546 17.4704 16.7647 17.4704H11.8236C11.4337 17.4704 11.1177 17.1543 11.1177 16.7645Z" fill="#69F498"/>
<path fill-rule="evenodd" clip-rule="evenodd" d="M18.8818 16.7645C18.8818 16.3746 19.1979 16.0586 19.5877 16.0586H24.5289C25.6984 16.0586 26.6465 17.0067 26.6465 18.1762V23.1174C26.6465 23.5073 26.3305 23.8233 25.9407 23.8233C25.5508 23.8233 25.2348 23.5073 25.2348 23.1174V18.1762C25.2348 17.7864 24.9187 17.4704 24.5289 17.4704H19.5877C19.1979 17.4704 18.8818 17.1543 18.8818 16.7645Z" fill="#69F498"/>
<path fill-rule="evenodd" clip-rule="evenodd" d="M25.2354 29.4708V25.9414H26.6471V29.4708H25.2354Z" fill="#69F498"/>
<path fill-rule="evenodd" clip-rule="evenodd" d="M13.9414 14.647H19.5885L16.7649 11.8235L13.9414 14.647Z" fill="#69F498"/>
<path fill-rule="evenodd" clip-rule="evenodd" d="M28.7646 28.7648L23.1176 28.7648L25.9411 31.5884L28.7646 28.7648Z" fill="#69F498"/>
<defs>
<linearGradient id="paint0_linear_835_2575" x1="21" y1="0" x2="21" y2="42" gradientUnits="userSpaceOnUse">
<stop stop-color="white"/>
<stop offset="1" stop-color="#E2FFEC"/>
</linearGradient>
</defs>
</svg>
