<svg width="42" height="42" viewBox="0 0 42 42" fill="none" xmlns="http://www.w3.org/2000/svg">
<rect width="42" height="42" rx="10" fill="url(#paint0_linear_2712_5972)"/>
<path d="M24.2726 30.8182H13.3635C12.1585 30.8182 11.1816 29.8413 11.1816 28.6364V17.3904C11.1816 16.5897 11.6202 15.8533 12.3243 15.472L21.0516 10.7447C22.5053 9.95725 24.2726 11.0098 24.2726 12.6632V30.8182Z" stroke="#3F5F5B" stroke-width="1.52727"/>
<path d="M28.6361 19.9092H24.2725V30.8183H28.6361C29.8411 30.8183 30.8179 29.8414 30.8179 28.6365V22.091C30.8179 20.886 29.8411 19.9092 28.6361 19.9092Z" stroke="#3F5F5B" stroke-width="1.52727"/>
<path d="M15.5459 17.7273H16.7732V20.1818H15.5459V17.7273ZM15.5459 21.4091H16.7732V23.8637H15.5459V21.4091ZM19.2277 17.7273H20.455V20.1818H19.2277V17.7273ZM19.2277 21.4091H20.455V23.8637H19.2277V21.4091ZM15.5459 25.0909H16.7732V27.5455H15.5459V25.0909ZM19.2277 25.0909H20.455V27.5455H19.2277V25.0909Z" fill="#3F5F5B"/>
<defs>
<linearGradient id="paint0_linear_2712_5972" x1="21" y1="0" x2="21" y2="42" gradientUnits="userSpaceOnUse">
<stop stop-color="#D2FCF7"/>
<stop offset="1" stop-color="#B6E9E2"/>
</linearGradient>
</defs>
</svg>
