<svg width="42" height="42" viewBox="0 0 42 42" fill="none" xmlns="http://www.w3.org/2000/svg">
<rect width="42" height="42" rx="10" fill="url(#paint0_linear_1327_2997)"/>
<path fill-rule="evenodd" clip-rule="evenodd" d="M10.4989 16.0003L10.5083 16.0035H10.4287V16.8035V20.0166C10.4287 20.4584 10.7869 20.8166 11.2287 20.8166C11.2481 20.8166 11.2674 20.8159 11.2865 20.8145L18.2515 22.7066C18.8703 22.8747 19.5204 22.8922 20.1473 22.7576L31.3702 20.3486L31.0344 18.7842L19.8115 21.1932C19.4343 21.2742 19.0433 21.2637 18.671 21.1626L12.0287 19.3582L12.0287 16.8035V16.5079L19.4008 18.9536L31.1755 16.537C31.3964 16.4917 31.414 16.1829 31.1997 16.1127L23.3047 13.5271L10.4989 16.0003Z" fill="#FF98AB"/>
<path d="M31.1503 23.0322L19.2588 25.5446C19.2368 25.5492 19.214 25.5481 19.1926 25.5414L11.4329 23.1186C11.3485 23.0923 11.2627 23.1554 11.2627 23.2438V26.7091C11.2627 26.7653 11.2986 26.8153 11.3519 26.8333L18.9997 29.4149C19.0216 29.4223 19.0451 29.4237 19.0677 29.4191L31.1503 26.9671" stroke="#FF98AB" stroke-width="1.6"/>
<defs>
<linearGradient id="paint0_linear_1327_2997" x1="21" y1="0" x2="21" y2="42" gradientUnits="userSpaceOnUse">
<stop stop-color="#FDEEF1" stop-opacity="0.3"/>
<stop offset="1" stop-color="#FF98AB" stop-opacity="0.22"/>
</linearGradient>
</defs>
</svg>
