<svg width="42" height="42" viewBox="0 0 42 42" fill="none" xmlns="http://www.w3.org/2000/svg">
<rect width="42" height="42" rx="10" fill="url(#paint0_linear_2712_5990)"/>
<path d="M19.3261 12.3507L13.0514 17.6188C12.5576 18.0334 12.2725 18.6451 12.2725 19.2898V28.6364C12.2725 29.8414 13.2493 30.8182 14.4543 30.8182H26.4543C27.6593 30.8182 28.6361 29.8414 28.6361 28.6364V18.7545C28.6361 18.104 28.3458 17.4874 27.8444 17.0729L22.1192 12.34C21.3076 11.6691 20.1326 11.6736 19.3261 12.3507Z" stroke="#E38948" stroke-width="1.52727"/>
<path d="M17.7266 30.8181V23.1817C17.7266 22.5792 18.215 22.0908 18.8175 22.0908H22.0902C22.6927 22.0908 23.1811 22.5792 23.1811 23.1817V30.8181" stroke="#E38948" stroke-width="1.52727"/>
<defs>
<linearGradient id="paint0_linear_2712_5990" x1="21" y1="0" x2="21" y2="42" gradientUnits="userSpaceOnUse">
<stop stop-color="#FFF1E0"/>
<stop offset="0.0001" stop-color="#FFF5EA"/>
<stop offset="1" stop-color="#FFE1BE"/>
</linearGradient>
</defs>
</svg>
