<svg width="42" height="42" viewBox="0 0 42 42" fill="none" xmlns="http://www.w3.org/2000/svg">
<rect width="42" height="42" rx="10" fill="url(#paint0_linear_1091_2598)"/>
<path d="M28.57 17.676C28.179 17.532 26.058 17.27 24.687 17.116C24.902 15.861 25 14.711 25 13.5C25 12.121 23.878 11 22.5 11C21.122 11 20 12.121 20 13.5C20 15.375 19.334 16.238 18.384 17.199C18.1066 16.8282 17.7469 16.5269 17.3332 16.3188C16.9195 16.1107 16.4631 16.0016 16 16C14.346 16 13 17.346 13 19V25C13 26.654 14.346 28 16 28C16.755 28 17.438 27.71 17.965 27.248L18.153 27.441C19.113 28.177 21.82 29 24.001 29C25.88 29 26.609 28.707 27.254 28.447L27.57 28.324C28.404 28.019 29.146 27.097 29.306 26.124L29.972 20.15C30.145 19.113 29.529 18.025 28.57 17.676V17.676ZM16 26C15.449 26 15 25.552 15 25V19C15.0115 18.7425 15.1219 18.4994 15.3082 18.3213C15.4945 18.1431 15.7423 18.0437 16 18.0437C16.2577 18.0437 16.5055 18.1431 16.6918 18.3213C16.8781 18.4994 16.9885 18.7425 17 19V25C17 25.552 16.551 26 16 26ZM27.327 25.85C27.29 26.074 27.035 26.391 26.884 26.446L26.508 26.592C25.963 26.811 25.492 27 24 27C22.086 27 19.882 26.247 19.368 25.854C19.21 25.734 19 25.29 19 25V20.02C19.003 19.973 19.051 19.364 19.707 18.708C20.62 17.794 22 16.414 22 13.5C22 13.225 22.225 13 22.5 13C22.775 13 23 13.225 23 13.5C23 14.907 22.854 16.23 22.521 17.793L22.224 19.189L23.545 19.001C24.148 19.051 27.478 19.448 27.879 19.551C27.937 19.581 28.011 19.734 27.99 19.874L27.327 25.85Z" fill="#FFCD4B"/>
<defs>
<linearGradient id="paint0_linear_1091_2598" x1="21" y1="0" x2="21" y2="42" gradientUnits="userSpaceOnUse">
<stop stop-color="white" stop-opacity="0"/>
<stop offset="1" stop-color="#FFE8AD" stop-opacity="0.68"/>
</linearGradient>
</defs>
</svg>
