<svg width="42" height="42" viewBox="0 0 42 42" fill="none" xmlns="http://www.w3.org/2000/svg">
<rect width="42" height="42" rx="10" fill="url(#paint0_linear_1091_2599)"/>
<path d="M14.6982 13.7996C14.6982 13.3222 14.8879 12.8643 15.2255 12.5267C15.563 12.1892 16.0209 11.9995 16.4983 11.9995H25.4985C25.9759 11.9995 26.4338 12.1892 26.7714 12.5267C27.1089 12.8643 27.2986 13.3222 27.2986 13.7996V18.2997C27.2986 19.9706 26.6348 21.5731 25.4533 22.7546C24.2718 23.9361 22.6693 24.5999 20.9984 24.5999V24.5999C19.3275 24.5999 17.725 23.9361 16.5435 22.7546C15.362 21.5731 14.6982 19.9706 14.6982 18.2997V13.7996ZM18.2983 30H23.6985L20.9984 25.4999L18.2983 30Z" stroke="#9685FF" stroke-width="1.80005" stroke-linecap="round" stroke-linejoin="round"/>
<path d="M14.6981 13.7993H13.7981C13.3207 13.7993 12.8628 13.989 12.5253 14.3265C12.1877 14.6641 11.998 15.122 11.998 15.5994V16.7145C11.998 17.3688 12.1763 18.0107 12.5138 18.5713C12.8512 19.1319 13.3351 19.5899 13.9133 19.8961L15.1481 20.5495M27.2985 13.7993H28.1985C28.6759 13.7993 29.1337 13.989 29.4713 14.3265C29.8089 14.6641 29.9985 15.122 29.9985 15.5994V16.1727C29.9986 16.9906 29.7757 17.7931 29.3539 18.4938C28.9321 19.1946 28.3273 19.7671 27.6045 20.1499L26.8484 20.5495" stroke="#9685FF" stroke-width="1.80005" stroke-linejoin="round"/>
<defs>
<linearGradient id="paint0_linear_1091_2599" x1="21" y1="0" x2="21" y2="42" gradientUnits="userSpaceOnUse">
<stop stop-color="white" stop-opacity="0.26"/>
<stop offset="1" stop-color="#C8BFFF" stop-opacity="0.76"/>
</linearGradient>
</defs>
</svg>
