<svg width="17" height="11" viewBox="0 0 17 11" fill="none" xmlns="http://www.w3.org/2000/svg">
<path fill-rule="evenodd" clip-rule="evenodd" d="M12.4349 1.04547L16.526 5.13659C16.777 5.38764 16.777 5.79467 16.526 6.04572L12.4349 10.1368C12.1838 10.3879 11.7768 10.3879 11.5257 10.1368C11.2747 9.88579 11.2747 9.47875 11.5257 9.2277L14.5194 6.23401L0.642857 6.23401C0.287816 6.23401 -4.44896e-07 5.94619 -4.13857e-07 5.59115C-3.82819e-07 5.23611 0.287817 4.9483 0.642857 4.9483L14.5194 4.9483L11.5257 1.9546C11.2747 1.70355 11.2747 1.29652 11.5257 1.04547C11.7768 0.794416 12.1838 0.794416 12.4349 1.04547Z" fill="#5506DD"/>
</svg>
