<svg width="24" height="24" viewBox="0 0 24 24" fill="none" xmlns="http://www.w3.org/2000/svg">
<path d="M7.5 17.25C8.32843 17.25 9 16.5784 9 15.75C9 14.9216 8.32843 14.25 7.5 14.25C6.67157 14.25 6 14.9216 6 15.75C6 16.5784 6.67157 17.25 7.5 17.25Z" fill="#42BB9E"/>
<path d="M17.25 16.5C18.0784 16.5 18.75 15.8284 18.75 15C18.75 14.1716 18.0784 13.5 17.25 13.5C16.4216 13.5 15.75 14.1716 15.75 15C15.75 15.8284 16.4216 16.5 17.25 16.5Z" fill="#42BB9E"/>
<path d="M9.75 9C10.5784 9 11.25 8.32843 11.25 7.5C11.25 6.67157 10.5784 6 9.75 6C8.92157 6 8.25 6.67157 8.25 7.5C8.25 8.32843 8.92157 9 9.75 9Z" fill="#42BB9E"/>
<path d="M10.5 12C10.9142 12 11.25 11.6642 11.25 11.25C11.25 10.8358 10.9142 10.5 10.5 10.5C10.0858 10.5 9.75 10.8358 9.75 11.25C9.75 11.6642 10.0858 12 10.5 12Z" fill="#42BB9E"/>
<path d="M17.25 5.25C18.0784 5.25 18.75 4.57843 18.75 3.75C18.75 2.92157 18.0784 2.25 17.25 2.25C16.4216 2.25 15.75 2.92157 15.75 3.75C15.75 4.57843 16.4216 5.25 17.25 5.25Z" fill="#42BB9E"/>
<path d="M21.75 3C22.1642 3 22.5 2.66421 22.5 2.25C22.5 1.83579 22.1642 1.5 21.75 1.5C21.3358 1.5 21 1.83579 21 2.25C21 2.66421 21.3358 3 21.75 3Z" fill="#42BB9E"/>
<path d="M12 18C12.4142 18 12.75 17.6642 12.75 17.25C12.75 16.8358 12.4142 16.5 12 16.5C11.5858 16.5 11.25 16.8358 11.25 17.25C11.25 17.6642 11.5858 18 12 18Z" fill="#42BB9E"/>
<path d="M12 22.5C6.225 22.5 1.5 17.775 1.5 12C1.5 6.225 6.225 1.5 12 1.5H12.225L13.275 1.575L13.05 2.475C12.975 2.775 12.9 3.15 12.9 3.45C12.9 5.55 14.55 7.2 16.65 7.2C17.4 7.2 18.15 6.975 18.825 6.525L19.8 7.65C19.5 7.95 19.35 8.325 19.35 8.7C19.35 9.675 20.325 10.5 21.375 10.125L22.275 9.75L22.425 10.725C22.5 11.175 22.5 11.625 22.5 12C22.5 17.775 17.775 22.5 12 22.5V22.5ZM11.475 3C6.75 3.3 3 7.2 3 12C3 16.95 7.05 21 12 21C16.95 21 21 16.95 21 12V11.7C19.275 11.775 17.85 10.425 17.85 8.7V8.55C17.475 8.625 17.1 8.7 16.65 8.7C13.725 8.7 11.4 6.375 11.4 3.45C11.4 3.3 11.4 3.15 11.475 3V3Z" fill="#42BB9E"/>
</svg>
