<svg width="32" height="32" viewBox="0 0 32 32" fill="none" xmlns="http://www.w3.org/2000/svg">
<rect width="32" height="32" rx="5.33333" fill="#F2EBFF"/>
<path fill-rule="evenodd" clip-rule="evenodd" d="M14.0633 13.718H16.8597V15.1109C17.2626 14.3098 18.2956 13.59 19.8474 13.59C22.8223 13.59 23.5286 15.1847 23.5286 18.1106V23.5295H20.5168V18.777C20.5168 17.1107 20.114 16.171 19.0885 16.171C17.6662 16.171 17.0751 17.1837 17.0751 18.7762V23.5295H14.0633V13.718ZM8.8989 23.4015H11.9107V13.59H8.8989V23.4015ZM12.3421 10.3907C12.3422 10.6431 12.2921 10.8931 12.1948 11.126C12.0975 11.3589 11.9548 11.5702 11.7751 11.7475C11.411 12.1094 10.9181 12.3119 10.4048 12.3107C9.89233 12.3104 9.4006 12.1083 9.03594 11.7483C8.8569 11.5703 8.71472 11.3589 8.61756 11.1259C8.5204 10.8929 8.47016 10.6431 8.46973 10.3907C8.46973 9.88096 8.67302 9.39306 9.03669 9.03315C9.40103 8.67261 9.89297 8.47048 10.4055 8.4707C10.919 8.4707 11.4115 8.67324 11.7751 9.03315C12.1381 9.39306 12.3421 9.88096 12.3421 10.3907Z" fill="#5506DD"/>
</svg>
