<svg width="150" height="60" viewBox="0 0 150 60" fill="none" xmlns="http://www.w3.org/2000/svg">
<path fill-rule="evenodd" clip-rule="evenodd" d="M61.2539 6.11161C61.1628 6.17304 61.0425 6.3012 60.9865 6.39646L60.8847 6.5697L60.8719 18.3532C60.8627 26.8718 60.8744 30.1933 60.9141 30.3411C60.9454 30.457 61.0366 30.6068 61.1251 30.6874C61.2109 30.7656 64.324 32.4935 68.0431 34.5274C74.6804 38.1569 74.8103 38.2252 75.0777 38.2252C75.3449 38.2252 75.4799 38.1545 82.1122 34.5389C85.8314 32.5115 88.9241 30.8205 88.9849 30.7812C89.0457 30.7419 89.1405 30.637 89.1954 30.548C89.295 30.387 89.2954 30.3348 89.2952 18.4532C89.2951 6.63331 89.2941 6.51863 89.1966 6.35871C89.1424 6.26989 89.0255 6.15298 88.9367 6.09883C88.7766 6.00119 88.6583 6.00035 75.0974 6.0002L61.4195 6L61.2539 6.11161ZM87.6483 18.6197L87.6359 29.6541L81.3939 33.0584C77.9609 34.9307 75.1225 36.4635 75.0864 36.4646C75.0503 36.4657 72.2024 34.9253 68.7578 33.0415L62.4947 29.6163V18.6338C62.4947 12.5935 62.5096 7.63643 62.5278 7.61829C62.5459 7.60011 68.2083 7.58525 75.1108 7.58525H87.6608L87.6483 18.6197ZM68.8853 10.8796V11.697H76.192H83.4986L83.5114 14.8799L83.5241 18.0628H84.3415H85.1589L85.1716 14.4777C85.18 12.127 85.1667 10.8272 85.1331 10.7026C85.0684 10.4621 84.8638 10.217 84.655 10.1298C84.5207 10.0737 83.1684 10.0622 76.6893 10.0622H68.8853V10.8796ZM65.4894 14.2437C65.2916 14.3298 65.0874 14.5768 65.0234 14.8071C64.9515 15.066 64.9526 27.6523 65.0246 27.9113C65.0533 28.0149 65.1368 28.1641 65.2101 28.2426C65.3114 28.3514 73.6354 33.0101 74.6864 33.5463C75.1208 33.7679 74.8535 33.894 80.0347 31.0231C82.635 29.5822 84.8327 28.3391 84.9185 28.2606C85.0068 28.1799 85.0984 28.0292 85.1295 27.9136C85.1675 27.7724 85.1805 26.8533 85.1717 24.9419L85.1589 22.1745H84.3415H83.5241L83.5105 24.701L83.4968 27.2275L79.3177 29.5435C77.0192 30.8172 75.1109 31.8594 75.0771 31.8594C75.0433 31.8594 73.1348 30.8175 70.8358 29.5441L66.656 27.2287V21.5187V15.8087H72.9227H79.1894V14.9914V14.174L72.415 14.1759C66.8945 14.1775 65.6125 14.19 65.4894 14.2437ZM69.1441 22.8596L69.1578 25.6005L69.2879 25.77C69.3872 25.8992 70.0587 26.298 72.1117 27.4471C74.7343 28.9151 74.8124 28.9548 75.0777 28.9548C75.3424 28.9548 75.4239 28.9137 77.951 27.5063C79.3814 26.7096 80.5702 26.0395 80.5927 26.0172C80.6219 25.9881 80.0121 24.8068 79.8537 24.5856C79.8473 24.5766 78.7868 25.1562 77.497 25.8736C76.2072 26.591 75.1167 27.1766 75.0735 27.1749C75.0304 27.1733 74.0439 26.6408 72.8814 25.9916L70.7678 24.8113V22.465V20.1187H69.9491H69.1306L69.1441 22.8596ZM60.975 44.8416C59.2289 45.069 57.817 46.2014 57.2664 47.8158C56.4714 50.147 57.5111 52.6838 59.65 53.6317C61.0298 54.2431 62.7656 54.1429 64.0374 53.3782C64.6604 53.0037 65.5188 52.1033 65.3827 51.9672C65.3547 51.9392 64.9691 51.706 64.5257 51.4491L63.7197 50.9819L63.4349 51.2928C62.9967 51.7709 62.5189 51.9926 61.8012 52.0507C60.8145 52.1305 59.7975 51.6228 59.3844 50.844C59.1353 50.3746 59.0558 50.0302 59.0558 49.4211C59.0558 47.9071 59.9185 46.9231 61.3605 46.7925C62.1835 46.7179 62.9152 46.9822 63.4245 47.538L63.7149 47.855L64.5499 47.3742C65.0092 47.1099 65.3932 46.8686 65.4033 46.8381C65.4379 46.7345 64.8432 46.0535 64.473 45.7726C63.981 45.3992 63.6484 45.2205 63.114 45.0424C62.428 44.8138 61.7077 44.7461 60.975 44.8416ZM67.7954 49.4177V54.053H68.8351H69.8746L69.8878 52.5296L69.9008 51.0063L70.3816 50.9921C70.8532 50.9783 70.8639 50.9804 70.9479 51.1087C70.9951 51.1806 71.3942 51.8669 71.8351 52.6339L72.6366 54.0282L73.7874 54.0415L74.9383 54.0548L74.8393 53.8929C74.7849 53.8038 74.379 53.1068 73.9374 52.3439C73.4957 51.581 73.092 50.8867 73.0401 50.801L72.9458 50.6452L73.168 50.5149C73.2903 50.4433 73.5243 50.2606 73.6881 50.109C74.32 49.5239 74.6377 48.8041 74.6355 47.9618C74.6341 47.4031 74.5473 47.0296 74.3014 46.523C74.0635 46.0331 73.4712 45.4326 72.9723 45.1755C72.2748 44.8161 72.3163 44.8212 69.938 44.8009L67.7954 44.7826V49.4177ZM76.9602 49.3963V54.0034H79.9831H83.006L82.9926 53.025L82.9792 52.0466L81.0348 52.0336L79.0904 52.0207V51.1791V50.3375H80.7995H82.5086V49.3467V48.356H80.7995H79.0904V47.5633V46.7707H81.0471H83.0039V45.7799V44.7891H79.9821H76.9602V49.3963ZM85.3323 49.3954V54.0102L87.4253 53.9921L89.5183 53.9741L89.9541 53.8397C91.3424 53.4115 92.3096 52.5389 92.8476 51.2292C93.457 49.7453 93.2578 47.9376 92.3424 46.6467C91.898 46.0198 91.1052 45.3903 90.4266 45.1255C89.6891 44.8377 89.5708 44.8251 87.3758 44.8021L85.3323 44.7807V49.3954ZM71.9319 46.8989C72.7343 47.3178 72.7199 48.6266 71.9084 49.0371C71.7038 49.1406 71.6233 49.1486 70.782 49.1486H69.8761V47.9566V46.7647L70.8049 46.7801C71.6326 46.7938 71.7554 46.8067 71.9319 46.8989ZM89.2244 46.8244C90.4553 47.0492 91.2507 48.1885 91.1584 49.5944C91.0803 50.7858 90.4519 51.6482 89.4474 51.9429C89.2456 52.0021 88.9577 52.0219 88.2956 52.0219H87.4129V49.3963V46.7707H88.1717C88.589 46.7707 89.0627 46.7949 89.2244 46.8244Z" fill="black"/>
</svg>
