<svg width="150" height="60" viewBox="0 0 150 60" fill="none" xmlns="http://www.w3.org/2000/svg">
<path fill-rule="evenodd" clip-rule="evenodd" d="M70.5814 4.99021C70.1759 5.68873 69.329 7.14749 68.6992 8.23197C68.0695 9.31641 67.5442 10.2299 67.5319 10.262C67.5125 10.3128 68.3314 10.3202 73.98 10.3202H80.4505V7.02021V3.72021H75.8845H71.3186L70.5814 4.99021ZM48.0457 17.8702C48.0489 25.5427 48.0623 33.5392 48.0756 35.6402L48.0998 39.4602L50.1804 35.7802C53.3956 30.0932 56.4176 24.7474 59.9149 18.5602C61.6745 15.4472 64.2386 10.9112 65.6131 8.48021C66.9875 6.04921 68.124 4.02873 68.1387 3.99021C68.164 3.92365 67.6697 3.92021 58.1026 3.92021H48.0399L48.0457 17.8702ZM60.0722 24.2902C59.9013 24.6037 59.1116 26.0482 58.3174 27.5002C57.5231 28.9522 56.8519 30.1807 56.8258 30.2302L56.7784 30.3202H63.0264H69.2744V27.0202V23.7202H64.8286H60.3829L60.0722 24.2902ZM73.8247 27.0202V30.3202H79.0934H84.3621V43.3002V56.2802H87.655H90.948V43.3002V30.3202H96.2366H101.525L101.525 29.3902C101.525 28.8787 101.537 27.3937 101.552 26.0902L101.578 23.7202H87.7015H73.8247V27.0202ZM48 45.4204V48.7205L64.1354 48.7104L80.2708 48.7002L80.2811 45.4102L80.2913 42.1202H64.1456H48V45.4204ZM78.5077 50.5194C77.8371 50.6627 77.4785 51.3298 77.6096 52.1902C77.6888 52.7107 77.8283 52.9329 78.4998 53.6083C79.1959 54.3085 79.273 54.4362 79.273 54.8893C79.273 55.1674 79.2628 55.2087 79.171 55.3005C78.97 55.5021 78.5912 55.466 78.4715 55.234C78.4389 55.1709 78.4012 54.9754 78.3876 54.7997L78.3631 54.4802H77.9699H77.5766V54.7329C77.5766 55.2738 77.7287 55.7253 77.9838 55.9413C78.2361 56.155 78.4357 56.2168 78.8738 56.2168C79.3119 56.2168 79.5116 56.155 79.7639 55.9413C80.0668 55.6847 80.2239 55.0928 80.1381 54.5302C80.0586 54.0082 79.92 53.7871 79.2474 53.1098C78.5489 52.4066 78.4747 52.2833 78.4747 51.8269C78.4747 51.5236 78.4788 51.5099 78.6051 51.3969C78.6952 51.3162 78.7775 51.2802 78.8719 51.2802C79.1861 51.2802 79.3033 51.4092 79.3533 51.8102L79.382 52.0402H79.7765H80.1711V51.8876C80.1711 51.2629 79.9148 50.7934 79.4643 50.5928C79.2694 50.506 78.7551 50.4665 78.5077 50.5194ZM48.1197 53.3602V56.1602H48.4989H48.8781L48.8822 54.1902C48.8845 53.1067 48.8991 52.2742 48.9148 52.3402C48.9304 52.4062 49.0764 53.2927 49.239 54.3102L49.5348 56.1602H49.9399H50.345L50.3656 56.0502C50.3769 55.9897 50.5075 55.1032 50.6558 54.0802C50.8042 53.0572 50.9408 52.2031 50.9595 52.1822C50.9784 52.1612 50.9936 53.0413 50.9936 54.1522V56.1602H51.3927H51.7919V53.3592V50.5581L51.1849 50.5692L50.5779 50.5802L50.2885 52.5202C50.1293 53.5872 49.9983 54.4767 49.9974 54.4969C49.9903 54.6538 49.9173 54.2514 49.6564 52.617C49.4916 51.5848 49.3475 50.6997 49.3362 50.6502C49.316 50.5618 49.3051 50.5602 48.7177 50.5602H48.1197V53.3602ZM53.0691 53.3602V56.1602H54.2666H55.464V55.7602V55.3602H54.7056H53.9473V54.5402V53.7202H54.546H55.1447V53.3202V52.9202H54.546H53.9473V52.1402V51.3602H54.7056H55.464V50.9602V50.5602H54.2666H53.0691V53.3602ZM56.6614 53.3602V56.1678L57.5695 56.1527C58.4166 56.1387 58.4916 56.1314 58.6862 56.0444C58.953 55.9252 59.1846 55.6728 59.2803 55.397C59.3499 55.1968 59.3557 55.0407 59.3557 53.3602C59.3557 51.6797 59.3499 51.5236 59.2803 51.3234C59.1846 51.0476 58.953 50.7953 58.6862 50.676C58.4916 50.589 58.4166 50.5817 57.5695 50.5677L56.6614 50.5526V53.3602ZM60.5331 53.3602V56.1602H60.9722H61.4113V53.3602V50.5602H60.9722H60.5331V53.3602ZM62.9118 53.3103C62.6723 54.8228 62.4684 56.0827 62.4585 56.1102C62.4448 56.1481 62.5376 56.1602 62.8408 56.1602H63.241L63.2619 56.0502C63.2734 55.9897 63.3026 55.8052 63.3268 55.6402C63.4055 55.102 63.3304 55.1602 63.9458 55.1602C64.5613 55.1602 64.4862 55.102 64.5649 55.6402C64.5891 55.8052 64.6182 55.9897 64.6297 56.0502L64.6507 56.1602H65.0908C65.4259 56.1602 65.5267 56.1483 65.5131 56.1102C65.5033 56.0827 65.2993 54.8228 65.0598 53.3104L64.6244 50.5606L63.9857 50.5605L63.3471 50.5604L62.9118 53.3103ZM66.6001 53.3602V56.1602H67.7577H68.9152V55.7602V55.3602H68.1967H67.4783V52.9602V50.5602H67.0392H66.6001V53.3602ZM70.1762 53.3103C69.9368 54.8228 69.7328 56.0827 69.7229 56.1102C69.7093 56.1481 69.802 56.1602 70.1052 56.1602H70.5054L70.5264 56.0502C70.5379 55.9897 70.567 55.8052 70.5912 55.6402C70.6699 55.102 70.5948 55.1602 71.2103 55.1602C71.8257 55.1602 71.7506 55.102 71.8293 55.6402C71.8535 55.8052 71.8827 55.9897 71.8942 56.0502L71.9151 56.1602H72.3552C72.6903 56.1602 72.7912 56.1483 72.7775 56.1102C72.7677 56.0827 72.5637 54.8228 72.3242 53.3104L71.8888 50.5606L71.2502 50.5605L70.6115 50.5604L70.1762 53.3103ZM73.8247 53.3601V56.1688L74.7327 56.1535C75.6092 56.1388 75.6484 56.1346 75.8603 56.0352C76.1375 55.905 76.2838 55.7586 76.4146 55.4802C76.5123 55.2723 76.5181 55.2251 76.5185 54.6202C76.5189 53.9404 76.4903 53.7872 76.3124 53.5172C76.2605 53.4385 76.1438 53.3323 76.053 53.2812C75.8732 53.1799 75.8697 53.1974 76.1043 53.027C76.3562 52.8439 76.4867 52.3512 76.445 51.7403C76.4247 51.4427 76.3977 51.3351 76.2897 51.1205C76.1683 50.8793 76.1395 50.8509 75.884 50.7205L75.6089 50.5802L74.7168 50.5658L73.8247 50.5515V53.3601ZM58.3472 51.4769L58.4775 51.5937V53.3602V55.1268L58.3472 55.2435C58.2249 55.353 58.196 55.3602 57.8782 55.3602H57.5396V53.3602V51.3602H57.8782C58.196 51.3602 58.2249 51.3674 58.3472 51.4769ZM75.4306 51.4769C75.5585 51.5914 75.5612 51.6009 75.575 51.9843C75.5998 52.6713 75.4811 52.8398 74.9722 52.84L74.7028 52.8402V52.1002V51.3602H75.0015C75.2751 51.3602 75.3112 51.37 75.4306 51.4769ZM64.1619 52.9637C64.2736 53.7247 64.3649 54.3592 64.3649 54.3737C64.3649 54.3883 64.1763 54.4002 63.9458 54.4002C63.6226 54.4002 63.5267 54.388 63.5267 54.3467C63.5267 54.2942 63.8628 51.9482 63.908 51.6861C63.9206 51.6124 63.9373 51.5584 63.9449 51.5661C63.9526 51.5739 64.0502 52.2028 64.1619 52.9637ZM71.4263 52.9637C71.538 53.7247 71.6294 54.3592 71.6294 54.3737C71.6294 54.3883 71.4408 54.4002 71.2103 54.4002C70.8871 54.4002 70.7912 54.388 70.7912 54.3467C70.7912 54.2942 71.1273 51.9482 71.1724 51.6861C71.1851 51.6124 71.2017 51.5584 71.2093 51.5661C71.217 51.5739 71.3146 52.2028 71.4263 52.9637ZM75.3989 53.6864C75.5968 53.7768 75.6382 53.8983 75.6544 54.437C75.679 55.2548 75.607 55.3602 75.0241 55.3602H74.7028V54.5002V53.6402H75.0003C75.1639 53.6402 75.3432 53.661 75.3989 53.6864Z" fill="#E84C3D"/>
</svg>
