<svg width="150" height="60" viewBox="0 0 150 60" fill="none" xmlns="http://www.w3.org/2000/svg">
<path d="M70.5961 24.3228C70.4639 25.007 70.8254 25.3685 71.2997 25.6562C71.4062 25.7134 71.4918 25.803 71.5441 25.9119C71.5965 26.0209 71.613 26.1437 71.5912 26.2626C71.5688 26.5213 71.5688 26.7814 71.5912 27.0401C71.68 27.8031 71.4665 28.5705 70.9964 29.1781C70.6077 29.6407 70.1879 30.0566 69.7953 30.5075C69.4667 30.8431 69.1688 31.2074 68.9051 31.596C68.5164 32.2374 68.6096 32.7622 69.1072 33.3491C69.1772 33.4308 69.1655 33.5824 69.1889 33.7029C69.0528 33.7029 68.8662 33.8078 68.8001 33.7495C68.5923 33.5952 68.4145 33.4041 68.2753 33.1859C68.0228 32.7394 67.8637 32.2463 67.8076 31.7364C67.7514 31.2265 67.7995 30.7106 67.9488 30.2199C68.0654 29.7417 68.2559 29.283 68.4192 28.8166C68.6921 28.1142 68.71 27.3383 68.4697 26.6241L68.392 26.4492C68.3428 26.4905 68.2961 26.5347 68.252 26.5814C67.9347 27.0575 67.5002 27.4438 66.9902 27.7033C66.4803 27.9627 65.9121 28.0864 65.3404 28.0624C64.7651 28.0624 64.1742 28.0352 63.6184 28.0896C63.2138 28.1334 62.8196 28.2451 62.4522 28.4201C62.2466 28.5161 62.0757 28.6733 61.9629 28.8703C61.8502 29.0672 61.8011 29.2942 61.8224 29.5202C61.8396 29.6446 61.8091 29.771 61.7369 29.8739C61.0838 30.492 61.2277 31.2267 61.4259 31.9575C61.607 32.6186 61.9987 33.2027 62.5416 33.6213C63.0508 34.01 63.595 34.356 64.1354 34.7097C64.7845 35.1373 65.4726 35.5183 66.079 35.9808C66.8829 36.5183 67.4946 37.298 67.8252 38.2067C68.1559 39.1155 68.1883 40.1059 67.9177 41.0343C67.4085 43.1218 66.1373 44.5562 63.9877 45.0849C63.1469 45.2989 62.2644 45.2868 61.4298 45.0499C60.801 44.8961 60.2369 44.5475 59.818 44.0539C59.3991 43.5604 59.1469 42.947 59.0974 42.3016C58.9687 41.3206 59.102 40.323 59.4836 39.4101C59.8653 38.4973 60.4818 37.7017 61.2704 37.1043C61.6482 36.8489 62.0554 36.64 62.4833 36.4823C62.6026 36.4455 62.7312 36.4538 62.8448 36.5056C62.8851 36.5304 62.9188 36.5646 62.9432 36.6052C62.9676 36.6458 62.9818 36.6916 62.9847 36.7389C62.9658 36.7808 62.9367 36.8174 62.9 36.8452C62.8634 36.8731 62.8203 36.8913 62.7748 36.8982C62.4127 36.9022 62.0603 37.0157 61.764 37.2239C61.4677 37.432 61.2414 37.7251 61.1149 38.0644C60.6996 38.8319 60.4912 39.6943 60.5103 40.5667C60.5294 41.4392 60.7753 42.2916 61.2238 43.0402C61.5084 43.5583 61.9485 43.9741 62.4821 44.2286C63.0157 44.4832 63.6157 44.5638 64.1976 44.459C64.778 44.3414 65.3006 44.0286 65.6786 43.5727C66.9614 42.115 67.0392 39.5105 65.8691 37.9595C65.1587 37.1148 64.319 36.3879 63.3812 35.8059C62.7548 35.387 62.1772 34.8994 61.6592 34.3521C61.1887 33.8359 60.8677 33.2012 60.7308 32.5164C60.5938 31.8315 60.646 31.1222 60.8817 30.4648C61.0723 29.9245 61.2332 29.3743 61.3637 28.8166C61.5414 28.0428 62.0124 27.3683 62.6776 26.9351C63.117 26.6244 63.5842 26.3551 64.0732 26.1304C64.8817 25.7417 65.6281 25.3258 66.0557 24.4783C66.1645 24.5561 66.2539 24.6261 66.3472 24.6883C66.4433 24.762 66.553 24.8159 66.67 24.847C66.787 24.8781 66.909 24.8858 67.029 24.8695C67.1489 24.8533 67.2645 24.8134 67.369 24.7523C67.4735 24.6911 67.5649 24.6099 67.6378 24.5133C67.7 24.4434 67.7506 24.3656 67.805 24.2917C68.1548 23.8019 68.2987 23.7553 68.9362 23.9536C68.6862 24.0058 68.4603 24.1388 68.2931 24.3319C68.126 24.525 68.0269 24.7676 68.011 25.0226C68.0025 25.1731 67.9387 25.3151 67.8318 25.4213C67.7248 25.5275 67.5823 25.5904 67.4318 25.5979C67.3191 25.5979 67.2141 25.6562 67.1014 25.6834C67.2206 25.8207 67.3747 25.9231 67.5474 25.9799C67.7201 26.0366 67.905 26.0455 68.0824 26.0057C68.2598 25.9658 68.4231 25.8787 68.5549 25.7535C68.6867 25.6283 68.7822 25.4698 68.8312 25.2947C68.8701 25.1508 68.9051 25.007 68.9401 24.8632C69.0256 24.5017 69.2238 24.3578 69.6553 24.3734C69.1733 24.9137 69.2666 25.5007 69.5076 26.0916C69.602 26.3003 69.6799 26.516 69.7408 26.7369C69.8031 26.9837 69.8049 27.242 69.746 27.4896C69.6871 27.7373 69.5693 27.9672 69.4027 28.1596C69.3661 28.2314 69.3424 28.309 69.3327 28.389C69.4104 28.389 69.5037 28.4434 69.5659 28.4123C70.3434 28.0235 71.0781 27.1917 70.5494 26.0333C70.4148 25.7555 70.3043 25.4668 70.219 25.1703C70.1824 25.0073 70.1994 24.8368 70.2673 24.6842C70.3352 24.5315 70.4505 24.4048 70.5961 24.3228V24.3228Z" fill="#AB2066"/>
<path d="M114.717 45.0845H113.229C113.298 42.8687 113.415 40.6685 113.419 38.4761C113.423 36.2837 113.326 34.0718 113.271 31.8444H114.772V38.0174C115.032 37.788 115.25 37.5898 115.471 37.3993C116.06 36.8474 116.774 36.4471 117.551 36.2331C118.717 35.961 119.518 36.2992 120.117 37.3216C120.581 38.1451 120.859 39.0609 120.929 40.0038C121.045 41.5967 121.019 43.1968 120.852 44.7852C120.852 44.8746 120.817 44.964 120.793 45.0806H119.588C119.666 44.6102 119.759 44.1593 119.81 43.7084C120.024 42.2236 119.872 40.7088 119.367 39.2963C119.164 38.7617 118.875 38.2639 118.511 37.823C117.781 36.9639 116.708 36.995 115.915 37.7997C115.272 38.4833 114.88 39.3644 114.803 40.2992C114.623 41.819 114.594 43.353 114.717 44.8785C114.721 44.929 114.717 44.9873 114.717 45.0845Z" fill="#AB2066"/>
<path d="M69.4052 20.9487C69.4761 20.6949 69.454 20.4242 69.3428 20.1854C69.2316 19.9466 69.0386 19.7554 68.7988 19.6464C68.6651 19.5705 68.5585 19.4549 68.4937 19.3155C68.4289 19.1762 68.4092 19.02 68.4373 18.869C68.4373 18.5891 68.4839 18.3092 68.4606 18.0254C68.4246 17.6284 68.472 17.2282 68.5999 16.8506C68.7277 16.4731 68.9332 16.1264 69.2031 15.833C69.5568 15.4442 69.9533 15.0555 70.3109 14.6668C70.6281 14.337 70.9132 13.9777 71.1623 13.5939C71.336 13.3326 71.409 13.0171 71.3675 12.706C71.326 12.395 71.173 12.1096 70.9368 11.9029C70.8629 11.8174 70.8707 11.6619 70.8396 11.5414C70.9835 11.5414 71.1778 11.4403 71.2633 11.5025C71.4734 11.6606 71.6515 11.8571 71.7881 12.0817C72.414 13.178 72.3362 14.3247 71.9825 15.4831C71.8076 16.0623 71.5938 16.6493 71.4538 17.2207C71.3528 17.7639 71.4234 18.325 71.656 18.8262C71.7609 18.7057 71.8425 18.6163 71.9125 18.5191C72.2054 18.1108 72.592 17.7788 73.0397 17.5508C73.4875 17.3229 73.9835 17.2057 74.4859 17.2091C75.2089 17.2091 75.9359 17.2091 76.655 17.1352C76.9964 17.0996 77.327 16.9951 77.6268 16.8281C77.8288 16.7261 77.9959 16.5663 78.1067 16.369C78.2174 16.1716 78.2669 15.9458 78.2488 15.7202C78.2488 15.5609 78.2255 15.3315 78.4509 15.3704C78.527 15.4009 78.5952 15.4483 78.6503 15.5089C78.7055 15.5694 78.7463 15.6417 78.7697 15.7202C78.8052 15.9115 78.7959 16.1085 78.7425 16.2956C78.5618 17.1135 78.0857 17.8361 77.4053 18.3247C77.0015 18.6295 76.5662 18.8901 76.1069 19.1022C75.2439 19.4909 74.4354 19.9224 73.9767 20.8359C73.8601 20.7426 73.7784 20.6688 73.689 20.6066C73.4945 20.4584 73.2502 20.3914 73.0073 20.4197C72.7644 20.4479 72.542 20.5693 72.3868 20.7582C72.3113 20.8445 72.2412 20.9354 72.1768 21.0303C71.8581 21.4851 71.6287 21.5473 71.0845 21.3102C71.274 21.2864 71.4525 21.2079 71.5982 21.0843C71.7438 20.9608 71.8504 20.7975 71.9047 20.6143C71.938 20.4344 71.9861 20.2576 72.0486 20.0857C72.1227 19.9282 72.2383 19.7938 72.3829 19.6969C72.5735 19.6162 72.7732 19.5588 72.9776 19.5259C72.8236 19.3945 72.6418 19.2996 72.4459 19.2484C72.25 19.1973 72.0451 19.1911 71.8464 19.2305C71.6576 19.2866 71.4893 19.3968 71.3622 19.5473C71.2351 19.6979 71.1548 19.8823 71.1312 20.0779C70.9796 20.7349 70.9174 20.7971 70.3265 20.8554C70.8591 20.28 70.7424 19.6658 70.4781 19.0594C70.1632 18.3364 70.0894 17.6445 70.6491 16.9992C70.6841 16.9564 70.6919 16.8281 70.6491 16.8009C70.6192 16.7808 70.5848 16.7682 70.549 16.7642C70.5131 16.7601 70.4768 16.7647 70.4431 16.7776C69.6929 17.143 68.997 17.9127 69.3819 18.9622C69.5024 19.2966 69.6618 19.6153 69.7706 19.9535C69.8291 20.1364 69.8249 20.3336 69.7587 20.5138C69.6925 20.694 69.5681 20.8471 69.4052 20.9487V20.9487Z" fill="#AB2066"/>
<path d="M71.2441 23.6347C71.285 23.7048 71.3213 23.7776 71.3529 23.8524C71.392 24.0165 71.4766 24.1662 71.5969 24.2845C71.7172 24.4027 71.8684 24.4847 72.0332 24.521C72.6396 24.6182 73.0866 24.8436 73.0516 25.5939C73.7397 24.8164 73.4404 23.9573 72.488 23.7396C71.9282 23.6114 71.8038 23.4986 71.7649 23.0671C71.7649 23.0671 71.7649 23.0244 71.7922 22.9739C72.3247 23.4714 72.9195 23.3626 73.4987 23.1177C74.2412 22.7873 74.9486 22.6823 75.6173 23.2771C75.6439 23.2901 75.6731 23.2969 75.7028 23.2969C75.7324 23.2969 75.7617 23.2901 75.7883 23.2771C75.8267 23.2157 75.8419 23.1426 75.8311 23.071C75.6744 22.6418 75.3564 22.2907 74.9447 22.0925C74.533 21.8942 74.0602 21.8646 73.627 22.0098C73.316 22.1225 73.0205 22.2858 72.7057 22.3985C72.5266 22.472 72.3266 22.4761 72.1448 22.41C71.9629 22.3438 71.8122 22.2122 71.7222 22.0409C71.9729 22.1072 72.2391 22.0808 72.472 21.9666C72.7048 21.8523 72.8885 21.6578 72.9894 21.4189C73.0521 21.2895 73.156 21.1846 73.2847 21.1205C73.4135 21.0565 73.5598 21.037 73.7008 21.0652C73.984 21.0904 74.2689 21.0904 74.5521 21.0652C74.9311 21.0291 75.3135 21.0701 75.6763 21.1857C76.039 21.3012 76.3747 21.489 76.6629 21.7377C77.1877 22.2003 77.6736 22.7056 78.179 23.1954C78.5338 23.5904 78.9957 23.874 79.5084 24.0118C79.7107 24.0586 79.9215 24.0536 80.1213 23.9972C80.3211 23.9408 80.5034 23.8348 80.6513 23.6891C80.7524 23.5919 80.9973 23.5064 81.0711 23.5608C81.2577 23.7008 81.1761 23.9146 81.0323 24.0701C80.5997 24.5022 80.0341 24.7761 79.4268 24.8475C78.4645 24.9839 77.4833 24.8352 76.6046 24.4199C75.9025 24.0659 75.1044 23.95 74.3306 24.0895C74.1634 24.1284 74.004 24.1828 73.7825 24.2489C73.9263 24.3655 74.0196 24.4471 74.1168 24.521C74.5247 24.8242 74.855 25.2197 75.0806 25.6751C75.3063 26.1305 75.4209 26.6328 75.4151 27.141C75.4151 27.9185 75.4501 28.6959 75.4851 29.4462C75.502 29.642 75.5547 29.8331 75.6406 30.0099C75.7358 30.267 75.9102 30.4872 76.1387 30.6388C76.3671 30.7904 76.6378 30.8655 76.9117 30.8534C77.0245 30.8534 77.1411 30.9817 77.2538 31.0516C77.1527 31.1605 77.0672 31.3393 76.9506 31.3626C76.7244 31.3976 76.4936 31.3897 76.2703 31.3393C75.5313 31.1883 74.8723 30.7739 74.4161 30.1731C74.0492 29.6883 73.7326 29.1673 73.4715 28.6182C73.0827 27.8019 72.694 27.04 71.8271 26.5813C71.9088 26.4724 71.9749 26.3869 72.0371 26.2936C72.1837 26.0983 72.2486 25.8537 72.2182 25.6114C72.1877 25.3691 72.0642 25.1481 71.8738 24.9952C71.8161 24.9373 71.7507 24.8876 71.6794 24.8475C71.5822 24.8057 71.4946 24.7446 71.4218 24.6677C71.3491 24.5909 71.2928 24.5 71.2564 24.4007C71.22 24.3013 71.2043 24.1956 71.2102 24.0899C71.2161 23.9843 71.2435 23.881 71.2907 23.7863C71.2907 23.7396 71.2907 23.6775 71.2907 23.623L71.2441 23.6347Z" fill="#AB2066"/>
<path d="M66.241 20.964C66.0738 20.828 65.93 20.7152 65.7939 20.5986C65.4474 20.3158 65.1671 19.9603 64.973 19.5573C64.7789 19.1543 64.6756 18.7135 64.6705 18.2662C64.6433 17.4888 64.6705 16.7113 64.5889 15.9339C64.5412 15.5722 64.4166 15.2249 64.2235 14.9154C64.1193 14.7341 63.9656 14.5862 63.7804 14.4892C63.5952 14.3921 63.3862 14.3498 63.1778 14.3673C63.0573 14.3673 62.929 14.239 62.7891 14.1729C62.8979 14.0563 62.999 13.8542 63.1117 13.8464C63.3972 13.8275 63.6838 13.8578 63.9591 13.9358C64.793 14.1921 65.5039 14.7454 65.9572 15.4907C66.1787 15.8261 66.3736 16.1784 66.5403 16.5442C67.0806 17.7414 67.1817 17.8853 68.173 18.6666C68.0818 18.7794 67.9974 18.8976 67.9203 19.0204C67.6249 19.5296 67.7803 20.0077 68.3712 20.4237C68.8299 20.7463 68.896 20.964 68.6783 21.5316C68.6514 21.308 68.5495 21.1002 68.3893 20.942C68.229 20.7838 68.0198 20.6847 67.7959 20.6608C67.6874 20.6618 67.5798 20.6412 67.4793 20.6002C67.3788 20.5591 67.2876 20.4985 67.2108 20.4217C67.1341 20.345 67.0735 20.2537 67.0324 20.1533C66.9914 20.0528 66.9707 19.9452 66.9718 19.8367C66.9612 19.7905 66.9442 19.746 66.9213 19.7045C66.7752 19.8347 66.6696 20.004 66.6169 20.1923C66.5642 20.3807 66.5667 20.5802 66.624 20.7672C66.6813 20.9542 66.791 21.1209 66.9401 21.2474C67.0893 21.3739 67.2716 21.455 67.4655 21.481C68.1341 21.6482 68.1885 21.6987 68.2429 22.2896C67.586 21.7104 66.9213 21.932 66.2565 22.2157C65.9638 22.3688 65.6316 22.4299 65.3035 22.3911C64.9755 22.3522 64.6668 22.2152 64.4178 21.998C64.3673 21.9514 64.2623 21.9669 64.1846 21.9514C64.1689 22.0336 64.1689 22.118 64.1846 22.2002C64.2679 22.4278 64.3984 22.6354 64.5675 22.8091C64.7366 22.9829 64.9404 23.119 65.1658 23.2085C65.3911 23.2981 65.6327 23.339 65.875 23.3287C66.1172 23.3184 66.3545 23.257 66.5714 23.1487C66.8398 23.0216 67.118 22.9163 67.4033 22.8338C67.5715 22.7918 67.749 22.8072 67.9075 22.8776C68.066 22.9481 68.1964 23.0695 68.2779 23.2225C68.0606 23.1598 67.8286 23.1703 67.6178 23.2525C67.4071 23.3347 67.2292 23.484 67.1117 23.6773C66.8902 24.0039 66.6958 24.3693 66.1943 24.1944C66.0038 24.4315 65.8056 24.136 65.584 24.1944C65.3479 24.241 65.1049 24.241 64.8688 24.1944C64.293 24.1203 63.7555 23.8658 63.3333 23.4674C62.8901 23.0787 62.4858 22.6239 62.0427 22.2274C61.7063 21.917 61.3448 21.6349 60.962 21.3838C60.7069 21.2332 60.4076 21.1749 60.1146 21.2187C59.8215 21.2626 59.5525 21.406 59.3527 21.6249C59.2905 21.7026 59.1039 21.6832 58.964 21.7104C58.964 21.5743 58.8784 21.3877 58.9406 21.3216C59.106 21.104 59.3119 20.9205 59.5471 20.7813C60.6277 20.1749 61.7512 20.2565 62.8824 20.618C63.2711 20.7347 63.6093 20.9018 63.9786 21.0262C64.3407 21.1674 64.7275 21.2346 65.1161 21.2239C65.5046 21.2133 65.8871 21.1249 66.241 20.964V20.964Z" fill="#AB2066"/>
<path d="M91.1635 45.0888C90.8059 45.0888 90.3861 45.0888 89.939 45.0888C89.8613 45.0888 89.7447 44.8906 89.7369 44.7778C89.7097 44.1364 89.7097 43.4911 89.7019 42.8342C89.7107 42.6925 89.684 42.5509 89.6241 42.4221C89.5581 42.5115 89.4881 42.601 89.422 42.6942C88.6637 43.8908 87.4895 44.7645 86.1256 45.1471C84.2597 45.6175 82.7203 44.4396 82.592 42.5193C82.4093 39.8215 84.5357 36.9838 86.8486 36.3657C87.1341 36.2798 87.4293 36.2302 87.7272 36.218C88.8506 36.218 89.974 36.218 91.0935 36.218C91.0391 37.6835 90.9342 39.1607 90.9458 40.6379C90.9575 42.115 91.0858 43.5572 91.1635 45.0888ZM88.3413 36.9838V37.0188C87.8952 36.9799 87.4464 36.9799 87.0002 37.0188C85.181 37.3492 83.7738 39.2462 83.871 41.1665C83.8712 42.1076 84.2412 43.0108 84.9011 43.6816C85.0879 43.883 85.3148 44.043 85.5672 44.1513C85.8196 44.2596 86.0919 44.3139 86.3666 44.3106C86.6412 44.3073 86.9121 44.2465 87.1619 44.1321C87.4116 44.0178 87.6346 43.8524 87.8166 43.6466C88.0572 43.401 88.2614 43.1222 88.423 42.8186C89.2744 41.0805 89.7096 39.168 89.6941 37.2326C89.6941 37.0382 89.628 36.9644 89.4337 36.9683C89.076 36.9916 88.7068 36.9838 88.3413 36.9838V36.9838Z" fill="#AB2066"/>
<path d="M57.3002 39.6038C57.3002 42.1849 55.6364 44.459 53.2885 45.081C52.4643 45.3035 51.5981 45.3209 50.7657 45.1315C50.1217 45.0101 49.5326 44.6884 49.0823 44.2123C48.632 43.7362 48.3437 43.1301 48.2584 42.4804C48.109 41.3767 48.2751 40.2533 48.7374 39.24C49.1996 38.2268 49.9392 37.365 50.8706 36.7544C52.0182 36.0667 53.3859 35.8455 54.6918 36.1363C56.3828 36.4823 57.3002 37.7379 57.3002 39.6038ZM55.8386 40.6456C55.8526 39.5985 55.4944 38.5805 54.8279 37.7729C54.5576 37.4342 54.2098 37.1657 53.8139 36.9899C53.4179 36.8141 52.9854 36.7363 52.553 36.763C52.1206 36.7897 51.701 36.9201 51.3297 37.1433C50.9584 37.3664 50.6462 37.6757 50.4197 38.045C50.0026 38.6561 49.7557 39.3672 49.7044 40.1052C49.6034 41.4541 49.8638 42.7058 50.8706 43.6854C51.1429 43.9603 51.4713 44.1731 51.8334 44.3095C52.1955 44.4458 52.5827 44.5025 52.9687 44.4755C53.3547 44.4486 53.7303 44.3387 54.0699 44.1534C54.4096 43.9681 54.7052 43.7117 54.9367 43.4017C55.5371 42.6097 55.8547 41.6393 55.8386 40.6456V40.6456Z" fill="#AB2066"/>
<path d="M46.9105 39.6076C46.9366 40.8313 46.56 42.0296 45.8388 43.0185C45.1175 44.0074 44.0914 44.7319 42.9182 45.0809C42.1386 45.2949 41.3194 45.3216 40.5275 45.1586C38.9337 44.8282 37.993 43.8253 37.8725 42.1654C37.7588 41.1466 37.9266 40.1161 38.3577 39.1861C38.7888 38.256 39.4667 37.462 40.3176 36.8904C40.9329 36.4617 41.637 36.1776 42.3774 36.0591C43.1178 35.9407 43.8754 35.9909 44.5936 36.2062C45.2576 36.3776 45.8463 36.7637 46.2681 37.3043C46.6899 37.8449 46.9212 38.5098 46.926 39.1955C46.9182 39.3316 46.9105 39.4715 46.9105 39.6076ZM45.4566 40.5911C45.4716 40.0247 45.3696 39.4614 45.1569 38.9363C44.9442 38.4113 44.6254 37.9357 44.2205 37.5395C43.9587 37.2761 43.6447 37.0704 43.2986 36.9357C42.9525 36.801 42.582 36.7403 42.211 36.7575C41.84 36.7747 41.4768 36.8695 41.1446 37.0356C40.8125 37.2018 40.5189 37.4357 40.2826 37.7222C38.9998 39.2111 38.9726 41.8972 40.2282 43.4132C40.4894 43.7589 40.8294 44.0371 41.2199 44.2248C41.6103 44.4126 42.04 44.5044 42.473 44.4926C42.9061 44.4808 43.3301 44.3658 43.7098 44.1571C44.0895 43.9484 44.4138 43.652 44.6558 43.2927C45.1996 42.4985 45.4798 41.5533 45.4566 40.5911Z" fill="#AB2066"/>
<path d="M98.5073 41.1275C99.0843 42.2459 99.8571 43.2517 100.789 44.0974C101.134 44.3652 101.51 44.5897 101.909 44.766C102.074 44.8495 102.258 44.8891 102.443 44.8809C102.629 44.8728 102.809 44.8171 102.966 44.7193C103.059 44.6649 103.211 44.7193 103.335 44.7193C103.289 44.8554 103.265 45.108 103.188 45.108C102.811 45.2293 102.417 45.2922 102.021 45.2946C101.25 45.2366 100.507 44.9765 99.8679 44.5405C98.6223 43.6929 97.5779 42.5822 96.8086 41.2868C97.1005 41.1643 97.3859 41.0267 97.6638 40.8748C98.1385 40.5989 98.5932 40.2897 99.0243 39.9496C99.3041 39.7106 99.5374 39.422 99.7124 39.0983C100.373 37.9088 99.7979 36.7659 98.449 36.6648C97.6483 36.6646 96.8484 36.7166 96.0544 36.8203C95.8406 36.8203 95.8056 36.9642 95.8056 37.1469C95.8056 39.684 95.8056 42.2237 95.8056 44.766V45.0886H94.1963C94.7016 42.1343 94.5617 39.1722 94.3323 36.175C94.4482 36.1578 94.5651 36.1474 94.6822 36.1439C96.1283 36.1439 97.5782 36.0934 99.0243 36.1128C99.4809 36.1201 99.932 36.2137 100.354 36.3888C101.131 36.7154 101.392 37.3918 101.158 38.212C100.981 38.7994 100.641 39.3249 100.179 39.728C99.6735 40.2023 99.0943 40.6377 98.5073 41.1275Z" fill="#AB2066"/>
<path d="M80.936 36.1206C80.7976 36.9089 80.4699 37.6519 79.981 38.2856C79.4921 38.9194 78.8567 39.425 78.1293 39.7591C78.6774 39.8174 79.1284 39.8368 79.5715 39.9184C80.0324 39.9699 80.4625 40.1753 80.7921 40.5015C80.2362 40.5015 79.6998 40.5015 79.1672 40.5015C77.7553 40.524 76.3486 40.6776 74.9651 40.9602C74.5997 41.0341 74.5414 41.2051 74.5764 41.5239C74.663 42.2722 74.9949 42.9708 75.5201 43.5109C76.0454 44.0509 76.7345 44.4019 77.4802 44.5093C78.164 44.6116 78.8621 44.5557 79.521 44.3461C79.729 44.2986 79.9254 44.2102 80.0989 44.086C80.2725 43.9619 80.4196 43.8045 80.5317 43.623C80.5744 43.5414 80.7261 43.5259 80.831 43.4792C80.8621 43.5919 80.9437 43.7241 80.9088 43.8096C80.8456 43.9605 80.7469 44.0939 80.6211 44.1984C79.8932 44.7486 79.029 45.09 78.1216 45.1857C77.2158 45.3257 76.2915 45.2874 75.4005 45.073C74.7902 44.9549 74.2349 44.6414 73.8184 44.18C73.4019 43.7186 73.1467 43.1343 73.0914 42.5152C72.9403 41.2804 73.1848 40.0296 73.7897 38.9427C74.3946 37.8558 75.3288 36.9888 76.4578 36.4665C76.9505 36.2503 77.4762 36.1189 78.0127 36.0778C78.8835 36.0195 79.7581 36.0778 80.6328 36.0778C80.7347 36.0845 80.8361 36.0988 80.936 36.1206V36.1206ZM74.6385 40.1439C77.107 40.1906 79.692 38.4374 79.6221 36.8086C78.8686 36.7547 78.1121 36.7612 77.3597 36.828C75.9058 37.0729 74.7241 38.5734 74.6385 40.1439Z" fill="#AB2066"/>
<path d="M35.9401 35.9845C35.9401 36.5249 35.1005 37.279 34.3852 37.3645C34.3852 37.3218 34.3541 37.2751 34.3658 37.2362C34.5251 36.692 34.5407 36.6959 33.9032 36.6726C31.6835 36.5909 29.9031 37.9398 29.4755 40.0234C29.2846 40.9065 29.387 41.8277 29.7671 42.6473C29.902 42.9823 30.1051 43.2856 30.3636 43.5379C30.622 43.7902 30.9301 43.986 31.2682 44.1129C31.6064 44.2397 31.9672 44.2949 32.3278 44.2748C32.6884 44.2547 33.0409 44.1598 33.3628 43.9962C34.1537 43.5928 34.8443 43.0178 35.3842 42.313C35.5163 42.181 35.658 42.0589 35.8079 41.9476C35.9669 42.1017 36.0984 42.2818 36.1967 42.4802C36.3978 43.2747 36.3804 44.1088 36.1461 44.8942C35.8596 46.1583 35.1953 47.3053 34.2414 48.1829C33.7897 48.6129 33.2358 48.9207 32.632 49.0769C32.5348 49.1003 32.4105 49.1469 32.3327 49.108C32.1987 49.0286 32.0747 48.9333 31.9634 48.8243C32.0878 48.7659 32.22 48.6532 32.3521 48.661C32.5523 48.6868 32.7558 48.6689 32.9484 48.6085C33.141 48.5481 33.3182 48.4467 33.4678 48.3111C34.0495 47.8197 34.5005 47.1919 34.7807 46.4838C35.0608 45.7757 35.1613 45.0092 35.0733 44.2528C35.0344 43.8407 34.9178 43.7902 34.5718 44.0196C33.7249 44.6355 32.7447 45.043 31.7107 45.2091C29.39 45.5123 27.9245 44.0701 28.1461 41.7377C28.2325 40.7247 28.5554 39.7462 29.0888 38.8807C29.6221 38.0151 30.3511 37.2868 31.2171 36.7542C32.1578 36.1245 33.2307 36.0234 34.3269 36.0001C34.8439 35.9767 35.392 35.9845 35.9401 35.9845Z" fill="#AB2066"/>
<path d="M104.247 36.35C104.212 35.9612 104.352 35.864 104.722 35.8718C106.3 35.9595 107.873 35.6368 109.289 34.935C109.701 34.7134 110.067 34.4413 110.483 34.1925C110.42 34.6434 110.137 34.97 108.994 35.8602H110.623C110.623 36.3227 110.623 36.3655 110.207 36.3538C109.563 36.3146 108.919 36.4195 108.321 36.6609C107.155 37.1741 106.545 38.1381 106.277 39.3432C105.976 40.478 106.115 41.6842 106.665 42.7212C107.346 43.9613 108.516 44.5366 109.775 44.2528C110.026 44.2133 110.263 44.1104 110.462 43.954C110.662 43.7975 110.819 43.5927 110.918 43.3587C110.957 43.2732 111.093 43.2305 111.186 43.1683C111.237 43.2771 111.33 43.386 111.322 43.487C111.305 43.6227 111.245 43.7494 111.151 43.8485C110.028 44.9603 108.694 45.4968 107.116 45.1352C106.094 44.9059 105.534 44.1595 105.27 43.1916C104.936 41.817 104.959 40.38 105.336 39.0166C105.449 38.5385 105.592 38.0643 105.725 37.59C105.966 36.7231 105.701 36.3616 104.792 36.3344C104.609 36.3461 104.426 36.35 104.247 36.35Z" fill="#AB2066"/>
<path d="M71.2512 23.627C71.2123 23.627 71.154 23.627 71.1385 23.6658C71.0064 23.8388 70.8338 23.9765 70.6357 24.0667C70.4377 24.1569 70.2205 24.1968 70.0034 24.1829C69.6656 24.1664 69.3394 24.0546 69.0626 23.8602C68.8595 23.7128 68.6951 23.5185 68.5834 23.2937C68.4717 23.069 68.4161 22.8205 68.4212 22.5696C68.4144 22.286 68.5111 22.0096 68.6934 21.7922C68.8974 21.464 69.219 21.2261 69.5925 21.1271C69.9661 21.0281 70.3633 21.0755 70.7031 21.2596C70.8882 21.3546 71.0525 21.4857 71.186 21.6453C71.3196 21.8049 71.4197 21.9897 71.4805 22.1887C71.671 22.7446 71.4183 23.176 71.2318 23.6464L71.2512 23.627Z" fill="#AB2066"/>
</svg>
