<svg width="89" height="46" viewBox="0 0 89 46" fill="none" xmlns="http://www.w3.org/2000/svg">
<path fill-rule="evenodd" clip-rule="evenodd" d="M58.0307 0.0630383C57.5132 0.211195 57.0605 0.607568 56.7879 1.15124C56.3907 1.9434 56.2288 2.83052 56.0542 5.17081C55.9508 6.55715 55.6742 8.90936 55.311 11.4898C55.2392 12.0001 55.1308 12.792 55.0701 13.2497C55.0095 13.7073 54.9375 14.2146 54.9101 14.377C54.8827 14.5393 54.845 14.8051 54.8262 14.9674C54.7913 15.2699 54.6101 16.3589 54.4199 17.4099C54.281 18.1766 54.229 19.7131 54.3291 20.0886C54.4694 20.6147 55.0257 20.8426 55.6607 20.634C55.9222 20.548 56.4604 20.1956 56.6036 20.0164C57.1333 19.3537 57.3196 18.3711 57.9526 12.9007C58.0141 12.3693 58.0987 11.6809 58.1406 11.3709C58.1825 11.0609 58.2417 10.5777 58.2722 10.2973C58.3027 10.0168 58.3868 9.30418 58.4591 8.7137C58.5314 8.12322 58.6518 7.04827 58.7265 6.32493C58.9112 4.53787 58.9998 3.75789 59.1261 2.80888C59.3066 1.45351 59.2573 0.547663 58.9883 0.274807C58.7103 -0.00717488 58.4653 -0.0613385 58.0307 0.0630383ZM33.1273 0.746117C32.7646 0.85192 32.4399 1.31233 32.2214 2.03052C32.1181 2.36999 31.9521 3.41477 31.9017 4.04353C31.8578 4.59085 31.6319 6.46423 31.5296 7.13013C31.4864 7.41061 31.4031 7.95412 31.3444 8.33794C31.2857 8.72175 31.2007 9.36189 31.1554 9.76046C31.0614 10.5892 30.831 12.0625 30.5635 13.5449C30.0706 16.2771 29.944 17.1401 29.9124 17.9835C29.8701 19.1166 29.9706 19.5497 30.3654 19.9349C30.5927 20.1566 30.8187 20.2274 31.3015 20.2278C31.8423 20.2282 32.2409 20.0004 32.5038 19.5404C32.5934 19.3836 32.7648 18.6231 32.8084 18.1882C32.8277 17.9963 32.8771 17.6461 32.9184 17.4099C32.9596 17.1737 33.055 16.4007 33.1304 15.6921C33.4432 12.7533 33.7357 11.6611 34.4887 10.6193C34.935 10.002 35.7317 9.48728 36.2452 9.48454C36.5787 9.48272 36.7374 9.54998 36.9363 9.77753C37.2063 10.0865 37.2459 10.2798 37.2459 11.2903C37.2459 12.4927 37.0191 16.3879 36.8928 17.3536C36.8008 18.0576 36.8134 19.1342 36.9177 19.4811C37.0718 19.9934 37.467 20.242 38.1276 20.242C38.9497 20.242 39.3799 19.8274 39.5941 18.8285C39.7922 17.9051 39.9767 10.7267 39.8334 9.5189C39.6541 8.00748 39.1057 6.81117 38.4308 6.45951C38.0235 6.24715 36.9733 6.21763 36.4443 6.40363C36.1412 6.51024 35.4961 6.81063 35.4557 6.86399C35.441 6.88342 35.373 6.92899 35.3045 6.96523C35.2361 7.00146 35.1399 7.06411 35.0908 7.10447C34.8545 7.29874 34.412 7.61326 34.3751 7.61326C34.3177 7.61326 34.3218 7.52442 34.4158 6.72721C34.6485 4.75366 34.7758 3.83858 34.8938 3.292C35.0087 2.75918 35.0732 2.03294 35.0306 1.75079C34.9796 1.41384 34.825 1.17282 34.5327 0.974955C34.1561 0.720082 33.5531 0.621847 33.1273 0.746117ZM27.9962 6.27173C27.4923 6.37475 27.0395 6.68534 26.9175 7.01177C26.7732 7.39762 26.6327 8.02648 26.4762 8.98607C26.2667 10.2712 26.0168 11.5339 25.8905 11.9458C25.5302 13.1212 24.6431 14.6804 23.8528 15.5275C22.9127 16.5351 22.7325 16.3514 22.0403 13.6791C21.8615 12.9886 21.7167 12.479 21.4989 11.7735C21.4625 11.6554 21.419 11.5467 21.4023 11.5319C21.3857 11.5171 21.3276 11.4039 21.2734 11.2804C21.1598 11.0216 20.9181 10.7558 20.687 10.6358C20.4589 10.5173 19.8904 10.5658 19.5591 10.732C19.1939 10.9152 18.9751 11.1984 18.6095 11.9613C18.4326 12.3304 18.0896 13.0454 17.8473 13.5503C17.3323 14.6231 17.0073 15.1406 16.6405 15.4719C16.3888 15.6993 16.12 15.8175 16.01 15.7492C15.924 15.6958 15.6959 14.9092 15.6354 14.4575C15.4234 12.8762 15.3862 11.6106 15.498 9.78258C15.5752 8.52018 15.5818 8.13025 15.5325 7.74649C15.4743 7.29418 15.4615 7.26251 15.2585 7.07232C14.9828 6.81412 14.6428 6.70069 14.1442 6.70069C13.6325 6.70069 13.3779 6.77987 13.1384 7.01349C12.7985 7.34512 12.6737 7.78836 12.5833 8.98548C12.3988 11.4269 12.9507 16.1387 13.5762 17.4636C13.9285 18.2097 14.4352 18.6213 15.2019 18.7843C16.0338 18.9612 17.3081 18.5993 17.9244 18.0111C18.042 17.8989 18.4251 17.4279 18.7757 16.9643C19.4494 16.0737 19.6128 15.88 19.6901 15.88C19.7736 15.88 19.9334 16.1532 20.3493 17.0073C21.073 18.493 21.224 18.6886 21.7995 18.885C22.4597 19.1104 23.223 18.9967 24.1597 18.5334C24.88 18.1771 25.1264 17.995 25.7844 17.3318C26.3656 16.7462 26.4907 16.6024 26.7436 16.2289C26.8436 16.0813 26.9401 15.9484 26.958 15.9337C26.976 15.9189 27.0858 15.749 27.202 15.556C27.3183 15.3631 27.4434 15.1577 27.4801 15.0997C27.5167 15.0417 27.7133 14.6561 27.9169 14.2428C28.6671 12.7198 29.1497 11.1544 29.42 9.36758C29.5384 8.58497 29.6129 7.30921 29.5576 7.0129C29.4648 6.5163 28.6626 6.13555 27.9962 6.27173ZM46.6228 6.51158C45.7798 6.63332 45.2565 6.86243 44.4385 7.46762C44.1032 7.71568 43.2594 8.52619 43.2583 8.60129C43.2579 8.62802 43.201 8.72465 43.132 8.81601C42.6629 9.43618 42.082 10.4158 42.082 10.5866C42.082 10.6341 42.062 10.673 42.0375 10.673C42.0131 10.673 41.967 10.7757 41.9351 10.9012C41.9033 11.0266 41.8372 11.2726 41.7883 11.4477C41.4393 12.6985 41.468 14.1469 41.8649 15.3164C42.1741 16.2276 42.595 16.7495 43.5022 17.3465C44.1355 17.7634 44.5247 17.9504 45.3149 18.2173C45.8856 18.4101 45.9308 18.4167 46.8646 18.4429C47.7438 18.4675 47.8678 18.4593 48.3074 18.3469C49.7415 17.9801 50.8338 17.2389 51.9147 15.8992C52.4544 15.2301 52.9612 14.0388 53.094 13.1266C53.153 12.7215 53.1212 11.7124 53.0301 11.1025C52.8375 9.81178 52.2507 8.59458 51.4681 7.86212C50.8329 7.26755 50.069 6.84515 49.2159 6.61658C48.5586 6.4405 47.4309 6.39482 46.6228 6.51158ZM65.5143 7.31238C64.119 7.58271 63.3649 7.96851 62.4655 8.87189C62.0749 9.26424 61.5866 9.8318 61.5866 9.89337C61.5866 9.91281 61.5269 10.0073 61.4539 10.1034C61.2699 10.3457 60.8472 11.2244 60.728 11.6124C60.5147 12.3066 60.4503 12.8991 60.4801 13.8938C60.5125 14.9759 60.6135 15.5549 60.8699 16.1297C60.9114 16.2227 60.9454 16.3127 60.9454 16.3296C60.9454 16.3992 61.289 17.11 61.4677 17.4099C62.0473 18.3828 62.7796 19.0813 63.6856 19.5251C64.3486 19.8499 64.8362 19.9334 66.0486 19.9299C66.9368 19.9273 67.1478 19.9091 67.7333 19.7844C68.4067 19.641 69.2246 19.3482 69.4981 19.1525C69.5791 19.0945 69.6608 19.0471 69.6797 19.0471C69.747 19.0471 69.9518 18.8001 70.0807 18.5634C70.2368 18.2769 70.2673 17.6838 70.1342 17.5226C69.7916 17.1074 69.6108 17.007 69.2068 17.0076C68.9432 17.0079 68.7424 17.0599 67.9724 17.3271C67.6491 17.4392 67.2523 17.5758 67.0907 17.6305C66.6447 17.7815 65.8888 17.769 65.4074 17.6028C64.7687 17.3823 64.4187 17.0978 64.1863 16.6106C64.0119 16.2448 63.976 16.1106 64.0416 16.0698C64.0717 16.0511 64.3432 15.9788 64.645 15.909C66.6113 15.4547 68.4333 14.854 69.6359 14.2637C71.1243 13.533 71.3332 12.9668 70.7981 11.1121C70.7248 10.8582 70.5912 10.4924 70.5012 10.2994C70.4112 10.1063 70.3016 9.8638 70.2576 9.76046C70.1062 9.40467 69.7048 8.83824 69.3466 8.47515C68.808 7.92916 68.3108 7.62388 67.5983 7.40181C67.1174 7.25193 66.0604 7.20658 65.5143 7.31238ZM48.3341 9.20047C49.1757 9.54171 49.7809 10.2369 50.0835 11.2098C50.2043 11.5984 50.2252 11.7617 50.2244 12.3103C50.2231 13.2036 50.0483 13.7673 49.581 14.3849C49.3241 14.7244 48.7903 15.2288 48.5634 15.3463C48.4814 15.3888 48.4023 15.4382 48.3876 15.456C48.3525 15.4984 48.0345 15.6392 47.8052 15.7136C47.5327 15.8021 46.5572 15.7873 46.2226 15.6896C45.4128 15.4531 44.6959 14.6655 44.5403 13.8414C44.4307 13.2607 44.5035 12.4509 44.7261 11.7735C44.8415 11.4224 45.2916 10.512 45.3498 10.512C45.3747 10.512 45.3951 10.4756 45.3951 10.4311C45.3951 10.3866 45.6055 10.1378 45.8627 9.87813C46.2967 9.43994 46.5721 9.25361 46.9982 9.11002C47.2204 9.03519 48.068 9.09257 48.3341 9.20047ZM66.8804 9.98769C67.4146 10.2513 67.8396 10.7583 68.0919 11.433C68.2279 11.7968 68.2247 11.8015 67.6496 12.087C66.6051 12.6056 64.8223 13.1868 63.6949 13.3763C63.4018 13.4256 63.3763 13.3709 63.3806 12.7014C63.3894 11.3292 63.8886 10.4988 64.9897 10.0246C65.3868 9.85365 65.5837 9.8193 66.1021 9.83057C66.5048 9.83926 66.6314 9.86481 66.8804 9.98769ZM11.0057 30.9922L11.0081 40.7365L12.5711 40.7322L14.1342 40.728L14.1346 35.4032C14.1348 32.0692 14.1552 29.9479 14.1892 29.7295C14.3276 28.8392 14.6916 28.2436 15.2667 27.9663C15.6812 27.7665 16.0434 27.7165 16.4884 27.7975C17.03 27.8962 17.2661 28.105 17.4589 28.6559L17.5809 29.0048L17.5759 34.8693L17.5708 40.7339H19.1523H20.7337L20.7321 34.3862C20.7308 29.4903 20.7149 27.9587 20.6627 27.6896C20.3635 26.1464 19.6668 25.2982 18.4359 24.9783C17.8378 24.8229 16.7196 24.8765 16.0671 25.0919C15.3453 25.3302 14.7414 25.8697 14.3544 26.622C14.1952 26.9316 14.1061 26.949 14.1103 26.6697C14.1119 26.5664 14.1319 25.3042 14.1549 23.8649L14.1968 21.248H12.6001H11.0034L11.0057 30.9922ZM79.0464 30.9775L79.0588 40.7071L80.6347 40.7213L82.2106 40.7355L82.2255 35.1385L82.2405 29.5416L82.3861 29.1465C82.5787 28.6238 82.7611 28.3463 83.0589 28.1223C83.4219 27.8495 83.6697 27.774 84.1983 27.7754C84.7847 27.7769 85.0947 27.9172 85.3492 28.2963C85.6686 28.7721 85.6618 28.6189 85.6426 34.9455L85.6251 40.7251L87.2103 40.7161L88.7954 40.7071L88.7974 34.3728C88.7993 28.1191 88.7978 28.0323 88.6867 27.5461C88.432 26.4325 88.038 25.7748 87.3739 25.3547C86.8361 25.0145 86.5591 24.942 85.6869 24.913C84.8208 24.8843 84.3457 24.9668 83.7343 25.2525C83.3015 25.4547 82.6767 26.091 82.4337 26.577C82.3343 26.7756 82.234 26.9381 82.2106 26.9381C82.1715 26.9381 82.1817 25.1173 82.2363 22.3619L82.2583 21.248H80.6461H79.0339L79.0464 30.9775ZM0 23.3952V24.9519H1.54071H3.08141L3.06367 32.8429L3.04593 40.7339H4.7127H6.37946L6.35611 38.7343C6.34329 37.6346 6.32196 34.0836 6.30877 30.8433L6.28472 24.9519H7.83152H9.37826V23.3952V21.8385H4.68913H0V23.3952ZM39.9979 23.3952V24.9519H41.5542H43.1105L43.0884 32.8429L43.0665 40.7339H44.7452H46.424L46.3909 40.4521C46.3728 40.297 46.342 36.7462 46.3225 32.5611L46.2871 24.9519H47.845H49.4029V23.3952V21.8385H44.7004H39.9979V23.3952ZM71.3657 23.6659V25.113H70.7778H70.19V26.5355V27.958H70.7213C71.017 27.958 71.2671 27.9818 71.2854 28.0116C71.3036 28.0411 71.3163 30.164 71.3139 32.7292C71.3108 35.8817 71.3285 37.5215 71.3684 37.7887C71.659 39.7349 72.7519 40.7251 74.7322 40.8365C75.0408 40.8539 75.5097 40.8499 75.7742 40.8276C76.2299 40.7893 77.3386 40.5497 77.4111 40.4739C77.4297 40.4545 77.4002 40.1488 77.3456 39.7945C77.2057 38.886 77.0835 37.9262 77.0835 37.7353C77.0835 37.6461 77.0653 37.5619 77.0432 37.5481C77.0211 37.5344 76.8318 37.5808 76.6226 37.6513C76.1348 37.8156 75.594 37.8665 75.2026 37.7849C74.845 37.7103 74.6626 37.5807 74.5329 37.3087C74.4447 37.1239 74.4383 36.8035 74.4383 32.5745V28.0385L75.7876 28.0597L77.1369 28.0808L77.1372 27.0398C77.1374 26.4672 77.153 25.7994 77.1718 25.5558L77.2061 25.113H75.8412H74.4762L74.5054 23.6639L74.5345 22.2149L72.9501 22.2168L71.3657 22.2188V23.6659ZM10.7676 22.9121C10.7676 23.4489 10.781 23.5563 10.8478 23.5563C10.9146 23.5563 10.9279 23.4489 10.9279 22.9121C10.9279 22.3753 10.9146 22.2679 10.8478 22.2679C10.781 22.2679 10.7676 22.3753 10.7676 22.9121ZM11.1951 22.9121C11.1951 23.4489 11.1818 23.5563 11.115 23.5563C11.0482 23.5563 11.0348 23.4489 11.0348 22.9121C11.0348 22.3753 11.0482 22.2679 11.115 22.2679C11.1818 22.2679 11.1951 22.3753 11.1951 22.9121ZM26.4515 24.9219C25.1099 25.1899 24.1153 26.019 23.4808 27.3987C22.8415 28.7886 22.5769 30.4374 22.5779 33.0243C22.5788 35.4233 22.7966 36.9838 23.298 38.1841C23.6415 39.0063 23.8798 39.3784 24.3656 39.8507C25.1411 40.6048 26.109 40.9491 27.4512 40.9482C29.1008 40.9471 30.1592 40.6275 30.8601 39.9187C31.0586 39.7181 31.4257 39.1223 31.5469 38.8044C31.7219 38.3451 31.8827 37.2754 31.8925 36.5059L31.9021 35.7403L30.5128 35.7296L29.1234 35.7189L29.0879 36.3073C29.0178 37.4698 28.814 37.9533 28.2684 38.251C28.0197 38.3867 27.1814 38.4103 26.8687 38.2904C26.5689 38.1753 26.2508 37.8955 26.0726 37.5901C25.7838 37.0951 25.5604 35.8695 25.5498 34.7217L25.5431 33.997L28.6757 33.9991L31.8083 34.0012L31.8415 33.5429C31.9135 32.5472 31.9363 30.3689 31.8825 29.638C31.8088 28.6382 31.6992 28.0498 31.4642 27.3944C30.9777 26.0374 30.2559 25.3469 28.9326 24.9726C28.5182 24.8554 26.9455 24.8233 26.4515 24.9219ZM55.4413 25.0248C54.5059 25.3003 53.8648 26.0712 53.5003 27.3591C53.4238 27.6293 53.3574 27.7701 53.3063 27.7701C53.2412 27.7701 53.2304 27.6389 53.24 26.9649C53.2463 26.5221 53.2664 25.9238 53.2846 25.6355L53.3177 25.1111L51.9744 25.1255L50.6311 25.1398L50.6314 32.8832C50.6315 37.1421 50.6317 40.6507 50.6318 40.6802C50.6319 40.7148 51.2155 40.7339 52.2754 40.7339H53.9189L53.9186 35.4867C53.9183 29.715 53.9112 29.8527 54.2467 29.1643C54.6361 28.3656 55.5498 28.1145 56.9695 28.4161L57.1351 28.4513L57.1729 27.5739C57.1937 27.0914 57.2317 26.5275 57.2573 26.3208C57.283 26.1141 57.3185 25.76 57.3363 25.5338L57.3686 25.1226L57.0863 25.0607C56.6412 24.9632 55.7191 24.943 55.4413 25.0248ZM58.7843 31.3801C58.7876 37.9395 58.7844 37.8391 59.0221 38.7064C59.304 39.7349 60.0066 40.457 61.0255 40.7652C61.463 40.8975 62.6849 40.9 63.2104 40.7696C64.0379 40.5644 64.7989 39.9622 65.1384 39.2441C65.4045 38.681 65.4462 38.772 65.4027 39.8213L65.365 40.7339H66.9492H68.5335L68.5415 33.004C68.5459 28.7525 68.5519 25.2439 68.5548 25.2069C68.559 25.1549 68.2039 25.1366 66.9769 25.1256L65.3938 25.1114L65.4197 30.4131C65.4424 35.045 65.4351 35.7787 65.3624 36.2209C65.1792 37.3347 64.5906 38.0301 63.7314 38.1481C63.3566 38.1996 62.8309 38.142 62.6051 38.0247C62.3754 37.9054 62.1446 37.5939 62.0331 37.2527C61.9388 36.9643 61.9342 36.66 61.9398 31.0312L61.9457 25.113H60.3634H58.7811L58.7843 31.3801ZM28.0876 27.5436C28.3916 27.6715 28.6264 27.913 28.7821 28.258C29.019 28.7829 29.0681 29.1907 29.069 30.642L29.0699 31.9572H27.3065H25.5431L25.559 31.4472C25.5798 30.7789 25.6602 29.9739 25.7622 29.4103C25.971 28.2579 26.3676 27.6352 26.9937 27.4773C27.26 27.4101 27.8562 27.4462 28.0876 27.5436ZM88.7328 32.7892C88.7328 32.9443 88.7105 33.004 88.6527 33.004C88.5948 33.004 88.5725 32.9443 88.5725 32.7892C88.5725 32.6342 88.5948 32.5745 88.6527 32.5745C88.7105 32.5745 88.7328 32.6342 88.7328 32.7892ZM88.8397 32.7892C88.8397 32.9443 88.862 33.004 88.9198 33.004C88.9777 33.004 89 32.9443 89 32.7892C89 32.6342 88.9777 32.5745 88.9198 32.5745C88.862 32.5745 88.8397 32.6342 88.8397 32.7892ZM88.7328 37.9425C88.7328 38.0976 88.7105 38.1572 88.6527 38.1572C88.5948 38.1572 88.5725 38.0976 88.5725 37.9425C88.5725 37.7874 88.5948 37.7278 88.6527 37.7278C88.7105 37.7278 88.7328 37.7874 88.7328 37.9425ZM88.8397 37.9425C88.8397 38.0976 88.862 38.1572 88.9198 38.1572C88.9777 38.1572 89 38.0976 89 37.9425C89 37.7874 88.9777 37.7278 88.9198 37.7278C88.862 37.7278 88.8397 37.7874 88.8397 37.9425ZM10.7676 39.2309C10.7676 39.3859 10.7899 39.4456 10.8478 39.4456C10.9057 39.4456 10.9279 39.3859 10.9279 39.2309C10.9279 39.0758 10.9057 39.0161 10.8478 39.0161C10.7899 39.0161 10.7676 39.0758 10.7676 39.2309ZM11.1951 39.2309C11.1951 39.3859 11.1729 39.4456 11.115 39.4456C11.0571 39.4456 11.0348 39.3859 11.0348 39.2309C11.0348 39.0758 11.0571 39.0161 11.115 39.0161C11.1729 39.0161 11.1951 39.0758 11.1951 39.2309Z" fill="black"/>
<path d="M35.5143 36.7615C35.6079 36.1466 35.8783 35.8032 36.4174 35.6148C36.8301 35.4706 37.3547 35.6073 37.6665 35.9405C37.7968 36.0798 38.5408 37.3538 38.961 38.1572C39.0614 38.3491 39.1667 38.5424 39.195 38.5866C39.265 38.6959 39.7402 39.5733 40.0675 40.197C40.2146 40.4775 40.4244 40.864 40.5338 41.0559C40.6432 41.2478 40.7989 41.5377 40.8799 41.7001C40.9608 41.8625 41.042 42.0074 41.0601 42.0222C41.0784 42.0369 41.2229 42.3027 41.3814 42.6127C41.5398 42.9227 41.6898 43.2026 41.7146 43.2346C41.7866 43.3277 42.0726 43.8486 42.2231 44.1609C42.4837 44.7016 42.3453 45.2972 41.8754 45.6576C41.4154 46.0103 40.9297 46.0199 40.4373 45.6861C40.1752 45.5084 40.0951 45.4053 39.7589 44.8135C39.0494 43.5644 38.8348 43.1773 38.6577 42.8274C38.5606 42.6355 38.4292 42.3939 38.3658 42.2906C38.3024 42.1872 38.1462 41.8974 38.0187 41.6464C37.8912 41.3955 37.7733 41.1781 37.7567 41.1633C37.7402 41.1485 37.6548 40.9985 37.5669 40.8299C37.4791 40.6613 37.3928 40.5405 37.3753 40.5615C37.3578 40.5825 37.3149 40.7567 37.28 40.9486C37.2451 41.1405 37.1062 41.8893 36.9714 42.6127C36.6608 44.279 36.587 44.6811 36.5427 44.9477C36.4869 45.2837 36.3905 45.4695 36.1621 45.6818C35.8608 45.9619 35.3874 46.064 34.8713 45.9603C34.5861 45.903 34.255 45.5199 34.1491 45.1246C34.0604 44.7937 34.0614 44.7705 34.1965 44.0083C34.4597 42.5246 35.0743 39.161 35.2953 37.9962C35.3821 37.5385 35.4807 36.983 35.5143 36.7615Z" fill="#7C384F"/>
<path fill-rule="evenodd" clip-rule="evenodd" d="M58.0304 0.0630383C57.5129 0.211195 57.0602 0.607568 56.7876 1.15124C56.3904 1.9434 56.2285 2.83052 56.0539 5.17081C55.9505 6.55715 55.6739 8.90936 55.3107 11.4898C55.2389 12.0001 55.1305 12.792 55.0698 13.2497C55.0092 13.7073 54.9372 14.2146 54.9098 14.377C54.8824 14.5393 54.8447 14.8051 54.8259 14.9674C54.791 15.2699 54.6098 16.3589 54.4196 17.4099C54.2807 18.1766 54.2287 19.7131 54.3288 20.0886C54.4691 20.6147 55.0254 20.8426 55.6604 20.634C55.9219 20.548 56.4601 20.1956 56.6033 20.0164C57.133 19.3537 57.3193 18.3711 57.9523 12.9007C58.0138 12.3693 58.0984 11.6809 58.1403 11.3709C58.1822 11.0609 58.2414 10.5777 58.2719 10.2973C58.3024 10.0168 58.3865 9.30418 58.4588 8.7137C58.5311 8.12322 58.6515 7.04827 58.7262 6.32493C58.9109 4.53787 58.9995 3.75789 59.1258 2.80888C59.3063 1.45351 59.257 0.547663 58.988 0.274807C58.71 -0.00717488 58.465 -0.0613385 58.0304 0.0630383ZM33.127 0.746117C32.7643 0.85192 32.4396 1.31233 32.2211 2.03052C32.1178 2.36999 31.9518 3.41477 31.9014 4.04353C31.8575 4.59085 31.6316 6.46423 31.5293 7.13013C31.4861 7.41061 31.4028 7.95412 31.3441 8.33794C31.2854 8.72175 31.2004 9.36189 31.1551 9.76046C31.0611 10.5892 30.8307 12.0625 30.5632 13.5449C30.0703 16.2771 29.9437 17.1401 29.9121 17.9835C29.8698 19.1166 29.9703 19.5497 30.3651 19.9349C30.5924 20.1566 30.8184 20.2274 31.3012 20.2278C31.842 20.2282 32.2406 20.0004 32.5035 19.5404C32.5931 19.3836 32.7645 18.6231 32.8081 18.1882C32.8274 17.9963 32.8769 17.6461 32.9181 17.4099C32.9593 17.1737 33.0547 16.4007 33.1301 15.6921C33.4429 12.7533 33.7354 11.6611 34.4884 10.6193C34.9347 10.002 35.7314 9.48728 36.2449 9.48454C36.5784 9.48272 36.7371 9.54998 36.936 9.77753C37.206 10.0865 37.2456 10.2798 37.2456 11.2903C37.2456 12.4927 37.0188 16.3879 36.8925 17.3536C36.8005 18.0576 36.8131 19.1342 36.9174 19.4811C37.0715 19.9934 37.4667 20.242 38.1273 20.242C38.9494 20.242 39.3796 19.8274 39.5938 18.8285C39.7919 17.9051 39.9764 10.7267 39.8331 9.5189C39.6538 8.00748 39.1054 6.81117 38.4305 6.45951C38.0232 6.24715 36.973 6.21763 36.444 6.40363C36.1409 6.51024 35.4958 6.81063 35.4554 6.86399C35.4407 6.88342 35.3727 6.92899 35.3042 6.96523C35.2358 7.00146 35.1396 7.06411 35.0905 7.10447C34.8542 7.29874 34.4117 7.61326 34.3748 7.61326C34.3174 7.61326 34.3215 7.52442 34.4155 6.72721C34.6482 4.75366 34.7755 3.83858 34.8935 3.292C35.0084 2.75918 35.0729 2.03294 35.0303 1.75079C34.9793 1.41384 34.8247 1.17282 34.5324 0.974955C34.1558 0.720082 33.5528 0.621847 33.127 0.746117ZM27.9959 6.27173C27.492 6.37475 27.0392 6.68534 26.9172 7.01177C26.7729 7.39762 26.6324 8.02648 26.4759 8.98607C26.2664 10.2712 26.0165 11.5339 25.8902 11.9458C25.5299 13.1212 24.6428 14.6804 23.8525 15.5275C22.9124 16.5351 22.7322 16.3514 22.04 13.6791C21.8612 12.9886 21.7164 12.479 21.4986 11.7735C21.4622 11.6554 21.4187 11.5467 21.402 11.5319C21.3853 11.5171 21.3273 11.4039 21.2731 11.2804C21.1595 11.0216 20.9178 10.7558 20.6867 10.6358C20.4586 10.5173 19.8901 10.5658 19.5588 10.732C19.1936 10.9152 18.9748 11.1984 18.6092 11.9613C18.4323 12.3304 18.0893 13.0454 17.847 13.5503C17.332 14.6231 17.007 15.1406 16.6402 15.4719C16.3885 15.6993 16.1197 15.8175 16.0097 15.7492C15.9237 15.6958 15.6956 14.9092 15.6351 14.4575C15.4231 12.8762 15.3859 11.6106 15.4977 9.78258C15.5749 8.52018 15.5815 8.13025 15.5322 7.74649C15.474 7.29418 15.4612 7.26251 15.2582 7.07232C14.9825 6.81412 14.6425 6.70069 14.1439 6.70069C13.6322 6.70069 13.3776 6.77987 13.1381 7.01349C12.7982 7.34512 12.6734 7.78836 12.583 8.98548C12.3985 11.4269 12.9504 16.1387 13.5759 17.4636C13.9282 18.2097 14.4349 18.6213 15.2016 18.7843C16.0335 18.9612 17.3078 18.5993 17.9241 18.0111C18.0417 17.8989 18.4248 17.4279 18.7754 16.9643C19.4491 16.0737 19.6125 15.88 19.6898 15.88C19.7733 15.88 19.9331 16.1532 20.349 17.0073C21.0727 18.493 21.2237 18.6886 21.7992 18.885C22.4594 19.1104 23.2227 18.9967 24.1594 18.5334C24.8797 18.1771 25.1261 17.995 25.7841 17.3318C26.3653 16.7462 26.4904 16.6024 26.7433 16.2289C26.8433 16.0813 26.9398 15.9484 26.9577 15.9337C26.9757 15.9189 27.0855 15.749 27.2017 15.556C27.318 15.3631 27.4431 15.1577 27.4798 15.0997C27.5164 15.0417 27.713 14.6561 27.9166 14.2428C28.6668 12.7198 29.1494 11.1544 29.4197 9.36758C29.5381 8.58497 29.6126 7.30921 29.5573 7.0129C29.4646 6.5163 28.6623 6.13555 27.9959 6.27173ZM46.6225 6.51158C45.7795 6.63332 45.2562 6.86243 44.4382 7.46762C44.1029 7.71568 43.2592 8.52619 43.258 8.60129C43.2576 8.62802 43.2007 8.72465 43.1317 8.81601C42.6626 9.43618 42.0817 10.4158 42.0817 10.5866C42.0817 10.6341 42.0617 10.673 42.0372 10.673C42.0128 10.673 41.9667 10.7757 41.9348 10.9012C41.903 11.0266 41.8369 11.2726 41.788 11.4477C41.439 12.6985 41.4677 14.1469 41.8646 15.3164C42.1738 16.2276 42.5947 16.7495 43.5019 17.3465C44.1352 17.7634 44.5244 17.9504 45.3146 18.2173C45.8853 18.4101 45.9305 18.4167 46.8643 18.4429C47.7435 18.4675 47.8675 18.4593 48.3071 18.3469C49.7412 17.9801 50.8335 17.2389 51.9144 15.8992C52.4541 15.2301 52.9609 14.0388 53.0937 13.1266C53.1527 12.7215 53.1209 11.7124 53.0298 11.1025C52.8372 9.81178 52.2504 8.59458 51.4678 7.86212C50.8326 7.26755 50.0687 6.84515 49.2155 6.61658C48.5583 6.4405 47.4306 6.39482 46.6225 6.51158ZM65.514 7.31238C64.1187 7.58271 63.3646 7.96851 62.4652 8.87189C62.0746 9.26424 61.5863 9.8318 61.5863 9.89337C61.5863 9.91281 61.5266 10.0073 61.4536 10.1034C61.2696 10.3457 60.8469 11.2244 60.7277 11.6124C60.5144 12.3066 60.45 12.8991 60.4798 13.8938C60.5122 14.9759 60.6132 15.5549 60.8696 16.1297C60.9111 16.2227 60.9451 16.3127 60.9451 16.3296C60.9451 16.3992 61.2887 17.11 61.4674 17.4099C62.047 18.3828 62.7793 19.0813 63.6853 19.5251C64.3483 19.8499 64.8359 19.9334 66.0483 19.9299C66.9365 19.9273 67.1475 19.9091 67.733 19.7844C68.4064 19.641 69.2243 19.3482 69.4978 19.1525C69.5788 19.0945 69.6605 19.0471 69.6794 19.0471C69.7467 19.0471 69.9515 18.8001 70.0804 18.5634C70.2365 18.2769 70.267 17.6838 70.1339 17.5226C69.7913 17.1074 69.6105 17.007 69.2065 17.0076C68.9429 17.0079 68.7421 17.0599 67.9721 17.3271C67.6488 17.4392 67.252 17.5758 67.0904 17.6305C66.6444 17.7815 65.8885 17.769 65.4071 17.6028C64.7684 17.3823 64.4184 17.0978 64.186 16.6106C64.0116 16.2448 63.9757 16.1106 64.0413 16.0698C64.0714 16.0511 64.3429 15.9788 64.6447 15.909C66.611 15.4547 68.433 14.854 69.6356 14.2637C71.124 13.533 71.3329 12.9668 70.7978 11.1121C70.7245 10.8582 70.5909 10.4924 70.5009 10.2994C70.4109 10.1063 70.3013 9.8638 70.2573 9.76046C70.1059 9.40467 69.7045 8.83824 69.3463 8.47515C68.8077 7.92916 68.3105 7.62388 67.598 7.40181C67.1171 7.25193 66.0601 7.20658 65.514 7.31238ZM48.3338 9.20047C49.1754 9.54171 49.7806 10.2369 50.0832 11.2098C50.204 11.5984 50.2249 11.7617 50.2241 12.3103C50.2228 13.2036 50.048 13.7673 49.5807 14.3849C49.3238 14.7244 48.79 15.2288 48.5631 15.3463C48.4811 15.3888 48.402 15.4382 48.3873 15.456C48.3522 15.4984 48.0342 15.6392 47.8049 15.7136C47.5324 15.8021 46.5569 15.7873 46.2223 15.6896C45.4125 15.4531 44.6956 14.6655 44.54 13.8414C44.4304 13.2607 44.5032 12.4509 44.7258 11.7735C44.8412 11.4224 45.2913 10.512 45.3495 10.512C45.3744 10.512 45.3948 10.4756 45.3948 10.4311C45.3948 10.3866 45.6052 10.1378 45.8624 9.87813C46.2964 9.43994 46.5718 9.25361 46.9979 9.11002C47.2201 9.03519 48.0677 9.09257 48.3338 9.20047ZM66.8801 9.98769C67.4143 10.2513 67.8393 10.7583 68.0916 11.433C68.2276 11.7968 68.2244 11.8015 67.6493 12.087C66.6048 12.6056 64.822 13.1868 63.6946 13.3763C63.4015 13.4256 63.376 13.3709 63.3803 12.7014C63.3891 11.3292 63.8883 10.4988 64.9894 10.0246C65.3865 9.85365 65.5834 9.8193 66.1018 9.83057C66.5045 9.83926 66.6311 9.86481 66.8801 9.98769Z" fill="#7C384F"/>
</svg>
