<svg width="106" height="43" viewBox="0 0 106 43" fill="none" xmlns="http://www.w3.org/2000/svg">
<path d="M48.073 14.5341C47.9234 15.3085 48.3326 15.7177 48.8694 16.0433C48.99 16.1081 49.0869 16.2094 49.1462 16.3328C49.2055 16.4561 49.2241 16.5951 49.1994 16.7297C49.1741 17.0225 49.1741 17.3169 49.1994 17.6097C49.2999 18.4733 49.0583 19.342 48.5262 20.0297C48.0862 20.5533 47.611 21.0241 47.1666 21.5345C46.7948 21.9144 46.4576 22.3267 46.159 22.7665C45.719 23.4925 45.8246 24.0865 46.3878 24.7509C46.467 24.8433 46.4538 25.0149 46.4802 25.1513C46.3262 25.1513 46.115 25.2701 46.0402 25.2041C45.805 25.0293 45.6037 24.8131 45.4462 24.5661C45.1604 24.0607 44.9803 23.5025 44.9167 22.9254C44.8532 22.3483 44.9076 21.7643 45.0766 21.2089C45.2086 20.6677 45.4242 20.1485 45.609 19.6205C45.918 18.8255 45.9382 17.9473 45.6662 17.1389L45.5782 16.9409C45.5226 16.9877 45.4697 17.0376 45.4198 17.0905C45.0607 17.6294 44.5688 18.0667 43.9916 18.3603C43.4144 18.654 42.7713 18.794 42.1242 18.7669C41.473 18.7669 40.8042 18.7361 40.175 18.7977C39.7171 18.8473 39.2709 18.9737 38.855 19.1717C38.6223 19.2804 38.4289 19.4584 38.3012 19.6813C38.1736 19.9042 38.1181 20.1612 38.1422 20.4169C38.1617 20.5578 38.1271 20.7008 38.0454 20.8173C37.3062 21.5169 37.469 22.3485 37.6934 23.1757C37.8984 23.924 38.3417 24.5851 38.9562 25.0589C39.5326 25.4989 40.1486 25.8905 40.7602 26.2909C41.495 26.7749 42.2738 27.2061 42.9602 27.7297C43.8702 28.338 44.5625 29.2206 44.9367 30.2492C45.311 31.2777 45.3477 32.3988 45.0414 33.4497C44.465 35.8125 43.0262 37.4361 40.593 38.0345C39.6413 38.2767 38.6425 38.2631 37.6978 37.9949C36.9861 37.8208 36.3475 37.4262 35.8734 36.8676C35.3993 36.3089 35.1138 35.6147 35.0578 34.8841C34.9121 33.7737 35.063 32.6445 35.495 31.6113C35.927 30.578 36.6247 29.6775 37.5174 29.0013C37.945 28.7122 38.4059 28.4758 38.8902 28.2973C39.0252 28.2556 39.1709 28.265 39.2994 28.3237C39.345 28.3518 39.3832 28.3904 39.4108 28.4364C39.4384 28.4823 39.4545 28.5342 39.4578 28.5877C39.4364 28.6352 39.4034 28.6766 39.3619 28.7081C39.3204 28.7396 39.2717 28.7602 39.2202 28.7681C38.8104 28.7725 38.4115 28.901 38.0761 29.1367C37.7407 29.3723 37.4845 29.704 37.3414 30.0881C36.8713 30.9568 36.6354 31.9329 36.657 32.9204C36.6786 33.9079 36.9569 34.8728 37.4646 35.7201C37.7868 36.3066 38.285 36.7772 38.8889 37.0653C39.4929 37.3535 40.172 37.4447 40.8306 37.3261C41.4876 37.193 42.0792 36.8389 42.507 36.3229C43.959 34.6729 44.047 31.7249 42.7226 29.9693C41.9185 29.0132 40.9681 28.1905 39.9066 27.5317C39.1976 27.0575 38.5438 26.5056 37.9574 25.8861C37.4249 25.3018 37.0616 24.5835 36.9066 23.8083C36.7515 23.0331 36.8106 22.2303 37.0774 21.4861C37.2931 20.8746 37.4752 20.2518 37.623 19.6205C37.8241 18.7447 38.3573 17.9812 39.1102 17.4909C39.6075 17.1392 40.1363 16.8343 40.6898 16.5801C41.605 16.1401 42.4498 15.6693 42.9338 14.7101C43.057 14.7981 43.1582 14.8773 43.2638 14.9477C43.3725 15.0311 43.4967 15.0922 43.6291 15.1274C43.7616 15.1626 43.8997 15.1713 44.0354 15.1529C44.1712 15.1345 44.3021 15.0894 44.4203 15.0202C44.5386 14.951 44.642 14.859 44.7246 14.7497C44.795 14.6705 44.8522 14.5825 44.9138 14.4989C45.3098 13.9445 45.4726 13.8917 46.1942 14.1161C45.9113 14.1753 45.6555 14.3257 45.4664 14.5443C45.2772 14.7629 45.165 15.0376 45.147 15.3261C45.1374 15.4964 45.0652 15.6572 44.9441 15.7774C44.8231 15.8977 44.6618 15.9689 44.4914 15.9773C44.3638 15.9773 44.245 16.0433 44.1174 16.0741C44.2523 16.2295 44.4268 16.3455 44.6223 16.4097C44.8178 16.4739 45.0271 16.484 45.2278 16.4389C45.4286 16.3938 45.6134 16.2951 45.7627 16.1534C45.9119 16.0117 46.02 15.8323 46.0754 15.6341C46.1194 15.4713 46.159 15.3085 46.1986 15.1457C46.2954 14.7365 46.5198 14.5737 47.0082 14.5913C46.4626 15.2029 46.5682 15.8673 46.841 16.5361C46.9478 16.7723 47.0361 17.0165 47.105 17.2665C47.1755 17.5459 47.1775 17.8382 47.1108 18.1186C47.0442 18.3989 46.9109 18.6591 46.7222 18.8769C46.6808 18.9581 46.654 19.046 46.643 19.1365C46.731 19.1365 46.8366 19.1981 46.907 19.1629C47.787 18.7229 48.6186 17.7813 48.0202 16.4701C47.8679 16.1558 47.7428 15.829 47.6462 15.4933C47.6049 15.3088 47.624 15.1158 47.7009 14.9431C47.7778 14.7703 47.9083 14.6269 48.073 14.5341V14.5341Z" fill="#AB2066"/>
<path d="M98.0133 38.0343H96.3281C96.4073 35.5263 96.5393 33.0359 96.5437 30.5543C96.5481 28.0727 96.4381 25.5691 96.3765 23.0479H98.0749V30.0351C98.3697 29.7755 98.6161 29.551 98.8669 29.3354C99.5327 28.7107 100.341 28.2577 101.221 28.0154C102.541 27.7074 103.447 28.0902 104.125 29.2474C104.651 30.1796 104.965 31.2162 105.045 32.2835C105.176 34.0865 105.146 35.8976 104.957 37.6954C104.957 37.7966 104.917 37.8978 104.891 38.0298H103.527C103.615 37.4974 103.72 36.987 103.777 36.4767C104.02 34.796 103.848 33.0815 103.276 31.4827C103.047 30.8775 102.72 30.3141 102.308 29.8151C101.481 28.8427 100.266 28.8779 99.3685 29.7887C98.6415 30.5625 98.1979 31.5597 98.1101 32.6179C97.9063 34.3381 97.8739 36.0744 98.0133 37.8011C98.0177 37.8583 98.0133 37.9243 98.0133 38.0343Z" fill="#AB2066"/>
<path d="M46.7259 10.7149C46.8062 10.4277 46.7811 10.1213 46.6553 9.85099C46.5294 9.58068 46.311 9.36428 46.0395 9.2409C45.8882 9.15502 45.7675 9.02409 45.6942 8.86635C45.6208 8.70861 45.5985 8.53192 45.6303 8.3609C45.6303 8.0441 45.6831 7.7273 45.6567 7.4061C45.6159 6.95672 45.6696 6.50377 45.8144 6.07638C45.9591 5.64899 46.1917 5.25662 46.4971 4.9245C46.8975 4.4845 47.3463 4.0445 47.7511 3.6045C48.1101 3.23117 48.4328 2.82454 48.7147 2.3901C48.9114 2.09433 48.994 1.73719 48.947 1.38511C48.9001 1.03304 48.7268 0.709998 48.4595 0.476098C48.3759 0.379298 48.3847 0.203298 48.3495 0.0668981C48.5123 0.0668981 48.7323 -0.0475017 48.8291 0.0228983C49.0669 0.201769 49.2685 0.42426 49.4231 0.678498C50.1315 1.9193 50.0435 3.2173 49.6431 4.5285C49.4451 5.1841 49.2031 5.8485 49.0447 6.4953C48.9303 7.11009 49.0103 7.74524 49.2735 8.3125C49.3923 8.1761 49.4847 8.0749 49.5639 7.9649C49.8954 7.50278 50.333 7.12693 50.8398 6.86892C51.3467 6.6109 51.908 6.47825 52.4767 6.4821C53.2951 6.4821 54.1179 6.4821 54.9319 6.3985C55.3183 6.35819 55.6925 6.23994 56.0319 6.0509C56.2606 5.93546 56.4496 5.75452 56.575 5.53118C56.7004 5.30784 56.7564 5.05221 56.7359 4.7969C56.7359 4.6165 56.7095 4.3569 56.9647 4.4009C57.0508 4.43548 57.128 4.48905 57.1904 4.55762C57.2529 4.62619 57.2991 4.70799 57.3255 4.7969C57.3657 5.01343 57.3552 5.23632 57.2947 5.4481C57.0902 6.37396 56.5513 7.1918 55.7811 7.7449C55.3241 8.08982 54.8314 8.38483 54.3115 8.6249C53.3347 9.0649 52.4195 9.5533 51.9003 10.5873C51.7683 10.4817 51.6759 10.3981 51.5747 10.3277C51.3546 10.16 51.078 10.0841 50.8031 10.1161C50.5282 10.1482 50.2764 10.2855 50.1007 10.4993C50.0153 10.597 49.936 10.6999 49.8631 10.8073C49.5023 11.3221 49.2427 11.3925 48.6267 11.1241C48.8412 11.0972 49.0433 11.0083 49.2081 10.8685C49.373 10.7286 49.4936 10.5438 49.5551 10.3365C49.5927 10.1329 49.6472 9.93271 49.7179 9.7381C49.8018 9.55984 49.9326 9.40775 50.0963 9.2981C50.3121 9.20672 50.5382 9.14172 50.7695 9.1045C50.5952 8.95572 50.3894 8.84834 50.1677 8.79043C49.9459 8.73251 49.7139 8.72556 49.4891 8.7701C49.2754 8.83367 49.0849 8.95833 48.941 9.12875C48.7972 9.29917 48.7063 9.50791 48.6795 9.7293C48.5079 10.4729 48.4375 10.5433 47.7687 10.6093C48.3715 9.9581 48.2395 9.2629 47.9403 8.5765C47.5839 7.7581 47.5003 6.9749 48.1339 6.2445C48.1735 6.1961 48.1823 6.0509 48.1339 6.0201C48.1 5.99736 48.0611 5.98309 48.0205 5.9785C47.98 5.97391 47.9389 5.97912 47.9007 5.9937C47.0515 6.4073 46.2639 7.2785 46.6995 8.4665C46.8359 8.8449 47.0163 9.2057 47.1395 9.5885C47.2057 9.79551 47.201 10.0187 47.1261 10.2227C47.0512 10.4267 46.9103 10.5999 46.7259 10.7149V10.7149Z" fill="#AB2066"/>
<path d="M48.8073 13.7553C48.8536 13.8347 48.8947 13.917 48.9305 14.0017C48.9748 14.1874 49.0705 14.3569 49.2067 14.4908C49.3429 14.6246 49.514 14.7174 49.7005 14.7585C50.3869 14.8685 50.8929 15.1237 50.8533 15.9729C51.6321 15.0929 51.2933 14.1205 50.2153 13.8741C49.5817 13.7289 49.4409 13.6013 49.3969 13.1129C49.3969 13.1129 49.3969 13.0645 49.4277 13.0073C50.0305 13.5705 50.7037 13.4473 51.3593 13.1701C52.1997 12.7961 53.0005 12.6773 53.7573 13.3505C53.7874 13.3653 53.8205 13.3729 53.8541 13.3729C53.8876 13.3729 53.9207 13.3653 53.9509 13.3505C53.9943 13.281 54.0115 13.1983 53.9993 13.1173C53.822 12.6315 53.462 12.234 52.996 12.0097C52.53 11.7853 51.9948 11.7517 51.5045 11.9161C51.1525 12.0437 50.8181 12.2285 50.4617 12.3561C50.259 12.4393 50.0326 12.4439 49.8268 12.369C49.6209 12.2942 49.4504 12.1452 49.3485 11.9513C49.6323 12.0264 49.9336 11.9965 50.1971 11.8671C50.4607 11.7378 50.6686 11.5177 50.7829 11.2473C50.8538 11.1008 50.9713 10.982 51.1171 10.9095C51.2628 10.8371 51.4285 10.815 51.5881 10.8469C51.9086 10.8755 52.2311 10.8755 52.5517 10.8469C52.9807 10.8061 53.4135 10.8524 53.8241 10.9833C54.2347 11.1141 54.6146 11.3266 54.9409 11.6081C55.5349 12.1317 56.0849 12.7037 56.6569 13.2581C57.0585 13.7052 57.5812 14.0261 58.1617 14.1821C58.3906 14.2351 58.6292 14.2294 58.8554 14.1656C59.0815 14.1018 59.2879 13.9818 59.4553 13.8169C59.5697 13.7069 59.8469 13.6101 59.9305 13.6717C60.1417 13.8301 60.0493 14.0721 59.8865 14.2481C59.3968 14.7373 58.7567 15.0473 58.0693 15.1281C56.98 15.2825 55.8695 15.1142 54.8749 14.6441C54.0802 14.2434 53.1767 14.1121 52.3009 14.2701C52.1117 14.3141 51.9313 14.3757 51.6805 14.4505C51.8433 14.5825 51.9489 14.6749 52.0589 14.7585C52.5206 15.1017 52.8944 15.5493 53.1499 16.0648C53.4053 16.5802 53.535 17.1489 53.5285 17.7241C53.5285 18.6041 53.5681 19.4841 53.6077 20.3333C53.6268 20.5549 53.6864 20.7712 53.7837 20.9713C53.8915 21.2623 54.0889 21.5116 54.3475 21.6832C54.6061 21.8548 54.9124 21.9398 55.2225 21.9261C55.3501 21.9261 55.4821 22.0713 55.6097 22.1505C55.4953 22.2737 55.3985 22.4761 55.2665 22.5025C55.0104 22.5421 54.7492 22.5332 54.4965 22.4761C53.6599 22.3052 52.914 21.8361 52.3977 21.1561C51.9824 20.6073 51.6241 20.0176 51.3285 19.3961C50.8885 18.4721 50.4485 17.6097 49.4673 17.0905C49.5597 16.9673 49.6345 16.8705 49.7049 16.7649C49.8708 16.5439 49.9443 16.2669 49.9099 15.9927C49.8754 15.7184 49.7356 15.4684 49.5201 15.2953C49.4548 15.2297 49.3808 15.1734 49.3001 15.1281C49.19 15.0808 49.0908 15.0115 49.0085 14.9246C48.9262 14.8376 48.8625 14.7347 48.8213 14.6223C48.7801 14.5098 48.7623 14.3902 48.7689 14.2706C48.7756 14.151 48.8066 14.0341 48.8601 13.9269C48.8601 13.8741 48.8601 13.8037 48.8601 13.7421L48.8073 13.7553Z" fill="#AB2066"/>
<path d="M43.1443 10.7325C42.9551 10.5785 42.7923 10.4509 42.6383 10.3189C42.246 9.99874 41.9288 9.59638 41.7091 9.14021C41.4894 8.68403 41.3725 8.18518 41.3667 7.67887C41.3359 6.79887 41.3667 5.91887 41.2743 5.03887C41.2204 4.62948 41.0793 4.23639 40.8607 3.88607C40.7428 3.68087 40.5688 3.51353 40.3592 3.40365C40.1496 3.29377 39.913 3.24591 39.6771 3.26567C39.5407 3.26567 39.3955 3.12047 39.2371 3.04567C39.3603 2.91367 39.4747 2.68487 39.6023 2.67607C39.9255 2.65474 40.2499 2.68897 40.5615 2.77727C41.5054 3.06744 42.31 3.69363 42.8231 4.53727C43.0738 4.91696 43.2945 5.31564 43.4831 5.72967C44.0947 7.08487 44.2091 7.24767 45.3311 8.13207C45.228 8.25977 45.1325 8.39347 45.0451 8.53247C44.7107 9.10887 44.8867 9.65007 45.5555 10.1209C46.0747 10.4861 46.1495 10.7325 45.9031 11.3749C45.8727 11.1218 45.7574 10.8866 45.5759 10.7075C45.3945 10.5285 45.1578 10.4163 44.9043 10.3893C44.7815 10.3904 44.6597 10.3671 44.546 10.3207C44.4323 10.2742 44.329 10.2055 44.2421 10.1187C44.1553 10.0318 44.0866 9.92853 44.0401 9.81483C43.9937 9.70112 43.9703 9.5793 43.9715 9.45647C43.9595 9.40419 43.9403 9.35384 43.9143 9.30687C43.7491 9.45417 43.6295 9.64579 43.5699 9.859C43.5102 10.0722 43.513 10.298 43.5778 10.5097C43.6427 10.7214 43.7669 10.91 43.9357 11.0532C44.1045 11.1964 44.3109 11.2882 44.5303 11.3177C45.2871 11.5069 45.3487 11.5641 45.4103 12.2329C44.6667 11.5773 43.9143 11.8281 43.1619 12.1493C42.8306 12.3225 42.4546 12.3917 42.0832 12.3478C41.7119 12.3038 41.3625 12.1487 41.0807 11.9029C41.0235 11.8501 40.9047 11.8677 40.8167 11.8501C40.799 11.9431 40.799 12.0386 40.8167 12.1317C40.9111 12.3894 41.0588 12.6242 41.2501 12.8209C41.4415 13.0176 41.6723 13.1717 41.9273 13.273C42.1823 13.3744 42.4559 13.4207 42.73 13.409C43.0042 13.3974 43.2728 13.3279 43.5183 13.2053C43.8221 13.0614 44.137 12.9422 44.4599 12.8489C44.6504 12.8013 44.8513 12.8187 45.0307 12.8985C45.21 12.9782 45.3576 13.1156 45.4499 13.2889C45.2039 13.2178 44.9413 13.2297 44.7028 13.3228C44.4642 13.4158 44.2629 13.5848 44.1299 13.8037C43.8791 14.1733 43.6591 14.5869 43.0915 14.3889C42.8759 14.6573 42.6515 14.3229 42.4007 14.3889C42.1334 14.4416 41.8584 14.4416 41.5911 14.3889C40.9394 14.305 40.331 14.017 39.8531 13.5661C39.3515 13.1261 38.8939 12.6113 38.3923 12.1625C38.0115 11.8111 37.6024 11.4918 37.1691 11.2077C36.8803 11.0371 36.5416 10.9711 36.2099 11.0208C35.8782 11.0705 35.5737 11.2328 35.3475 11.4805C35.2771 11.5685 35.0659 11.5465 34.9075 11.5773C34.9075 11.4233 34.8107 11.2121 34.8811 11.1373C35.0683 10.891 35.3014 10.6833 35.5675 10.5257C36.7907 9.83927 38.0623 9.93167 39.3427 10.3409C39.7827 10.4729 40.1655 10.6621 40.5835 10.8029C40.9935 10.9627 41.4312 11.0388 41.871 11.0267C42.3109 11.0146 42.7438 10.9146 43.1443 10.7325V10.7325Z" fill="#AB2066"/>
<path d="M71.3531 38.0391C70.9483 38.0391 70.4731 38.0391 69.9671 38.0391C69.8791 38.0391 69.7471 37.8147 69.7383 37.6871C69.7075 36.9611 69.7075 36.2307 69.6987 35.4871C69.7087 35.3267 69.6785 35.1664 69.6107 35.0207C69.5359 35.1219 69.4567 35.2231 69.3819 35.3287C68.5236 36.683 67.1945 37.672 65.6507 38.1051C63.5387 38.6375 61.7963 37.3043 61.6511 35.1307C61.4443 32.0771 63.8511 28.8651 66.4691 28.1655C66.7922 28.0683 67.1263 28.0121 67.4635 27.9983C68.7351 27.9983 70.0067 27.9983 71.2739 27.9983C71.2123 29.6571 71.0935 31.3291 71.1067 33.0011C71.1199 34.6731 71.2651 36.3055 71.3531 38.0391ZM68.1587 28.8651V28.9047C67.6537 28.8606 67.1457 28.8606 66.6407 28.9047C64.5815 29.2787 62.9887 31.4259 63.0987 33.5995C63.099 34.6646 63.5178 35.687 64.2647 36.4463C64.4762 36.6742 64.733 36.8553 65.0187 36.9779C65.3044 37.1005 65.6126 37.1619 65.9235 37.1582C66.2344 37.1545 66.541 37.0857 66.8237 36.9562C67.1063 36.8268 67.3588 36.6396 67.5647 36.4067C67.8371 36.1287 68.0682 35.8131 68.2511 35.4695C69.2149 33.5021 69.7075 31.3374 69.6899 29.1467C69.6899 28.9267 69.6151 28.8431 69.3951 28.8475C68.9903 28.8739 68.5723 28.8651 68.1587 28.8651V28.8651Z" fill="#AB2066"/>
<path d="M33.0242 31.8306C33.0242 34.7522 31.141 37.3262 28.4834 38.0302C27.5505 38.2822 26.5701 38.3018 25.6278 38.0874C24.8989 37.95 24.2321 37.5859 23.7224 37.047C23.2128 36.5081 22.8864 35.822 22.7898 35.0866C22.6208 33.8374 22.8088 32.5658 23.332 31.4189C23.8552 30.272 24.6923 29.2966 25.7466 28.6054C27.0456 27.827 28.5937 27.5766 30.0718 27.9058C31.9858 28.2974 33.0242 29.7186 33.0242 31.8306ZM31.3698 33.0098C31.3857 31.8247 30.9803 30.6724 30.2258 29.7582C29.9199 29.375 29.5262 29.071 29.0781 28.872C28.6299 28.6731 28.1404 28.585 27.6509 28.6152C27.1615 28.6454 26.6865 28.793 26.2662 29.0456C25.8459 29.2982 25.4926 29.6483 25.2362 30.0662C24.7641 30.7579 24.4847 31.5628 24.4266 32.3982C24.3122 33.925 24.607 35.3418 25.7466 36.4506C26.0548 36.7617 26.4266 37.0026 26.8364 37.157C27.2462 37.3113 27.6845 37.3754 28.1214 37.3449C28.5583 37.3145 28.9834 37.1901 29.3679 36.9803C29.7523 36.7705 30.0869 36.4803 30.349 36.1294C31.0286 35.233 31.388 34.1346 31.3698 33.0098V33.0098Z" fill="#AB2066"/>
<path d="M21.2633 31.8348C21.2929 33.2199 20.8667 34.5763 20.0503 35.6956C19.2338 36.8149 18.0724 37.635 16.7445 38.03C15.8621 38.2723 14.9348 38.3024 14.0385 38.118C12.2345 37.744 11.1697 36.6088 11.0333 34.73C10.9046 33.5769 11.0945 32.4105 11.5825 31.3577C12.0704 30.305 12.8377 29.4062 13.8009 28.7592C14.4973 28.2741 15.2943 27.9524 16.1323 27.8183C16.9704 27.6843 17.8279 27.7412 18.6409 27.9848C19.3924 28.1788 20.0588 28.6158 20.5362 29.2277C21.0137 29.8397 21.2755 30.5923 21.2809 31.3684C21.2721 31.5224 21.2633 31.6808 21.2633 31.8348ZM19.6177 32.948C19.6347 32.307 19.5192 31.6694 19.2785 31.075C19.0377 30.4807 18.6769 29.9425 18.2185 29.494C17.9222 29.1958 17.5668 28.963 17.175 28.8105C16.7833 28.6581 16.364 28.5894 15.9441 28.6089C15.5241 28.6283 15.113 28.7356 14.737 28.9236C14.3611 29.1117 14.0287 29.3765 13.7613 29.7008C12.3093 31.386 12.2785 34.4264 13.6997 36.1424C13.9954 36.5336 14.3802 36.8486 14.8222 37.0611C15.2641 37.2736 15.7504 37.3775 16.2406 37.3641C16.7308 37.3508 17.2108 37.2206 17.6405 36.9844C18.0702 36.7481 18.4374 36.4127 18.7113 36.006C19.3268 35.107 19.6439 34.0372 19.6177 32.948Z" fill="#AB2066"/>
<path d="M79.6657 33.5551C80.3188 34.821 81.1936 35.9595 82.2485 36.9167C82.6384 37.2198 83.064 37.474 83.5157 37.6735C83.703 37.768 83.9114 37.8128 84.121 37.8036C84.3306 37.7944 84.5343 37.7314 84.7125 37.6207C84.8181 37.5591 84.9897 37.6207 85.1305 37.6207C85.0777 37.7747 85.0513 38.0607 84.9633 38.0607C84.5367 38.1979 84.0915 38.2691 83.6433 38.2719C82.77 38.2062 81.9293 37.9118 81.2057 37.4183C79.7959 36.4589 78.6138 35.2017 77.7429 33.7355C78.0734 33.5967 78.3965 33.441 78.7109 33.2691C79.2483 32.9568 79.763 32.6068 80.2509 32.2219C80.5676 31.9513 80.8317 31.6247 81.0297 31.2583C81.7777 29.9119 81.1265 28.6183 79.5997 28.5039C78.6934 28.5036 77.788 28.5624 76.8893 28.6799C76.6473 28.6799 76.6077 28.8427 76.6077 29.0495C76.6077 31.9212 76.6077 34.7959 76.6077 37.6735V38.0387H74.7861C75.3581 34.6947 75.1997 31.3419 74.9401 27.9495C75.0713 27.93 75.2036 27.9182 75.3361 27.9143C76.9729 27.9143 78.6141 27.8571 80.2509 27.8791C80.7678 27.8872 81.2784 27.9932 81.7557 28.1915C82.6357 28.5611 82.9305 29.3267 82.6665 30.2551C82.4657 30.92 82.0814 31.5148 81.5577 31.9711C80.9857 32.5079 80.3301 33.0007 79.6657 33.5551Z" fill="#AB2066"/>
<path d="M59.7771 27.888C59.6205 28.7804 59.2495 29.6213 58.6962 30.3387C58.1429 31.056 57.4236 31.6283 56.6003 32.0064C57.2207 32.0724 57.7311 32.0944 58.2327 32.1868C58.7544 32.2451 59.2412 32.4776 59.6143 32.8468C58.9851 32.8468 58.3779 32.8468 57.7751 32.8468C56.177 32.8723 54.5847 33.0461 53.0187 33.366C52.6051 33.4496 52.5391 33.6432 52.5787 34.004C52.6768 34.8511 53.0524 35.6418 53.647 36.2531C54.2415 36.8643 55.0216 37.2617 55.8655 37.3832C56.6395 37.4989 57.4298 37.4357 58.1755 37.1984C58.4109 37.1447 58.6333 37.0446 58.8297 36.9041C59.0261 36.7636 59.1926 36.5855 59.3195 36.38C59.3679 36.2876 59.5395 36.27 59.6583 36.2172C59.6935 36.3448 59.7859 36.4944 59.7463 36.5912C59.6748 36.762 59.5631 36.913 59.4207 37.0312C58.5968 37.6541 57.6187 38.0404 56.5915 38.1488C55.5663 38.3073 54.5201 38.264 53.5115 38.0212C52.8208 37.8875 52.1923 37.5328 51.7208 37.0105C51.2493 36.4882 50.9605 35.8268 50.8979 35.126C50.7269 33.7285 51.0036 32.3127 51.6883 31.0824C52.373 29.8521 53.4304 28.8708 54.7083 28.2796C55.266 28.0349 55.8611 27.8861 56.4683 27.8396C57.4539 27.7736 58.4439 27.8396 59.4339 27.8396C59.5494 27.8473 59.6641 27.8634 59.7771 27.888V27.888ZM52.6491 32.442C55.4431 32.4948 58.3691 30.5104 58.2899 28.6668C57.4371 28.6058 56.5808 28.6132 55.7291 28.6888C54.0835 28.966 52.7459 30.6644 52.6491 32.442Z" fill="#AB2066"/>
<path d="M8.84698 27.7341C8.84698 28.3457 7.89658 29.1993 7.08698 29.2961C7.08698 29.2477 7.05178 29.1949 7.06498 29.1509C7.24538 28.5349 7.26298 28.5393 6.54138 28.5129C4.02898 28.4205 2.01378 29.9473 1.52978 32.3057C1.31369 33.3052 1.42955 34.348 1.85978 35.2757C2.0125 35.6549 2.24242 35.9981 2.53492 36.2837C2.82743 36.5693 3.17613 36.7909 3.55888 36.9345C3.94162 37.0781 4.35005 37.1405 4.75821 37.1178C5.16637 37.095 5.56534 36.9877 5.92978 36.8025C6.82492 36.3459 7.60665 35.6949 8.21778 34.8973C8.3673 34.7479 8.5276 34.6096 8.69738 34.4837C8.8773 34.6581 9.02611 34.862 9.13738 35.0865C9.36506 35.9858 9.3453 36.9299 9.08018 37.8189C8.75588 39.2497 8.00391 40.548 6.92418 41.5413C6.41295 42.0281 5.78598 42.3764 5.10258 42.5533C4.99258 42.5797 4.85178 42.6325 4.76378 42.5885C4.61207 42.4985 4.47173 42.3907 4.34578 42.2673C4.48658 42.2013 4.63618 42.0737 4.78578 42.0825C5.01238 42.1117 5.24263 42.0915 5.46065 42.0231C5.67867 41.9547 5.87925 41.8399 6.04858 41.6865C6.70701 41.1302 7.21754 40.4196 7.53461 39.6181C7.85169 38.8166 7.96546 37.949 7.86578 37.0929C7.82178 36.6265 7.68978 36.5693 7.29818 36.8289C6.3396 37.5261 5.2301 37.9874 4.05978 38.1753C1.43298 38.5185 -0.225822 36.8861 0.0249777 34.2461C0.122837 33.0995 0.4883 31.9919 1.092 31.0122C1.6957 30.0325 2.52079 29.2081 3.50098 28.6053C4.56578 27.8925 5.78018 27.7781 7.02098 27.7517C7.60618 27.7253 8.22658 27.7341 8.84698 27.7341Z" fill="#AB2066"/>
<path d="M86.1631 28.1476C86.1235 27.7076 86.2819 27.5976 86.6999 27.6064C88.4859 27.7057 90.2672 27.3403 91.8699 26.546C92.3363 26.2952 92.7499 25.9872 93.2207 25.7056C93.1503 26.216 92.8291 26.5856 91.5355 27.5932H93.3791C93.3791 28.1168 93.3791 28.1652 92.9083 28.152C92.18 28.1075 91.4509 28.2263 90.7743 28.4996C89.4543 29.0804 88.7635 30.1716 88.4599 31.5356C88.1203 32.8201 88.2774 34.1854 88.8999 35.3592C89.6699 36.7628 90.9943 37.414 92.4199 37.0928C92.7038 37.048 92.9716 36.9316 93.1979 36.7545C93.4243 36.5774 93.6017 36.3455 93.7135 36.0808C93.7575 35.984 93.9115 35.9356 94.0171 35.8652C94.0743 35.9884 94.1799 36.1116 94.1711 36.226C94.1518 36.3795 94.084 36.5229 93.9775 36.6352C92.7059 37.8936 91.1967 38.5008 89.4103 38.0916C88.2531 37.832 87.6195 36.9872 87.3203 35.8916C86.9429 34.3356 86.9686 32.7092 87.3951 31.166C87.5227 30.6248 87.6855 30.088 87.8351 29.5512C88.1079 28.57 87.8087 28.1608 86.7791 28.13C86.5723 28.1432 86.3655 28.1476 86.1631 28.1476Z" fill="#AB2066"/>
<path d="M48.8159 13.7464C48.7719 13.7464 48.7059 13.7464 48.6883 13.7904C48.5389 13.9862 48.3434 14.142 48.1193 14.2441C47.8951 14.3462 47.6493 14.3914 47.4035 14.3756C47.0212 14.357 46.652 14.2304 46.3387 14.0104C46.1088 13.8436 45.9227 13.6236 45.7962 13.3692C45.6698 13.1148 45.6068 12.8336 45.6127 12.5496C45.6049 12.2286 45.7144 11.9157 45.9207 11.6696C46.1516 11.2982 46.5157 11.0289 46.9385 10.9169C47.3613 10.8048 47.8109 10.8585 48.1955 11.0668C48.4051 11.1743 48.591 11.3228 48.7421 11.5034C48.8933 11.6841 49.0066 11.8932 49.0755 12.1184C49.2911 12.7476 49.0051 13.236 48.7939 13.7684L48.8159 13.7464Z" fill="#AB2066"/>
</svg>
