<svg width="200" height="200" viewBox="0 0 200 200" fill="none" xmlns="http://www.w3.org/2000/svg">
<path d="M101.51 47.3625C117.526 47.3625 128.329 54.2809 134.489 60.0618L158.56 36.5593C143.776 22.8177 124.538 14.3838 101.51 14.3838C68.1521 14.3838 39.3428 33.5266 25.3174 61.3879L52.8941 82.8057C59.8125 62.2408 78.9553 47.3625 101.51 47.3625Z" fill="#EA4235"/>
<path d="M183.381 101.57C183.381 94.5571 182.813 89.4397 181.58 84.1328H101.502V115.785H148.507C147.559 123.65 142.442 135.497 131.07 143.457L157.984 164.306C174.095 149.427 183.381 127.536 183.381 101.57Z" fill="#4286F5"/>
<path d="M53.0044 116.542C51.2035 111.235 50.1612 105.548 50.1612 99.6732C50.1612 93.7972 51.2035 88.1114 52.9093 82.8045L25.3318 61.3867C19.5517 72.9485 16.2344 85.9316 16.2344 99.6732C16.2344 113.414 19.5517 126.398 25.3318 137.959L53.0044 116.542Z" fill="#FABC05"/>
<path d="M101.487 184.999C124.516 184.999 143.848 177.418 157.968 164.34L131.054 143.491C123.852 148.514 114.186 152.02 101.487 152.02C78.9328 152.02 59.79 137.141 52.9667 116.577L25.3892 137.994C39.4145 165.856 68.1288 184.999 101.487 184.999Z" fill="#34A853"/>
</svg>
