<svg width="53" height="54" viewBox="0 0 53 54" fill="none" xmlns="http://www.w3.org/2000/svg">
<path fill-rule="evenodd" clip-rule="evenodd" d="M37.9662 38.9605C33.9279 38.9605 30.6544 35.721 30.6544 31.7253C30.6544 27.729 33.9279 24.4895 37.9662 24.4895C42.0045 24.4895 45.278 27.729 45.278 31.7253C45.278 35.721 42.0045 38.9605 37.9662 38.9605ZM40.1551 17.7951V11.3584C41.8529 10.5648 43.0421 8.8652 43.0421 6.89273V6.74415C43.0421 4.02185 40.7914 1.79457 38.0406 1.79457H37.8911C35.1402 1.79457 32.8896 4.02185 32.8896 6.74415V6.89273C32.8896 8.8652 34.0788 10.5655 35.7766 11.3591V17.7951C33.2488 18.1819 30.9392 19.2136 29.0344 20.732L11.1758 6.98437C11.2937 6.53656 11.3765 6.07555 11.3772 5.59094C11.38 2.5083 8.85853 0.00539005 5.74214 0.00122432C2.62714 -0.00224712 0.0972615 2.49372 0.0937537 5.57705C0.0902458 8.66039 2.61171 11.1633 5.7281 11.1668C6.74328 11.1682 7.68339 10.8828 8.50704 10.419L26.0738 23.9431C24.5801 26.1745 23.7046 28.8475 23.7046 31.7253C23.7046 34.7378 24.6664 37.5247 26.2913 39.8166L20.9495 45.1036C20.5271 44.9779 20.0893 44.8904 19.6249 44.8904C17.0649 44.8904 14.9889 46.9441 14.9889 49.4776C14.9889 52.0117 17.0649 54.0654 19.6249 54.0654C22.1857 54.0654 24.2609 52.0117 24.2609 49.4776C24.2609 49.0194 24.1725 48.5854 24.0455 48.1675L29.3298 42.9381C31.7285 44.7495 34.7158 45.8381 37.9662 45.8381C45.8428 45.8381 52.2271 39.5194 52.2271 31.7253C52.2271 24.6693 46.9891 18.84 40.1551 17.7951Z" fill="#FF7A59"/>
</svg>
