<svg width="54" height="54" viewBox="0 0 54 54" fill="none" xmlns="http://www.w3.org/2000/svg">
<path fill-rule="evenodd" clip-rule="evenodd" d="M26.1483 1.249C33.6907 5.20694 39.929 14.3819 40.9901 23.0769L41.2536 25.2367C41.3395 25.9409 42.2955 26.0897 42.5914 25.4449L42.8715 24.8345C44.661 20.9332 45.1351 10.6406 43.6868 7.1217C42.1749 3.44714 36.2496 0.677228 29.0668 0.287676L26.4522 0.145721C25.8241 0.111621 25.5914 0.956723 26.1483 1.249ZM13.1187 3.62936C9.27682 5.85692 5.09868 10.1434 3.27172 13.7305L3.2178 13.8364C2.89873 14.4633 3.59549 15.1186 4.20166 14.7618L5.17498 14.1889C12.646 9.79046 22.9197 8.95827 30.0594 12.1723C31.9648 13.0303 33.666 13.5877 33.8398 13.4119C34.6028 12.6364 27.3465 5.90641 23.9646 4.25207C18.0881 1.37885 17.0969 1.32218 13.1187 3.62936ZM48.0048 16.6553C47.5201 25.6115 43.6175 32.9764 36.5428 38.283L35.8031 38.838C35.2243 39.2723 35.5993 40.1924 36.3168 40.0983L37.1341 39.9912C41.922 39.3634 47.2863 36.7234 50.9346 33.1995L53.267 30.9462C53.7301 30.4988 53.9636 29.8645 53.9012 29.2236L53.562 25.7427C53.0053 20.0336 52.113 16.9416 50.007 13.427L49.5124 12.6012C49.1558 12.0058 48.2438 12.2317 48.2064 12.9248L48.0048 16.6553ZM10.622 15.4035C2.4635 18.8119 0 21.4885 0 26.9465C0 32.2539 0.596978 34.8445 2.81887 39.1827L3.51891 40.5492C3.84267 41.1812 4.79243 40.9901 4.84654 40.282L5.10292 36.9271C5.81294 27.6367 10.4623 19.3341 17.3406 15.0749L17.4269 15.0214C18.0244 14.6515 17.7593 13.73 17.0566 13.7341C15.6966 13.7419 12.8015 14.4938 10.622 15.4035ZM9.68658 30.992C8.41915 35.3252 8.24889 42.2517 9.31356 46.1444C9.94516 48.4551 10.6361 49.1001 14.6016 51.0823C18.0739 52.8184 20.3877 53.439 24.2917 53.6815L26.5699 53.823C27.3035 53.8685 27.6068 52.9004 26.9783 52.5192L25.8876 51.8578C18.589 47.4314 13.527 40.1304 12.03 31.8716C11.6146 29.5794 11.1667 27.5915 11.0346 27.4538C10.9024 27.3167 10.2956 28.9087 9.68658 30.992ZM48.4951 39.654C41.3476 44.2124 30.0594 45.0087 22.488 41.4891C19.104 39.9158 18.5657 39.8183 19.1252 40.8793C21.1168 44.6579 28.7065 50.0679 34.1493 51.5881C37.351 52.482 40.5528 50.9955 45.1824 46.4665C48.1016 43.6098 51.41 38.9925 50.8717 38.5255C50.7304 38.4028 49.6608 38.9108 48.4951 39.654Z" fill="#3088F4"/>
</svg>
