<svg width="355" height="44" viewBox="0 0 355 44" fill="none" xmlns="http://www.w3.org/2000/svg">
<path d="M206.004 27.634C204.167 29.454 201.931 30.364 199.296 30.364C196.661 30.364 194.425 29.454 192.588 27.634C190.768 25.7967 189.858 23.552 189.858 20.9C189.858 18.248 190.768 16.012 192.588 14.192C194.425 12.3547 196.661 11.436 199.296 11.436C201.931 11.436 204.167 12.3547 206.004 14.192C207.841 16.012 208.76 18.248 208.76 20.9C208.76 23.552 207.841 25.7967 206.004 27.634ZM195.11 25.19C196.237 26.2993 197.632 26.854 199.296 26.854C200.96 26.854 202.355 26.2993 203.482 25.19C204.609 24.0633 205.172 22.6333 205.172 20.9C205.172 19.1667 204.609 17.7367 203.482 16.61C202.355 15.4833 200.96 14.92 199.296 14.92C197.632 14.92 196.237 15.4833 195.11 16.61C193.983 17.7367 193.42 19.1667 193.42 20.9C193.42 22.6333 193.983 24.0633 195.11 25.19ZM218.201 30.364C216.173 30.364 214.509 29.792 213.209 28.648C211.909 27.504 211.259 25.97 211.259 24.046V11.8H214.821V23.76C214.821 24.7133 215.09 25.4673 215.627 26.022C216.182 26.5767 217.04 26.854 218.201 26.854C219.362 26.854 220.212 26.5767 220.749 26.022C221.304 25.4673 221.581 24.7133 221.581 23.76V11.8H225.169V24.046C225.169 25.97 224.519 27.504 223.219 28.648C221.919 29.792 220.246 30.364 218.201 30.364ZM238.645 30L234.979 23.682H232.249V30H228.661V11.8H235.941C237.623 11.8 239.053 12.3893 240.231 13.568C241.41 14.7467 241.999 16.168 241.999 17.832C241.999 18.9587 241.679 20.0073 241.037 20.978C240.396 21.9313 239.547 22.6507 238.489 23.136L242.519 30H238.645ZM232.249 15.154V20.536H235.941C236.617 20.536 237.198 20.276 237.683 19.756C238.169 19.2187 238.411 18.5773 238.411 17.832C238.411 17.0867 238.169 16.454 237.683 15.934C237.198 15.414 236.617 15.154 235.941 15.154H232.249ZM269.462 11.8V30H265.9V18.196L260.778 26.646H260.362L255.24 18.222V30H251.652V11.8H255.344L260.57 20.406L265.77 11.8H269.462ZM273.113 11.8H276.701V30H273.113V11.8ZM286.265 30.364C284.462 30.364 282.945 29.9653 281.715 29.168C280.484 28.3533 279.617 27.2527 279.115 25.866L282.183 24.072C282.893 25.9267 284.289 26.854 286.369 26.854C287.374 26.854 288.111 26.672 288.579 26.308C289.047 25.944 289.281 25.4847 289.281 24.93C289.281 24.2887 288.995 23.7947 288.423 23.448C287.851 23.084 286.828 22.694 285.355 22.278C284.54 22.0353 283.847 21.7927 283.275 21.55C282.72 21.3073 282.157 20.9867 281.585 20.588C281.03 20.172 280.605 19.652 280.311 19.028C280.016 18.404 279.869 17.676 279.869 16.844C279.869 15.1973 280.449 13.8887 281.611 12.918C282.789 11.93 284.202 11.436 285.849 11.436C287.322 11.436 288.613 11.8 289.723 12.528C290.849 13.2387 291.725 14.2353 292.349 15.518L289.333 17.26C288.605 15.7 287.443 14.92 285.849 14.92C285.103 14.92 284.514 15.0933 284.081 15.44C283.665 15.7693 283.457 16.2027 283.457 16.74C283.457 17.312 283.691 17.78 284.159 18.144C284.644 18.4907 285.563 18.872 286.915 19.288C287.469 19.4613 287.885 19.6 288.163 19.704C288.457 19.7907 288.847 19.938 289.333 20.146C289.835 20.3367 290.217 20.5187 290.477 20.692C290.754 20.8653 291.066 21.0993 291.413 21.394C291.759 21.6887 292.019 21.992 292.193 22.304C292.383 22.616 292.539 22.9973 292.661 23.448C292.799 23.8813 292.869 24.358 292.869 24.878C292.869 26.5593 292.253 27.894 291.023 28.882C289.809 29.87 288.223 30.364 286.265 30.364ZM301.124 30.364C299.322 30.364 297.805 29.9653 296.574 29.168C295.344 28.3533 294.477 27.2527 293.974 25.866L297.042 24.072C297.753 25.9267 299.148 26.854 301.228 26.854C302.234 26.854 302.97 26.672 303.438 26.308C303.906 25.944 304.14 25.4847 304.14 24.93C304.14 24.2887 303.854 23.7947 303.282 23.448C302.71 23.084 301.688 22.694 300.214 22.278C299.4 22.0353 298.706 21.7927 298.134 21.55C297.58 21.3073 297.016 20.9867 296.444 20.588C295.89 20.172 295.465 19.652 295.17 19.028C294.876 18.404 294.728 17.676 294.728 16.844C294.728 15.1973 295.309 13.8887 296.47 12.918C297.649 11.93 299.062 11.436 300.708 11.436C302.182 11.436 303.473 11.8 304.582 12.528C305.709 13.2387 306.584 14.2353 307.208 15.518L304.192 17.26C303.464 15.7 302.303 14.92 300.708 14.92C299.963 14.92 299.374 15.0933 298.94 15.44C298.524 15.7693 298.316 16.2027 298.316 16.74C298.316 17.312 298.55 17.78 299.018 18.144C299.504 18.4907 300.422 18.872 301.774 19.288C302.329 19.4613 302.745 19.6 303.022 19.704C303.317 19.7907 303.707 19.938 304.192 20.146C304.695 20.3367 305.076 20.5187 305.336 20.692C305.614 20.8653 305.926 21.0993 306.272 21.394C306.619 21.6887 306.879 21.992 307.052 22.304C307.243 22.616 307.399 22.9973 307.52 23.448C307.659 23.8813 307.728 24.358 307.728 24.878C307.728 26.5593 307.113 27.894 305.882 28.882C304.669 29.87 303.083 30.364 301.124 30.364ZM310.202 11.8H313.79V30H310.202V11.8ZM332.733 27.634C330.895 29.454 328.659 30.364 326.025 30.364C323.39 30.364 321.154 29.454 319.317 27.634C317.497 25.7967 316.587 23.552 316.587 20.9C316.587 18.248 317.497 16.012 319.317 14.192C321.154 12.3547 323.39 11.436 326.025 11.436C328.659 11.436 330.895 12.3547 332.733 14.192C334.57 16.012 335.489 18.248 335.489 20.9C335.489 23.552 334.57 25.7967 332.733 27.634ZM321.839 25.19C322.965 26.2993 324.361 26.854 326.025 26.854C327.689 26.854 329.084 26.2993 330.211 25.19C331.337 24.0633 331.901 22.6333 331.901 20.9C331.901 19.1667 331.337 17.7367 330.211 16.61C329.084 15.4833 327.689 14.92 326.025 14.92C324.361 14.92 322.965 15.4833 321.839 16.61C320.712 17.7367 320.149 19.1667 320.149 20.9C320.149 22.6333 320.712 24.0633 321.839 25.19ZM348.8 11.8H352.388V30H349.658L341.858 18.872V30H338.27V11.8H341L348.8 22.902V11.8Z" fill="url(#paint0_linear_1277_2702)"/>
<path d="M0 22L126 22" stroke="url(#paint1_linear_1277_2702)" stroke-width="3"/>
<circle cx="148" cy="22" r="22" transform="rotate(-90 148 22)" fill="url(#paint2_linear_1277_2702)"/>
<defs>
<linearGradient id="paint0_linear_1277_2702" x1="208.606" y1="14.5" x2="335.925" y2="35.6188" gradientUnits="userSpaceOnUse">
<stop stop-color="#FC1076"/>
<stop offset="0.466624" stop-color="#FD72CA"/>
<stop offset="1"/>
</linearGradient>
<linearGradient id="paint1_linear_1277_2702" x1="-4.37114e-08" y1="21.5" x2="126" y2="21.5" gradientUnits="userSpaceOnUse">
<stop stop-color="#FD82D8" stop-opacity="0"/>
<stop offset="1" stop-color="#FD82D8"/>
</linearGradient>
<linearGradient id="paint2_linear_1277_2702" x1="168.625" y1="24.0625" x2="126" y2="19.25" gradientUnits="userSpaceOnUse">
<stop stop-color="#FD86DC"/>
<stop offset="1" stop-color="#FB056C"/>
</linearGradient>
</defs>
</svg>
