<svg width="335" height="44" viewBox="0 0 335 44" fill="none" xmlns="http://www.w3.org/2000/svg">
<path d="M206.004 27.634C204.167 29.454 201.931 30.364 199.296 30.364C196.661 30.364 194.425 29.454 192.588 27.634C190.768 25.7967 189.858 23.552 189.858 20.9C189.858 18.248 190.768 16.012 192.588 14.192C194.425 12.3547 196.661 11.436 199.296 11.436C201.931 11.436 204.167 12.3547 206.004 14.192C207.841 16.012 208.76 18.248 208.76 20.9C208.76 23.552 207.841 25.7967 206.004 27.634ZM195.11 25.19C196.237 26.2993 197.632 26.854 199.296 26.854C200.96 26.854 202.355 26.2993 203.482 25.19C204.609 24.0633 205.172 22.6333 205.172 20.9C205.172 19.1667 204.609 17.7367 203.482 16.61C202.355 15.4833 200.96 14.92 199.296 14.92C197.632 14.92 196.237 15.4833 195.11 16.61C193.983 17.7367 193.42 19.1667 193.42 20.9C193.42 22.6333 193.983 24.0633 195.11 25.19ZM218.201 30.364C216.173 30.364 214.509 29.792 213.209 28.648C211.909 27.504 211.259 25.97 211.259 24.046V11.8H214.821V23.76C214.821 24.7133 215.09 25.4673 215.627 26.022C216.182 26.5767 217.04 26.854 218.201 26.854C219.362 26.854 220.212 26.5767 220.749 26.022C221.304 25.4673 221.581 24.7133 221.581 23.76V11.8H225.169V24.046C225.169 25.97 224.519 27.504 223.219 28.648C221.919 29.792 220.246 30.364 218.201 30.364ZM238.645 30L234.979 23.682H232.249V30H228.661V11.8H235.941C237.623 11.8 239.053 12.3893 240.231 13.568C241.41 14.7467 241.999 16.168 241.999 17.832C241.999 18.9587 241.679 20.0073 241.037 20.978C240.396 21.9313 239.547 22.6507 238.489 23.136L242.519 30H238.645ZM232.249 15.154V20.536H235.941C236.617 20.536 237.198 20.276 237.683 19.756C238.169 19.2187 238.411 18.5773 238.411 17.832C238.411 17.0867 238.169 16.454 237.683 15.934C237.198 15.414 236.617 15.154 235.941 15.154H232.249ZM256.15 30L250.04 11.8H253.94L258.386 25.788L262.806 11.8H266.732L260.596 30H256.15ZM268.746 11.8H272.334V30H268.746V11.8ZM281.898 30.364C280.095 30.364 278.578 29.9653 277.348 29.168C276.117 28.3533 275.25 27.2527 274.748 25.866L277.816 24.072C278.526 25.9267 279.922 26.854 282.002 26.854C283.007 26.854 283.744 26.672 284.212 26.308C284.68 25.944 284.914 25.4847 284.914 24.93C284.914 24.2887 284.628 23.7947 284.056 23.448C283.484 23.084 282.461 22.694 280.988 22.278C280.173 22.0353 279.48 21.7927 278.908 21.55C278.353 21.3073 277.79 20.9867 277.218 20.588C276.663 20.172 276.238 19.652 275.944 19.028C275.649 18.404 275.502 17.676 275.502 16.844C275.502 15.1973 276.082 13.8887 277.244 12.918C278.422 11.93 279.835 11.436 281.482 11.436C282.955 11.436 284.246 11.8 285.356 12.528C286.482 13.2387 287.358 14.2353 287.982 15.518L284.966 17.26C284.238 15.7 283.076 14.92 281.482 14.92C280.736 14.92 280.147 15.0933 279.714 15.44C279.298 15.7693 279.09 16.2027 279.09 16.74C279.09 17.312 279.324 17.78 279.792 18.144C280.277 18.4907 281.196 18.872 282.548 19.288C283.102 19.4613 283.518 19.6 283.796 19.704C284.09 19.7907 284.48 19.938 284.966 20.146C285.468 20.3367 285.85 20.5187 286.11 20.692C286.387 20.8653 286.699 21.0993 287.046 21.394C287.392 21.6887 287.652 21.992 287.826 22.304C288.016 22.616 288.172 22.9973 288.294 23.448C288.432 23.8813 288.502 24.358 288.502 24.878C288.502 26.5593 287.886 27.894 286.656 28.882C285.442 29.87 283.856 30.364 281.898 30.364ZM290.975 11.8H294.563V30H290.975V11.8ZM313.506 27.634C311.669 29.454 309.433 30.364 306.798 30.364C304.163 30.364 301.927 29.454 300.09 27.634C298.27 25.7967 297.36 23.552 297.36 20.9C297.36 18.248 298.27 16.012 300.09 14.192C301.927 12.3547 304.163 11.436 306.798 11.436C309.433 11.436 311.669 12.3547 313.506 14.192C315.343 16.012 316.262 18.248 316.262 20.9C316.262 23.552 315.343 25.7967 313.506 27.634ZM302.612 25.19C303.739 26.2993 305.134 26.854 306.798 26.854C308.462 26.854 309.857 26.2993 310.984 25.19C312.111 24.0633 312.674 22.6333 312.674 20.9C312.674 19.1667 312.111 17.7367 310.984 16.61C309.857 15.4833 308.462 14.92 306.798 14.92C305.134 14.92 303.739 15.4833 302.612 16.61C301.485 17.7367 300.922 19.1667 300.922 20.9C300.922 22.6333 301.485 24.0633 302.612 25.19ZM329.574 11.8H333.162V30H330.432L322.632 18.872V30H319.044V11.8H321.774L329.574 22.902V11.8Z" fill="url(#paint0_linear_1277_2698)"/>
<path d="M0 22L126 22" stroke="url(#paint1_linear_1277_2698)" stroke-width="3"/>
<circle cx="148" cy="22" r="22" transform="rotate(-90 148 22)" fill="url(#paint2_linear_1277_2698)"/>
<defs>
<linearGradient id="paint0_linear_1277_2698" x1="206.244" y1="14.5" x2="318.906" y2="30.9362" gradientUnits="userSpaceOnUse">
<stop stop-color="#560EDE"/>
<stop offset="0.466624" stop-color="#414AE2"/>
<stop offset="1"/>
</linearGradient>
<linearGradient id="paint1_linear_1277_2698" x1="-4.37114e-08" y1="21.5" x2="126" y2="21.5" gradientUnits="userSpaceOnUse">
<stop stop-color="#0CE9EB" stop-opacity="0"/>
<stop offset="1" stop-color="#0CE9EB"/>
</linearGradient>
<linearGradient id="paint2_linear_1277_2698" x1="126" y1="27.5" x2="170" y2="22.3437" gradientUnits="userSpaceOnUse">
<stop stop-color="#5806DD"/>
<stop offset="1" stop-color="#05FBEC"/>
</linearGradient>
</defs>
</svg>
