<svg width="130" height="41" viewBox="0 0 130 41" fill="none" xmlns="http://www.w3.org/2000/svg">
<path d="M61.472 14.8405C61.3399 15.5247 61.7014 15.8862 62.1756 16.1739C62.2821 16.2311 62.3677 16.3207 62.4201 16.4296C62.4725 16.5386 62.489 16.6614 62.4672 16.7803C62.4448 17.039 62.4448 17.2991 62.4672 17.5578C62.556 18.3208 62.3425 19.0882 61.8724 19.6958C61.4837 20.1584 61.0639 20.5743 60.6712 21.0252C60.3427 21.3608 60.0448 21.7251 59.7811 22.1137C59.3923 22.7551 59.4856 23.2799 59.9832 23.8668C60.0532 23.9485 60.0415 24.1001 60.0648 24.2206C59.9288 24.2206 59.7422 24.3255 59.6761 24.2672C59.4683 24.1129 59.2905 23.9218 59.1513 23.7036C58.8988 23.2571 58.7397 22.764 58.6835 22.2541C58.6274 21.7442 58.6755 21.2283 58.8248 20.7376C58.9414 20.2594 59.1319 19.8007 59.2951 19.3343C59.5681 18.6319 59.586 17.856 59.3457 17.1418L59.2679 16.9669C59.2188 17.0082 59.1721 17.0524 59.128 17.0991C58.8107 17.5752 58.3762 17.9615 57.8662 18.221C57.3562 18.4804 56.7881 18.6041 56.2164 18.5801C55.6411 18.5801 55.0502 18.5529 54.4943 18.6073C54.0898 18.6511 53.6955 18.7628 53.3281 18.9378C53.1225 19.0338 52.9516 19.191 52.8389 19.388C52.7262 19.5849 52.6771 19.8119 52.6984 20.0379C52.7156 20.1623 52.685 20.2887 52.6129 20.3916C51.9598 21.0097 52.1037 21.7444 52.3019 22.4752C52.483 23.1363 52.8747 23.7204 53.4176 24.139C53.9268 24.5277 54.471 24.8737 55.0113 25.2274C55.6605 25.655 56.3486 26.036 56.955 26.4985C57.7589 27.036 58.3706 27.8157 58.7012 28.7244C59.0319 29.6332 59.0642 30.6236 58.7937 31.552C58.2844 33.6395 57.0133 35.0739 54.8636 35.6026C54.0228 35.8166 53.1404 35.8045 52.3058 35.5676C51.677 35.4138 51.1128 35.0652 50.694 34.5716C50.2751 34.0781 50.0229 33.4647 49.9734 32.8193C49.8447 31.8383 49.978 30.8407 50.3596 29.9278C50.7413 29.015 51.3577 28.2194 52.1464 27.622C52.5242 27.3666 52.9314 27.1577 53.3592 27C53.4785 26.9632 53.6072 26.9715 53.7208 27.0233C53.7611 27.0482 53.7948 27.0823 53.8192 27.1229C53.8435 27.1635 53.8578 27.2093 53.8607 27.2566C53.8418 27.2985 53.8127 27.3351 53.776 27.3629C53.7393 27.3908 53.6963 27.409 53.6508 27.4159C53.2887 27.4199 52.9363 27.5334 52.64 27.7416C52.3437 27.9497 52.1174 28.2428 51.9909 28.5821C51.5756 29.3496 51.3672 30.212 51.3863 31.0844C51.4053 31.9569 51.6512 32.8093 52.0998 33.5579C52.3844 34.076 52.8245 34.4918 53.3581 34.7463C53.8917 35.0009 54.4917 35.0815 55.0735 34.9767C55.654 34.8591 56.1766 34.5463 56.5546 34.0904C57.8374 32.6327 57.9152 30.0282 56.7451 28.4772C56.0347 27.6325 55.195 26.9056 54.2572 26.3236C53.6308 25.9047 53.0532 25.4171 52.5351 24.8698C52.0647 24.3536 51.7437 23.7189 51.6067 23.0341C51.4698 22.3492 51.5219 21.6399 51.7577 20.9825C51.9482 20.4422 52.1091 19.892 52.2397 19.3343C52.4173 18.5605 52.8884 17.886 53.5536 17.4528C53.993 17.1421 54.4602 16.8728 54.9491 16.6481C55.7577 16.2594 56.5041 15.8435 56.9317 14.996C57.0405 15.0738 57.1299 15.1438 57.2232 15.206C57.3193 15.2797 57.429 15.3336 57.546 15.3647C57.663 15.3958 57.785 15.4035 57.9049 15.3872C58.0249 15.371 58.1405 15.3311 58.245 15.27C58.3495 15.2088 58.4408 15.1276 58.5138 15.031C58.576 14.9611 58.6265 14.8833 58.681 14.8094C59.0308 14.3196 59.1746 14.273 59.8122 14.4713C59.5622 14.5235 59.3362 14.6565 59.1691 14.8496C59.002 15.0427 58.9029 15.2853 58.887 15.5403C58.8785 15.6908 58.8147 15.8328 58.7077 15.939C58.6008 16.0452 58.4583 16.1081 58.3078 16.1156C58.195 16.1156 58.0901 16.1739 57.9774 16.2011C58.0965 16.3384 58.2507 16.4408 58.4234 16.4976C58.5961 16.5543 58.781 16.5632 58.9584 16.5234C59.1358 16.4835 59.299 16.3964 59.4309 16.2712C59.5627 16.146 59.6582 15.9875 59.7072 15.8124C59.7461 15.6685 59.7811 15.5247 59.816 15.3809C59.9016 15.0194 60.0998 14.8755 60.5313 14.8911C60.0493 15.4314 60.1426 16.0184 60.3836 16.6093C60.4779 16.818 60.5559 17.0337 60.6168 17.2546C60.6791 17.5014 60.6809 17.7597 60.622 18.0073C60.5631 18.255 60.4453 18.4849 60.2786 18.6773C60.2421 18.7491 60.2184 18.8267 60.2087 18.9067C60.2864 18.9067 60.3797 18.9611 60.4419 18.93C61.2194 18.5412 61.9541 17.7094 61.4254 16.551C61.2908 16.2732 61.1803 15.9845 61.095 15.688C61.0584 15.525 61.0754 15.3545 61.1433 15.2019C61.2112 15.0492 61.3265 14.9225 61.472 14.8405V14.8405Z" fill="#AB2066"/>
<path d="M105.593 35.6022H104.104C104.174 33.3864 104.291 31.1862 104.295 28.9938C104.299 26.8014 104.202 24.5895 104.147 22.3621H105.648V28.5351C105.908 28.3057 106.126 28.1075 106.347 27.917C106.936 27.3651 107.649 26.9648 108.427 26.7508C109.593 26.4787 110.394 26.8169 110.993 27.8393C111.457 28.6628 111.735 29.5786 111.805 30.5215C111.921 32.1144 111.895 33.7145 111.727 35.3029C111.727 35.3923 111.692 35.4817 111.669 35.5983H110.464C110.542 35.1279 110.635 34.677 110.686 34.2261C110.9 32.7413 110.748 31.2265 110.243 29.814C110.04 29.2794 109.751 28.7816 109.387 28.3407C108.657 27.4816 107.584 27.5127 106.791 28.3174C106.148 29.001 105.756 29.8821 105.679 30.8169C105.499 32.3367 105.47 33.8707 105.593 35.3962C105.597 35.4467 105.593 35.505 105.593 35.6022Z" fill="#AB2066"/>
<path d="M60.2812 11.4664C60.3521 11.2126 60.33 10.9419 60.2188 10.7031C60.1075 10.4643 59.9146 10.2731 59.6748 10.1641C59.5411 10.0882 59.4344 9.97257 59.3696 9.83321C59.3048 9.69385 59.2851 9.53775 59.3132 9.38665C59.3132 9.10677 59.3599 8.82688 59.3366 8.54311C59.3005 8.14609 59.348 7.74592 59.4758 7.36834C59.6037 6.99075 59.8092 6.6441 60.079 6.35068C60.4328 5.96195 60.8293 5.57322 61.1869 5.18449C61.5041 4.85466 61.7891 4.49541 62.0382 4.11159C62.212 3.85029 62.2849 3.53477 62.2435 3.22371C62.202 2.91266 62.0489 2.62727 61.8128 2.42062C61.7389 2.3351 61.7467 2.17961 61.7156 2.0591C61.8594 2.0591 62.0538 1.95803 62.1393 2.02023C62.3494 2.17826 62.5275 2.37482 62.6641 2.59944C63.29 3.69565 63.2122 4.84241 62.8585 6.00082C62.6835 6.58003 62.4697 7.16701 62.3298 7.73844C62.2287 8.2816 62.2994 8.84274 62.5319 9.34389C62.6369 9.22339 62.7185 9.13398 62.7885 9.0368C63.0814 8.62852 63.4679 8.29647 63.9157 8.06853C64.3635 7.84058 64.8594 7.72338 65.3619 7.72678C66.0849 7.72678 66.8118 7.72678 67.531 7.65292C67.8724 7.61731 68.203 7.51284 68.5028 7.34582C68.7048 7.24383 68.8719 7.08398 68.9826 6.88667C69.0934 6.68935 69.1429 6.46351 69.1248 6.23795C69.1248 6.07857 69.1015 5.84922 69.3269 5.88809C69.403 5.91864 69.4711 5.96597 69.5263 6.02655C69.5815 6.08713 69.6223 6.15939 69.6457 6.23795C69.6812 6.42925 69.6719 6.62617 69.6185 6.81326C69.4378 7.63124 68.9616 8.35379 68.2812 8.84243C67.8774 9.14716 67.4422 9.4078 66.9829 9.61989C66.1199 10.0086 65.3113 10.4401 64.8526 11.3536C64.736 11.2603 64.6544 11.1865 64.565 11.1243C64.3705 10.9761 64.1261 10.9091 63.8833 10.9374C63.6404 10.9656 63.418 11.087 63.2627 11.2759C63.1873 11.3622 63.1172 11.4531 63.0528 11.548C62.7341 12.0028 62.5047 12.065 61.9605 11.8279C62.15 11.8041 62.3285 11.7256 62.4742 11.602C62.6198 11.4785 62.7263 11.3152 62.7807 11.132C62.8139 10.9521 62.8621 10.7753 62.9245 10.6034C62.9987 10.4459 63.1142 10.3115 63.2589 10.2146C63.4495 10.1339 63.6492 10.0765 63.8536 10.0436C63.6996 9.91216 63.5178 9.8173 63.3219 9.76613C63.126 9.71497 62.921 9.70883 62.7224 9.74817C62.5336 9.80434 62.3653 9.91447 62.2382 10.065C62.1111 10.2156 62.0308 10.4 62.0071 10.5956C61.8555 11.2526 61.7933 11.3148 61.2025 11.3731C61.735 10.7977 61.6184 10.1835 61.3541 9.57713C61.0392 8.85409 60.9653 8.16216 61.5251 7.51687C61.5601 7.47411 61.5679 7.34582 61.5251 7.31861C61.4951 7.29852 61.4608 7.28592 61.4249 7.28186C61.3891 7.2778 61.3528 7.28241 61.3191 7.29529C60.5688 7.6607 59.873 8.43038 60.2579 9.47995C60.3784 9.81426 60.5377 10.133 60.6466 10.4712C60.7051 10.6541 60.7009 10.8513 60.6347 11.0315C60.5685 11.2117 60.4441 11.3648 60.2812 11.4664V11.4664Z" fill="#AB2066"/>
<path d="M62.12 14.1524C62.1609 14.2225 62.1973 14.2953 62.2289 14.3701C62.268 14.5342 62.3526 14.6839 62.4729 14.8022C62.5932 14.9204 62.7444 15.0024 62.9091 15.0387C63.5156 15.1359 63.9626 15.3613 63.9276 16.1116C64.6157 15.3341 64.3163 14.475 63.364 14.2573C62.8042 14.1291 62.6798 14.0163 62.6409 13.5848C62.6409 13.5848 62.6409 13.5421 62.6681 13.4916C63.2007 13.9891 63.7955 13.8803 64.3747 13.6354C65.1171 13.305 65.8246 13.2 66.4932 13.7948C66.5199 13.8078 66.5491 13.8146 66.5788 13.8146C66.6084 13.8146 66.6377 13.8078 66.6643 13.7948C66.7027 13.7334 66.7178 13.6603 66.707 13.5887C66.5504 13.1595 66.2324 12.8084 65.8207 12.6102C65.409 12.4119 64.9362 12.3823 64.5029 12.5275C64.192 12.6402 63.8965 12.8035 63.5816 12.9162C63.4026 12.9897 63.2026 12.9938 63.0207 12.9277C62.8388 12.8615 62.6882 12.7299 62.5982 12.5586C62.8489 12.6249 63.1151 12.5985 63.3479 12.4843C63.5807 12.37 63.7645 12.1755 63.8654 11.9366C63.9281 11.8072 64.0319 11.7023 64.1607 11.6382C64.2894 11.5742 64.4358 11.5547 64.5768 11.5829C64.86 11.6081 65.1449 11.6081 65.4281 11.5829C65.8071 11.5468 66.1895 11.5878 66.5523 11.7034C66.915 11.8189 67.2506 12.0067 67.5389 12.2554C68.0637 12.718 68.5496 13.2233 69.055 13.7131C69.4098 14.1081 69.8716 14.3917 70.3844 14.5295C70.5867 14.5763 70.7975 14.5713 70.9973 14.5149C71.1971 14.4585 71.3794 14.3525 71.5273 14.2068C71.6284 14.1096 71.8732 14.0241 71.9471 14.0785C72.1337 14.2185 72.0521 14.4323 71.9082 14.5878C71.4756 15.0199 70.9101 15.2938 70.3028 15.3652C69.3405 15.5016 68.3593 15.3529 67.4806 14.9376C66.7785 14.5836 65.9803 14.4677 65.2065 14.6072C65.0394 14.6461 64.88 14.7005 64.6584 14.7666C64.8023 14.8832 64.8956 14.9648 64.9927 15.0387C65.4006 15.3419 65.7309 15.7374 65.9566 16.1928C66.1823 16.6482 66.2969 17.1505 66.2911 17.6587C66.2911 18.4362 66.3261 19.2137 66.3611 19.9639C66.378 20.1597 66.4307 20.3508 66.5166 20.5276C66.6118 20.7847 66.7862 21.0049 67.0147 21.1565C67.2431 21.3081 67.5138 21.3832 67.7877 21.3711C67.9004 21.3711 68.0171 21.4994 68.1298 21.5693C68.0287 21.6782 67.9432 21.857 67.8266 21.8803C67.6004 21.9153 67.3696 21.9074 67.1463 21.857C66.4072 21.706 65.7482 21.2916 65.2921 20.6908C64.9251 20.206 64.6086 19.685 64.3474 19.1359C63.9587 18.3196 63.57 17.5577 62.7031 17.099C62.7848 16.9901 62.8508 16.9046 62.913 16.8113C63.0597 16.616 63.1246 16.3714 63.0941 16.1291C63.0637 15.8868 62.9402 15.6658 62.7498 15.5129C62.6921 15.455 62.6267 15.4053 62.5554 15.3652C62.4582 15.3234 62.3705 15.2623 62.2978 15.1854C62.2251 15.1086 62.1688 15.0177 62.1324 14.9184C62.096 14.819 62.0803 14.7133 62.0862 14.6076C62.0921 14.502 62.1195 14.3987 62.1667 14.304C62.1667 14.2573 62.1667 14.1952 62.1667 14.1407L62.12 14.1524Z" fill="#AB2066"/>
<path d="M57.117 11.4817C56.9498 11.3457 56.806 11.2329 56.6699 11.1163C56.3233 10.8335 56.0431 10.478 55.849 10.075C55.6548 9.67197 55.5516 9.23124 55.5465 8.78393C55.5193 8.00647 55.5465 7.22902 55.4649 6.45156C55.4172 6.08986 55.2926 5.74258 55.0994 5.43308C54.9953 5.25179 54.8416 5.10395 54.6564 5.00687C54.4712 4.9098 54.2621 4.86751 54.0538 4.88498C53.9333 4.88498 53.805 4.7567 53.665 4.69061C53.7739 4.57399 53.8749 4.37185 53.9877 4.36408C54.2732 4.34523 54.5598 4.37547 54.8351 4.45349C55.669 4.70984 56.3799 5.26307 56.8332 6.0084C57.0547 6.34385 57.2496 6.69607 57.4163 7.06186C57.9566 8.25915 58.0577 8.40298 59.0489 9.18432C58.9578 9.29714 58.8734 9.41526 58.7963 9.53807C58.5008 10.0473 58.6563 10.5254 59.2472 10.9414C59.7059 11.264 59.772 11.4817 59.5543 12.0493C59.5274 11.8257 59.4255 11.6179 59.2652 11.4597C59.105 11.3015 58.8958 11.2024 58.6719 11.1785C58.5634 11.1795 58.4557 11.1589 58.3553 11.1179C58.2548 11.0768 58.1636 11.0162 58.0868 10.9394C58.0101 10.8627 57.9494 10.7714 57.9084 10.671C57.8673 10.5705 57.8467 10.4629 57.8478 10.3544C57.8372 10.3082 57.8201 10.2637 57.7972 10.2222C57.6512 10.3524 57.5456 10.5217 57.4929 10.71C57.4402 10.8984 57.4426 11.0979 57.4999 11.2849C57.5572 11.4719 57.667 11.6386 57.8161 11.7651C57.9653 11.8916 58.1476 11.9727 58.3415 11.9987C59.0101 12.1659 59.0645 12.2164 59.1189 12.8073C58.462 12.2281 57.7972 12.4497 57.1325 12.7334C56.8397 12.8865 56.5076 12.9476 56.1795 12.9088C55.8514 12.8699 55.5427 12.7329 55.2938 12.5157C55.2433 12.4691 55.1383 12.4846 55.0606 12.4691C55.0449 12.5513 55.0449 12.6357 55.0606 12.7179C55.1439 12.9455 55.2744 13.1531 55.4435 13.3268C55.6126 13.5006 55.8164 13.6367 56.0417 13.7262C56.267 13.8158 56.5087 13.8567 56.7509 13.8464C56.9932 13.8361 57.2305 13.7747 57.4474 13.6664C57.7158 13.5393 57.994 13.434 58.2793 13.3515C58.4475 13.3095 58.625 13.3249 58.7835 13.3953C58.942 13.4658 59.0724 13.5872 59.1539 13.7402C58.9365 13.6775 58.7046 13.688 58.4938 13.7702C58.283 13.8524 58.1052 14.0017 57.9877 14.195C57.7661 14.5216 57.5718 14.887 57.0703 14.7121C56.8798 14.9492 56.6816 14.6537 56.46 14.7121C56.2239 14.7587 55.9809 14.7587 55.7447 14.7121C55.169 14.638 54.6315 14.3835 54.2093 13.9851C53.7661 13.5964 53.3618 13.1416 52.9187 12.7451C52.5822 12.4347 52.2208 12.1526 51.838 11.9015C51.5829 11.7509 51.2836 11.6926 50.9906 11.7364C50.6975 11.7803 50.4285 11.9237 50.2287 12.1426C50.1665 12.2203 49.9799 12.2009 49.8399 12.2281C49.8399 12.092 49.7544 11.9054 49.8166 11.8393C49.9819 11.6217 50.1879 11.4382 50.423 11.299C51.5037 10.6926 52.6271 10.7742 53.7583 11.1357C54.1471 11.2524 54.4853 11.4195 54.8545 11.5439C55.2167 11.6851 55.6035 11.7523 55.992 11.7416C56.3806 11.731 56.7631 11.6426 57.117 11.4817V11.4817Z" fill="#AB2066"/>
<path d="M82.0395 35.6065C81.6819 35.6065 81.262 35.6065 80.815 35.6065C80.7373 35.6065 80.6206 35.4083 80.6129 35.2955C80.5856 34.6541 80.5856 34.0088 80.5779 33.3519C80.5867 33.2102 80.56 33.0686 80.5001 32.9398C80.434 33.0292 80.3641 33.1187 80.298 33.2119C79.5397 34.4085 78.3655 35.2822 77.0016 35.6648C75.1357 36.1352 73.5963 34.9573 73.468 33.037C73.2853 30.3392 75.4117 27.5015 77.7246 26.8834C78.0101 26.7975 78.3052 26.7479 78.6031 26.7357C79.7266 26.7357 80.85 26.7357 81.9695 26.7357C81.9151 28.2012 81.8101 29.6784 81.8218 31.1556C81.8335 32.6327 81.9617 34.0749 82.0395 35.6065ZM79.2173 27.5015V27.5365C78.7711 27.4976 78.3224 27.4976 77.8762 27.5365C76.0569 27.8669 74.6497 29.7639 74.7469 31.6842C74.7472 32.6253 75.1172 33.5285 75.7771 34.1993C75.9639 34.4007 76.1908 34.5607 76.4432 34.669C76.6956 34.7773 76.9679 34.8316 77.2426 34.8283C77.5172 34.825 77.7881 34.7642 78.0379 34.6498C78.2876 34.5355 78.5106 34.3701 78.6925 34.1643C78.9332 33.9187 79.1374 33.6399 79.299 33.3363C80.1504 31.5982 80.5856 29.6857 80.5701 27.7503C80.5701 27.5559 80.504 27.4821 80.3097 27.486C79.952 27.5093 79.5827 27.5015 79.2173 27.5015V27.5015Z" fill="#AB2066"/>
<path d="M48.1762 30.1215C48.1762 32.7026 46.5124 34.9767 44.1645 35.5987C43.3403 35.8212 42.4741 35.8386 41.6416 35.6492C40.9977 35.5278 40.4085 35.2061 39.9583 34.73C39.508 34.2539 39.2196 33.6478 39.1343 32.9981C38.985 31.8944 39.1511 30.771 39.6134 29.7577C40.0756 28.7445 40.8152 27.8827 41.7466 27.2721C42.8942 26.5844 44.2619 26.3632 45.5678 26.654C47.2588 27 48.1762 28.2556 48.1762 30.1215ZM46.7146 31.1633C46.7286 30.1162 46.3704 29.0982 45.7039 28.2906C45.4336 27.9519 45.0858 27.6834 44.6899 27.5076C44.2939 27.3318 43.8614 27.254 43.429 27.2807C42.9966 27.3074 42.577 27.4378 42.2057 27.661C41.8343 27.8841 41.5222 28.1934 41.2957 28.5627C40.8786 29.1738 40.6317 29.8849 40.5804 30.6229C40.4793 31.9718 40.7398 33.2235 41.7466 34.2031C42.0189 34.478 42.3473 34.6908 42.7094 34.8272C43.0715 34.9635 43.4587 35.0202 43.8447 34.9932C44.2307 34.9663 44.6063 34.8564 44.9459 34.6711C45.2855 34.4858 45.5812 34.2294 45.8127 33.9194C46.4131 33.1274 46.7306 32.157 46.7146 31.1633V31.1633Z" fill="#AB2066"/>
<path d="M37.7864 30.1253C37.8125 31.349 37.436 32.5473 36.7147 33.5362C35.9935 34.5251 34.9674 35.2496 33.7942 35.5986C33.0146 35.8126 32.1954 35.8393 31.4035 35.6763C29.8097 35.3459 28.869 34.343 28.7485 32.6831C28.6347 31.6643 28.8025 30.6338 29.2336 29.7038C29.6648 28.7737 30.3426 27.9797 31.1936 27.4081C31.8088 26.9794 32.5129 26.6953 33.2533 26.5768C33.9938 26.4584 34.7514 26.5086 35.4696 26.7239C36.1336 26.8953 36.7223 27.2814 37.1441 27.822C37.5659 28.3626 37.7972 29.0275 37.802 29.7132C37.7942 29.8493 37.7864 29.9892 37.7864 30.1253ZM36.3326 31.1088C36.3476 30.5424 36.2456 29.9791 36.0329 29.454C35.8202 28.929 35.5014 28.4534 35.0964 28.0572C34.8347 27.7938 34.5206 27.5881 34.1745 27.4534C33.8285 27.3187 33.458 27.258 33.087 27.2752C32.716 27.2924 32.3528 27.3872 32.0206 27.5533C31.6885 27.7195 31.3948 27.9534 31.1586 28.2399C29.8758 29.7288 29.8486 32.4149 31.1042 33.9309C31.3654 34.2766 31.7054 34.5548 32.0959 34.7425C32.4863 34.9303 32.9159 35.0221 33.349 35.0103C33.7821 34.9985 34.2061 34.8835 34.5858 34.6748C34.9654 34.4661 35.2898 34.1697 35.5318 33.8104C36.0756 33.0162 36.3557 32.071 36.3326 31.1088Z" fill="#AB2066"/>
<path d="M89.3833 31.6452C89.9603 32.7636 90.7331 33.7694 91.6651 34.6151C92.0095 34.8829 92.3855 35.1074 92.7847 35.2837C92.9501 35.3672 93.1343 35.4068 93.3194 35.3986C93.5046 35.3905 93.6846 35.3348 93.842 35.237C93.9353 35.1826 94.0869 35.237 94.2113 35.237C94.1646 35.3731 94.1413 35.6257 94.0636 35.6257C93.6866 35.747 93.2934 35.8099 92.8974 35.8123C92.1258 35.7543 91.3831 35.4942 90.7438 35.0582C89.4982 34.2106 88.4539 33.0999 87.6845 31.8045C87.9765 31.682 88.2619 31.5444 88.5397 31.3925C89.0145 31.1166 89.4692 30.8074 89.9003 30.4673C90.1801 30.2283 90.4133 29.9397 90.5883 29.616C91.2492 28.4265 90.6739 27.2836 89.325 27.1825C88.5242 27.1823 87.7244 27.2343 86.9304 27.338C86.7166 27.338 86.6816 27.4819 86.6816 27.6646C86.6816 30.2017 86.6816 32.7414 86.6816 35.2837V35.6063H85.0723C85.5776 32.652 85.4377 29.6899 85.2083 26.6927C85.3242 26.6755 85.441 26.6651 85.5582 26.6616C87.0043 26.6616 88.4542 26.6111 89.9003 26.6305C90.3569 26.6378 90.808 26.7314 91.2297 26.9065C92.0072 27.2331 92.2677 27.9095 92.0344 28.7297C91.857 29.3171 91.5175 29.8426 91.0548 30.2457C90.5495 30.72 89.9703 31.1554 89.3833 31.6452Z" fill="#AB2066"/>
<path d="M71.8119 26.6383C71.6735 27.4266 71.3458 28.1696 70.857 28.8033C70.3681 29.4371 69.7327 29.9427 69.0053 30.2768C69.5534 30.3351 70.0043 30.3545 70.4475 30.4361C70.9084 30.4876 71.3385 30.693 71.6681 31.0192C71.1122 31.0192 70.5758 31.0192 70.0432 31.0192C68.6313 31.0417 67.2246 31.1953 65.8411 31.4779C65.4757 31.5518 65.4173 31.7228 65.4523 32.0416C65.539 32.7899 65.8708 33.4885 66.3961 34.0286C66.9213 34.5686 67.6105 34.9196 68.3561 35.027C69.04 35.1293 69.7381 35.0734 70.397 34.8638C70.6049 34.8163 70.8014 34.7279 70.9749 34.6037C71.1484 34.4796 71.2955 34.3222 71.4077 34.1407C71.4504 34.0591 71.602 34.0436 71.707 33.9969C71.7381 34.1096 71.8197 34.2418 71.7847 34.3273C71.7216 34.4782 71.6229 34.6116 71.4971 34.7161C70.7692 35.2663 69.905 35.6077 68.9975 35.7034C68.0918 35.8434 67.1675 35.8051 66.2764 35.5907C65.6662 35.4726 65.1109 35.1591 64.6944 34.6977C64.2778 34.2363 64.0227 33.652 63.9674 33.0329C63.8162 31.7981 64.0607 30.5473 64.6657 29.4604C65.2706 28.3735 66.2048 27.5065 67.3338 26.9842C67.8265 26.768 68.3522 26.6366 68.8887 26.5955C69.7594 26.5372 70.6341 26.5955 71.5087 26.5955C71.6107 26.6022 71.7121 26.6165 71.8119 26.6383V26.6383ZM65.5145 30.6616C67.983 30.7083 70.568 28.9551 70.498 27.3263C69.7446 27.2724 68.988 27.2789 68.2356 27.3457C66.7818 27.5906 65.6 29.0911 65.5145 30.6616Z" fill="#AB2066"/>
<path d="M26.8161 26.5022C26.8161 27.0426 25.9764 27.7967 25.2612 27.8822C25.2612 27.8395 25.2301 27.7928 25.2417 27.7539C25.4011 27.2097 25.4167 27.2136 24.7792 27.1903C22.5595 27.1086 20.7791 28.4575 20.3515 30.5411C20.1606 31.4242 20.263 32.3454 20.6431 33.165C20.778 33.5 20.9811 33.8033 21.2395 34.0556C21.498 34.3079 21.806 34.5037 22.1442 34.6306C22.4823 34.7574 22.8432 34.8126 23.2038 34.7925C23.5644 34.7724 23.9168 34.6775 24.2388 34.5139C25.0297 34.1105 25.7203 33.5355 26.2602 32.8307C26.3923 32.6987 26.5339 32.5766 26.6839 32.4653C26.8429 32.6194 26.9744 32.7995 27.0727 32.9979C27.2738 33.7924 27.2563 34.6265 27.0221 35.4119C26.7356 36.676 26.0713 37.823 25.1173 38.7006C24.6657 39.1306 24.1118 39.4384 23.508 39.5946C23.4108 39.618 23.2864 39.6646 23.2087 39.6257C23.0747 39.5463 22.9507 39.451 22.8394 39.342C22.9638 39.2836 23.096 39.1709 23.2281 39.1787C23.4283 39.2045 23.6317 39.1866 23.8244 39.1262C24.017 39.0658 24.1942 38.9644 24.3438 38.8288C24.9255 38.3374 25.3765 37.7096 25.6567 37.0015C25.9368 36.2934 26.0373 35.5269 25.9492 34.7705C25.9104 34.3584 25.7937 34.3079 25.4478 34.5373C24.6009 35.1532 23.6207 35.5607 22.5867 35.7268C20.266 36.03 18.8005 34.5878 19.0221 32.2554C19.1085 31.2424 19.4314 30.2639 19.9648 29.3984C20.4981 28.5328 21.2271 27.8045 22.093 27.2719C23.0338 26.6422 24.1066 26.5411 25.2029 26.5178C25.7199 26.4944 26.268 26.5022 26.8161 26.5022Z" fill="#AB2066"/>
<path d="M95.1234 26.8677C95.0884 26.4789 95.2283 26.3817 95.5976 26.3895C97.1755 26.4772 98.7492 26.1545 100.165 25.4527C100.577 25.2311 100.943 24.959 101.359 24.7102C101.296 25.1611 101.013 25.4877 99.8697 26.3779H101.499C101.499 26.8404 101.499 26.8832 101.083 26.8715C100.439 26.8323 99.795 26.9372 99.1972 27.1786C98.0311 27.6918 97.4208 28.6558 97.1525 29.8609C96.8525 30.9957 96.9913 32.2019 97.5413 33.2389C98.2215 34.479 99.3916 35.0543 100.651 34.7705C100.902 34.731 101.138 34.6281 101.338 34.4717C101.538 34.3152 101.695 34.1104 101.794 33.8764C101.833 33.7909 101.969 33.7482 102.062 33.686C102.113 33.7948 102.206 33.9037 102.198 34.0047C102.181 34.1404 102.121 34.2671 102.027 34.3662C100.904 35.478 99.5704 36.0145 97.9922 35.6529C96.9698 35.4236 96.41 34.6772 96.1457 33.7093C95.8123 32.3347 95.835 30.8977 96.2118 29.5343C96.3245 29.0562 96.4684 28.582 96.6005 28.1077C96.8415 27.2408 96.5772 26.8793 95.6676 26.8521C95.4849 26.8638 95.3022 26.8677 95.1234 26.8677Z" fill="#AB2066"/>
<path d="M62.1272 14.1447C62.0883 14.1447 62.03 14.1447 62.0144 14.1835C61.8824 14.3565 61.7097 14.4942 61.5117 14.5844C61.3137 14.6746 61.0965 14.7145 60.8793 14.7006C60.5416 14.6841 60.2154 14.5723 59.9386 14.3779C59.7355 14.2305 59.5711 14.0362 59.4594 13.8114C59.3477 13.5867 59.292 13.3382 59.2972 13.0873C59.2903 12.8037 59.3871 12.5273 59.5693 12.3099C59.7733 11.9817 60.095 11.7438 60.4685 11.6448C60.8421 11.5458 61.2393 11.5932 61.5791 11.7773C61.7642 11.8723 61.9284 12.0034 62.062 12.163C62.1955 12.3226 62.2957 12.5074 62.3565 12.7064C62.547 13.2623 62.2943 13.6937 62.1077 14.1641L62.1272 14.1447Z" fill="#AB2066"/>
</svg>
