<svg width="11" height="19" viewBox="0 0 11 19" fill="none" xmlns="http://www.w3.org/2000/svg">
<path d="M2.13531 17.8151L9.83498 9.91632C9.97021 9.77758 10.0459 9.5915 10.0459 9.39776C10.0459 9.20401 9.97021 9.01794 9.83498 8.8792L2.13531 0.977451C2.07232 0.912751 1.997 0.861329 1.91381 0.826215C1.83061 0.791103 1.74123 0.773013 1.65093 0.773013C1.56062 0.773013 1.47124 0.791103 1.38804 0.826215C1.30485 0.861329 1.22953 0.912751 1.16654 0.977451C1.03694 1.11013 0.964385 1.28825 0.964385 1.47373C0.964385 1.6592 1.03694 1.83732 1.16654 1.97L8.40708 9.39776L1.16654 16.824C1.03738 16.9566 0.965108 17.1344 0.965108 17.3196C0.965108 17.5047 1.03738 17.6825 1.16654 17.8151C1.22953 17.8798 1.30485 17.9312 1.38804 17.9663C1.47124 18.0014 1.56062 18.0195 1.65092 18.0195C1.74123 18.0195 1.83061 18.0014 1.91381 17.9663C1.997 17.9312 2.07232 17.8798 2.13531 17.8151Z" fill="white"/>
</svg>
