<svg width="11" height="19" viewBox="0 0 11 19" fill="none" xmlns="http://www.w3.org/2000/svg">
<path d="M8.86469 1.18491L1.16502 9.08368C1.02979 9.22242 0.9541 9.4085 0.9541 9.60224C0.9541 9.79599 1.02979 9.98206 1.16502 10.1208L8.86469 18.0226C8.92768 18.0872 9.003 18.1387 9.08619 18.1738C9.16939 18.2089 9.25877 18.227 9.34907 18.227C9.43937 18.227 9.52876 18.2089 9.61195 18.1738C9.69515 18.1387 9.77047 18.0872 9.83346 18.0226C9.96306 17.8899 10.0356 17.7117 10.0356 17.5263C10.0356 17.3408 9.96306 17.1627 9.83346 17.03L2.59292 9.60224L9.83346 2.17597C9.96262 2.04335 10.0349 1.86555 10.0349 1.68044C10.0349 1.49532 9.96262 1.31752 9.83346 1.18491C9.77047 1.12021 9.69515 1.06879 9.61196 1.03367C9.52876 0.99856 9.43938 0.98047 9.34908 0.98047C9.25877 0.98047 9.16939 0.99856 9.08619 1.03367C9.003 1.06879 8.92768 1.12021 8.86469 1.18491Z" fill="white"/>
</svg>
