<svg width="64" height="64" viewBox="0 0 64 64" fill="none" xmlns="http://www.w3.org/2000/svg">
<path fill-rule="evenodd" clip-rule="evenodd" d="M31.5368 45.188C32.1358 44.7665 32.9407 44.7892 33.515 45.2439L40.1301 50.4808C40.8462 51.0477 40.9672 52.0879 40.4002 52.804C39.8333 53.5201 38.7932 53.641 38.0771 53.0741L32.4303 48.6037L25.9982 53.1299C25.2513 53.6556 24.2197 53.4761 23.694 52.7292C23.1684 51.9822 23.3478 50.9506 24.0948 50.425L31.5368 45.188Z" fill="#5506DD"/>
<path d="M6 42.5468V15.4533C6 11.8893 8.83917 9.00006 12.3415 9.00006H51.6585C55.1608 9.00006 58 11.8893 58 15.4533V42.5468C58 46.1108 55.1608 49.0001 51.6585 49.0001H12.3415C8.83917 49.0001 6 46.1108 6 42.5468Z" fill="#F1E9FF"/>
<g filter="url(#filter0_d_501_1368)">
<path fill-rule="evenodd" clip-rule="evenodd" d="M50.1112 22.9449C51.1542 22.9449 51.9997 22.0618 51.9997 20.9725C51.9997 19.8831 51.1542 19.0001 50.1112 19.0001C49.0682 19.0001 48.2227 19.8831 48.2227 20.9725C48.2227 22.0618 49.0682 22.9449 50.1112 22.9449ZM46.565 26.113C47.2986 25.512 47.4269 24.4037 46.8515 23.6374C46.2761 22.8712 45.2149 22.7372 44.4813 23.3382L33.2337 32.5517L28.2486 28.3865C27.6102 27.8531 26.6975 27.8741 26.0822 28.4364L12.5765 40.7788C11.8749 41.4201 11.8038 42.534 12.4177 43.2668C13.0317 43.9997 14.0982 44.074 14.7999 43.4327L27.2425 32.0619L32.1687 36.1779C32.7805 36.6891 33.6486 36.6934 34.2651 36.1884L46.565 26.113Z" fill="#FF856A"/>
<path d="M46.8515 23.6374L46.4796 23.9167L46.4796 23.9167L46.8515 23.6374ZM46.565 26.113L46.2702 25.7531V25.7531L46.565 26.113ZM44.4813 23.3382L44.1865 22.9784L44.4813 23.3382ZM33.2337 32.5517L32.9354 32.9086L33.2307 33.1554L33.5284 32.9115L33.2337 32.5517ZM28.2486 28.3865L27.9503 28.7434L28.2486 28.3865ZM26.0822 28.4364L26.396 28.7797L26.0822 28.4364ZM12.5765 40.7788L12.8903 41.1222H12.8903L12.5765 40.7788ZM12.4177 43.2668L12.7743 42.9681L12.7743 42.9681L12.4177 43.2668ZM14.7999 43.4327L15.1137 43.7761L14.7999 43.4327ZM27.2425 32.0619L27.5407 31.7049L27.2288 31.4443L26.9287 31.7185L27.2425 32.0619ZM32.1687 36.1779L31.8704 36.5348H31.8704L32.1687 36.1779ZM34.2651 36.1884L33.9704 35.8286L34.2651 36.1884ZM51.5346 20.9725C51.5346 21.8242 50.8784 22.4797 50.1112 22.4797V23.41C51.4299 23.41 52.4648 22.2994 52.4648 20.9725H51.5346ZM50.1112 19.4652C50.8784 19.4652 51.5346 20.1208 51.5346 20.9725H52.4648C52.4648 19.6455 51.4299 18.5349 50.1112 18.5349V19.4652ZM48.6878 20.9725C48.6878 20.1208 49.3439 19.4652 50.1112 19.4652V18.5349C48.7924 18.5349 47.7575 19.6455 47.7575 20.9725H48.6878ZM50.1112 22.4797C49.3439 22.4797 48.6878 21.8242 48.6878 20.9725H47.7575C47.7575 22.2994 48.7924 23.41 50.1112 23.41V22.4797ZM46.4796 23.9167C46.9079 24.4871 46.8078 25.3128 46.2702 25.7531L46.8597 26.4728C47.7895 25.7112 47.9459 24.3203 47.2234 23.3581L46.4796 23.9167ZM44.776 23.698C45.3012 23.2678 46.0601 23.3582 46.4796 23.9167L47.2234 23.3581C46.492 22.3842 45.1286 22.2067 44.1865 22.9784L44.776 23.698ZM33.5284 32.9115L44.776 23.698L44.1865 22.9784L32.9389 32.1919L33.5284 32.9115ZM27.9503 28.7434L32.9354 32.9086L33.5319 32.1948L28.5468 28.0295L27.9503 28.7434ZM26.396 28.7797C26.8399 28.374 27.4911 28.3597 27.9503 28.7434L28.5468 28.0295C27.7292 27.3464 26.5551 27.3741 25.7685 28.093L26.396 28.7797ZM12.8903 41.1222L26.396 28.7797L25.7685 28.093L12.2628 40.4355L12.8903 41.1222ZM12.7743 42.9681C12.3187 42.4244 12.3743 41.5938 12.8903 41.1222L12.2628 40.4355C11.3755 41.2463 11.2888 42.6436 12.0612 43.5655L12.7743 42.9681ZM14.4862 43.0894C13.9819 43.5502 13.22 43.5001 12.7743 42.9681L12.0612 43.5655C12.8434 44.4993 14.2146 44.5977 15.1137 43.7761L14.4862 43.0894ZM26.9287 31.7185L14.4862 43.0894L15.1137 43.7761L27.5562 32.4052L26.9287 31.7185ZM32.4669 35.8209L27.5407 31.7049L26.9442 32.4188L31.8704 36.5348L32.4669 35.8209ZM33.9704 35.8286C33.5267 36.1921 32.9075 36.1891 32.4669 35.8209L31.8704 36.5348C32.6535 37.1891 33.7705 37.1948 34.5599 36.5482L33.9704 35.8286ZM46.2702 25.7531L33.9704 35.8286L34.5599 36.5482L46.8597 26.4728L46.2702 25.7531Z" fill="#FF856A"/>
</g>
<mask id="mask0_501_1368" style="mask-type:alpha" maskUnits="userSpaceOnUse" x="6" y="9" width="52" height="40">
<path d="M6 42.5467V15.4533C6 11.8892 8.83917 9 12.3415 9H51.6585C55.1608 9 58 11.8892 58 15.4533V42.5467C58 46.1108 55.1608 49 51.6585 49H12.3415C8.83917 49 6 46.1108 6 42.5467Z" fill="#DACCF3"/>
</mask>
<g mask="url(#mask0_501_1368)">
<g filter="url(#filter1_f_501_1368)">
<circle cx="47.5" cy="47.5" r="7.5" fill="#A87BF4"/>
</g>
</g>
<defs>
<filter id="filter0_d_501_1368" x="5.95369" y="12.9534" width="55.8136" height="40.6831" filterUnits="userSpaceOnUse" color-interpolation-filters="sRGB">
<feFlood flood-opacity="0" result="BackgroundImageFix"/>
<feColorMatrix in="SourceAlpha" type="matrix" values="0 0 0 0 0 0 0 0 0 0 0 0 0 0 0 0 0 0 127 0" result="hardAlpha"/>
<feOffset dx="1.86049" dy="1.86049"/>
<feGaussianBlur stdDeviation="3.72098"/>
<feComposite in2="hardAlpha" operator="out"/>
<feColorMatrix type="matrix" values="0 0 0 0 1 0 0 0 0 0.521667 0 0 0 0 0.416667 0 0 0 0.57 0"/>
<feBlend mode="normal" in2="BackgroundImageFix" result="effect1_dropShadow_501_1368"/>
<feBlend mode="normal" in="SourceGraphic" in2="effect1_dropShadow_501_1368" result="shape"/>
</filter>
<filter id="filter1_f_501_1368" x="23" y="23" width="49" height="49" filterUnits="userSpaceOnUse" color-interpolation-filters="sRGB">
<feFlood flood-opacity="0" result="BackgroundImageFix"/>
<feBlend mode="normal" in="SourceGraphic" in2="BackgroundImageFix" result="shape"/>
<feGaussianBlur stdDeviation="8.5" result="effect1_foregroundBlur_501_1368"/>
</filter>
</defs>
</svg>
