<svg width="64" height="64" viewBox="0 0 64 64" fill="none" xmlns="http://www.w3.org/2000/svg">
<g filter="url(#filter0_b_501_1396)">
<mask id="path-1-outside-1_501_1396" maskUnits="userSpaceOnUse" x="9" y="9" width="46" height="46" fill="black">
<rect fill="white" x="9" y="9" width="46" height="46"/>
<path d="M42.2862 10L21.7333 10C14.2436 10 10 14.2436 10 21.7333L10 42.2667C10 49.7565 14.2436 54 21.7333 54H42.2862C49.776 54 54 49.7565 54 42.2667V21.7333C54 14.2436 49.776 10 42.2862 10"/>
</mask>
<path d="M42.2862 10L21.7333 10C14.2436 10 10 14.2436 10 21.7333L10 42.2667C10 49.7565 14.2436 54 21.7333 54H42.2862C49.776 54 54 49.7565 54 42.2667V21.7333C54 14.2436 49.776 10 42.2862 10" fill="#4E18D9" fill-opacity="0.16"/>
<path d="M42.2862 10.5521C42.5912 10.5521 42.8384 10.3049 42.8384 10C42.8384 9.69506 42.5912 9.44786 42.2862 9.44786V10.5521ZM42.2862 9.44786C41.9813 9.44786 41.7341 9.69506 41.7341 10C41.7341 10.3049 41.9813 10.5521 42.2862 10.5521V9.44786ZM42.2862 9.44786H21.7333V10.5521H42.2862V9.44786ZM21.7333 9.44786C17.8858 9.44786 14.7956 10.5396 12.6676 12.6676C10.5396 14.7956 9.44786 17.8858 9.44786 21.7333H10.5521C10.5521 18.0911 11.5822 15.3147 13.4484 13.4484C15.3147 11.5822 18.0911 10.5521 21.7333 10.5521V9.44786ZM9.44786 21.7333V42.2667H10.5521V21.7333H9.44786ZM9.44786 42.2667C9.44786 46.1142 10.5396 49.2045 12.6676 51.3324C14.7956 53.4604 17.8858 54.5521 21.7333 54.5521V53.4479C18.0911 53.4479 15.3147 52.4178 13.4484 50.5516C11.5822 48.6853 10.5521 45.9089 10.5521 42.2667H9.44786ZM21.7333 54.5521H42.2862V53.4479H21.7333V54.5521ZM42.2862 54.5521C46.1338 54.5521 49.2195 53.4604 51.3427 51.332C53.4657 49.2037 54.5521 46.1135 54.5521 42.2667H53.4479C53.4479 45.9096 52.4223 48.6861 50.5609 50.5521C48.6997 52.4179 45.9284 53.4479 42.2862 53.4479V54.5521ZM54.5521 42.2667V21.7333H53.4479V42.2667H54.5521ZM54.5521 21.7333C54.5521 17.8865 53.4657 14.7963 51.3427 12.6681C49.2195 10.5396 46.1338 9.44786 42.2862 9.44786V10.5521C45.9284 10.5521 48.6997 11.5821 50.5609 13.4479C52.4223 15.314 53.4479 18.0904 53.4479 21.7333H54.5521Z" fill="url(#paint0_linear_501_1396)" mask="url(#path-1-outside-1_501_1396)"/>
</g>
<path d="M24.4824 20.9661L27.7602 23.7603" stroke="#5506DD" stroke-width="1.65641" stroke-linecap="round" stroke-linejoin="round"/>
<path d="M28.7812 16.936L29.7485 20.6437" stroke="#5506DD" stroke-width="1.65641" stroke-linecap="round" stroke-linejoin="round"/>
<path d="M34.4234 19.4077L33.1875 21.987" stroke="#5506DD" stroke-width="1.65641" stroke-linecap="round" stroke-linejoin="round"/>
<g filter="url(#filter1_d_501_1396)">
<path d="M28.0835 33.0165L28.8608 33.8009L28.0835 33.0165ZM34.7272 29.7011C34.2909 30.1273 34.2828 30.8265 34.7091 31.2627C35.1353 31.6989 35.8344 31.707 36.2706 31.2808L34.7272 29.7011ZM37.0572 28.9683L36.2855 28.1785V28.1785L37.0572 28.9683ZM37.9589 33.4551C37.5186 33.8771 37.5037 34.5761 37.9257 35.0164C38.3477 35.4568 39.0467 35.4716 39.487 35.0497L37.9589 33.4551ZM39.3678 33.6344L38.9607 32.6079L38.7598 32.6876L38.6037 32.8372L39.3678 33.6344ZM26.9013 33.0165L25.8569 33.3752L25.9238 33.5697L26.0562 33.7272L26.9013 33.0165ZM31.6127 45.0876L31.5585 46.1906L31.6127 45.0876ZM36.1933 42.7743L36.9566 43.5723L36.1933 42.7743ZM31.7952 45.0936L31.7774 46.1977L31.7952 45.0936ZM40.6253 38.5346L41.3886 39.3326L40.6253 38.5346ZM40.147 32.1335L41.2496 32.1939L40.147 32.1335ZM25.2769 28.2866L24.2325 28.6453L25.2769 28.2866ZM42.2961 22.3897L43.3062 21.9434L42.2961 22.3897ZM41.6408 24.4897L40.869 23.6999L41.6408 24.4897ZM28.8608 33.8009L40.1185 22.6446L38.5639 21.0759L27.3062 32.2321L28.8608 33.8009ZM40.6711 22.3171C40.8067 22.3525 40.9258 22.4088 41.0234 22.4853C41.1165 22.5582 41.2105 22.665 41.286 22.836L43.3062 21.9434C42.8456 20.901 42.0039 20.3826 41.2292 20.1802L40.6711 22.3171ZM40.869 23.6999L36.2855 28.1785L37.8289 29.7582L42.4125 25.2796L40.869 23.6999ZM36.2855 28.1785L34.7272 29.7011L36.2706 31.2808L37.8289 29.7582L36.2855 28.1785ZM37.2701 30.0519C37.8711 29.9338 39.1324 30.4659 39.0444 32.0731L41.2496 32.1939C41.4225 29.0373 38.7472 27.511 36.8443 27.8848L37.2701 30.0519ZM38.6037 32.8372L37.9589 33.4551L39.487 35.0497L40.1318 34.4317L38.6037 32.8372ZM39.7749 34.6609C39.7751 34.6608 39.8461 34.6262 40.0542 34.7254C40.2676 34.8271 40.5258 35.0285 40.776 35.3132L42.435 33.8554C42.0529 33.4205 41.5652 32.999 41.0044 32.7317C40.4382 32.4619 39.7066 32.3122 38.9607 32.6079L39.7749 34.6609ZM39.8619 37.7367L35.4299 41.9764L36.9566 43.5723L41.3886 39.3326L39.8619 37.7367ZM31.8129 43.9894C31.7643 43.9886 31.7156 43.9871 31.6669 43.9847L31.5585 46.1906C31.6319 46.1942 31.7049 46.1965 31.7774 46.1977L31.8129 43.9894ZM28.8372 42.3807L26.0675 39.9257L24.6025 41.5784L27.3723 44.0334L28.8372 42.3807ZM23.6531 34.5594V29.0744H21.4446V34.5594H23.6531ZM23.8703 28.2408C23.9123 28.2375 23.9472 28.2399 23.9766 28.2455C24.0052 28.251 24.0354 28.2609 24.0693 28.2791L25.114 26.3333C24.6362 26.0767 24.1442 26.004 23.6972 26.0391L23.8703 28.2408ZM24.2325 28.6453L25.8569 33.3752L27.9457 32.6578L26.3213 27.9279L24.2325 28.6453ZM26.0562 33.7272C26.2697 33.9811 26.651 34.2821 27.172 34.3751C27.7691 34.4818 28.3737 34.2836 28.8608 33.8009L27.3062 32.2321C27.2782 32.2598 27.2923 32.2363 27.3551 32.2152C27.4206 32.1932 27.4941 32.1892 27.5603 32.201C27.6201 32.2117 27.6593 32.2323 27.6794 32.245C27.6977 32.2566 27.7193 32.2734 27.7465 32.3058L26.0562 33.7272ZM26.0675 39.9257C24.532 38.5647 23.6531 36.6112 23.6531 34.5594H21.4446C21.4446 37.2431 22.5942 39.7983 24.6025 41.5784L26.0675 39.9257ZM31.6669 43.9847C30.7426 43.9393 29.89 43.3138 28.8372 42.3807L27.3723 44.0334C28.3615 44.9102 29.7575 46.1021 31.5585 46.1906L31.6669 43.9847ZM35.4299 41.9764C34.1716 43.1801 33.0346 44.0091 31.8129 43.9894L31.7774 46.1977C33.9957 46.2334 35.729 44.7467 36.9566 43.5723L35.4299 41.9764ZM40.776 35.3132C41.0156 35.5859 41.0584 35.8559 40.9276 36.2441C40.7757 36.695 40.3968 37.225 39.8619 37.7367L41.3886 39.3326C42.0505 38.6994 42.7082 37.8763 43.0206 36.9492C43.354 35.9595 43.2886 34.8268 42.435 33.8554L40.776 35.3132ZM39.0444 32.0731C39.0334 32.2739 38.9108 32.5429 38.6037 32.8372L40.1318 34.4317C40.667 33.9189 41.1968 33.1578 41.2496 32.1939L39.0444 32.0731ZM24.0693 28.2791C24.0395 28.2631 24.0496 28.255 24.0879 28.3153C24.1298 28.3813 24.1774 28.4846 24.2325 28.6453L26.3213 27.9279C26.1808 27.5188 25.8804 26.7448 25.114 26.3333L24.0693 28.2791ZM41.286 22.836C41.3074 22.8843 41.3256 22.9659 41.2672 23.1259C41.2042 23.2985 41.0678 23.5057 40.869 23.6999L42.4125 25.2796C43.0876 24.6199 43.9177 23.3275 43.3062 21.9434L41.286 22.836ZM23.6531 29.0744C23.6531 28.7642 23.7203 28.4929 23.8076 28.3329C23.8475 28.2597 23.8768 28.2369 23.8787 28.2355C23.879 28.2353 23.8755 28.2377 23.8695 28.24C23.8633 28.2423 23.8623 28.2415 23.8703 28.2408L23.6972 26.0391C22.79 26.1104 22.1943 26.6788 21.869 27.2749C21.5575 27.8456 21.4446 28.5071 21.4446 29.0744H23.6531ZM40.1185 22.6446C40.2717 22.4928 40.414 22.3955 40.5248 22.3476C40.6256 22.304 40.6635 22.3151 40.6711 22.3171L41.2292 20.1802C40.0499 19.8722 39.0806 20.5638 38.5639 21.0759L40.1185 22.6446Z" fill="url(#paint1_linear_501_1396)"/>
</g>
<defs>
<filter id="filter0_b_501_1396" x="1.1662" y="1.16583" width="61.6676" height="61.6683" filterUnits="userSpaceOnUse" color-interpolation-filters="sRGB">
<feFlood flood-opacity="0" result="BackgroundImageFix"/>
<feGaussianBlur in="BackgroundImage" stdDeviation="4.14102"/>
<feComposite in2="SourceAlpha" operator="in" result="effect1_backgroundBlur_501_1396"/>
<feBlend mode="normal" in="SourceGraphic" in2="effect1_backgroundBlur_501_1396" result="shape"/>
</filter>
<filter id="filter1_d_501_1396" x="18.1315" y="15.6869" width="33.1179" height="37.1371" filterUnits="userSpaceOnUse" color-interpolation-filters="sRGB">
<feFlood flood-opacity="0" result="BackgroundImageFix"/>
<feColorMatrix in="SourceAlpha" type="matrix" values="0 0 0 0 0 0 0 0 0 0 0 0 0 0 0 0 0 0 127 0" result="hardAlpha"/>
<feOffset dx="2.20855" dy="1.10427"/>
<feGaussianBlur stdDeviation="2.76068"/>
<feComposite in2="hardAlpha" operator="out"/>
<feColorMatrix type="matrix" values="0 0 0 0 0.47283 0 0 0 0 0.222274 0 0 0 0 0.904167 0 0 0 0.54 0"/>
<feBlend mode="normal" in2="BackgroundImageFix" result="effect1_dropShadow_501_1396"/>
<feBlend mode="normal" in="SourceGraphic" in2="effect1_dropShadow_501_1396" result="shape"/>
</filter>
<linearGradient id="paint0_linear_501_1396" x1="17.0041" y1="15.1261" x2="45.0714" y2="49.8881" gradientUnits="userSpaceOnUse">
<stop stop-color="white" stop-opacity="0.25"/>
<stop offset="1" stop-color="white" stop-opacity="0"/>
</linearGradient>
<linearGradient id="paint1_linear_501_1396" x1="32.6598" y1="21.171" x2="32.6598" y2="45.0943" gradientUnits="userSpaceOnUse">
<stop stop-color="#4F19DA"/>
<stop offset="1" stop-color="#714FF8" stop-opacity="0.5"/>
</linearGradient>
</defs>
</svg>
