<svg width="64" height="64" viewBox="0 0 64 64" fill="none" xmlns="http://www.w3.org/2000/svg">
<g clip-path="url(#clip0_501_1365)">
<path d="M5 16.7805C5 14.1403 7.42008 12 10.4054 12H49.5946C52.5799 12 55 14.1403 55 16.7805V56.2195C55 58.8597 52.5799 61 49.5946 61H10.4054C7.42009 61 5 58.8597 5 56.2195V16.7805Z" fill="#FFEEEA"/>
<g filter="url(#filter0_d_501_1365)">
<rect x="15" y="29" width="15.6742" height="10.9375" rx="1" fill="#FF856A"/>
<rect x="32" y="29" width="6" height="11" rx="1" fill="#FF856A"/>
<rect x="39" y="29" width="6" height="11" rx="1" fill="#FF856A"/>
<rect x="15" y="43.0625" width="15.6742" height="10.9375" rx="1" fill="#FF856A"/>
<rect x="32" y="43" width="6" height="11" rx="1" fill="#FF856A"/>
<rect x="39" y="43" width="6" height="11" rx="1" fill="#FF856A"/>
</g>
<mask id="mask0_501_1365" style="mask-type:alpha" maskUnits="userSpaceOnUse" x="5" y="12" width="50" height="49">
<path d="M5 16.7805C5 14.1403 7.42008 12 10.4054 12H49.5946C52.5799 12 55 14.1403 55 16.7805V56.2195C55 58.8597 52.5799 61 49.5946 61H10.4054C7.42009 61 5 58.8597 5 56.2195V16.7805Z" fill="#FFEEEA"/>
</mask>
<g mask="url(#mask0_501_1365)">
<g filter="url(#filter1_f_501_1365)">
<circle cx="51" cy="61" r="6" fill="#FF856A"/>
</g>
</g>
<path d="M47.3889 3V9.69769C36.427 9.69769 31.9438 18.337 31 23.0561C38.7865 15.0337 43.0337 14.7977 47.3889 15.5056V22.0355L59.5505 12.5178L47.3889 3Z" fill="#5506DD"/>
</g>
<defs>
<filter id="filter0_d_501_1365" x="8" y="22" width="50" height="45" filterUnits="userSpaceOnUse" color-interpolation-filters="sRGB">
<feFlood flood-opacity="0" result="BackgroundImageFix"/>
<feColorMatrix in="SourceAlpha" type="matrix" values="0 0 0 0 0 0 0 0 0 0 0 0 0 0 0 0 0 0 127 0" result="hardAlpha"/>
<feOffset dx="3" dy="3"/>
<feGaussianBlur stdDeviation="5"/>
<feComposite in2="hardAlpha" operator="out"/>
<feColorMatrix type="matrix" values="0 0 0 0 1 0 0 0 0 0.576333 0 0 0 0 0.483333 0 0 0 0.6 0"/>
<feBlend mode="normal" in2="BackgroundImageFix" result="effect1_dropShadow_501_1365"/>
<feBlend mode="normal" in="SourceGraphic" in2="effect1_dropShadow_501_1365" result="shape"/>
</filter>
<filter id="filter1_f_501_1365" x="33" y="43" width="36" height="36" filterUnits="userSpaceOnUse" color-interpolation-filters="sRGB">
<feFlood flood-opacity="0" result="BackgroundImageFix"/>
<feBlend mode="normal" in="SourceGraphic" in2="BackgroundImageFix" result="shape"/>
<feGaussianBlur stdDeviation="6" result="effect1_foregroundBlur_501_1365"/>
</filter>
<clipPath id="clip0_501_1365">
<rect width="64" height="64" fill="white"/>
</clipPath>
</defs>
</svg>
