<svg width="64" height="64" viewBox="0 0 64 64" fill="none" xmlns="http://www.w3.org/2000/svg">
<g filter="url(#filter0_b_501_1397)">
<mask id="path-1-outside-1_501_1397" maskUnits="userSpaceOnUse" x="9" y="9" width="46" height="46" fill="black">
<rect fill="white" x="9" y="9" width="46" height="46"/>
<path d="M42.2862 10L21.7333 10C14.2436 10 10 14.2436 10 21.7333L10 42.2667C10 49.7565 14.2436 54 21.7333 54H42.2862C49.776 54 54 49.7565 54 42.2667V21.7333C54 14.2436 49.776 10 42.2862 10"/>
</mask>
<path d="M42.2862 10L21.7333 10C14.2436 10 10 14.2436 10 21.7333L10 42.2667C10 49.7565 14.2436 54 21.7333 54H42.2862C49.776 54 54 49.7565 54 42.2667V21.7333C54 14.2436 49.776 10 42.2862 10" fill="#FFAC95" fill-opacity="0.4"/>
<path d="M42.2862 10.5521C42.5912 10.5521 42.8384 10.3049 42.8384 10C42.8384 9.69506 42.5912 9.44786 42.2862 9.44786V10.5521ZM42.2862 9.44786C41.9813 9.44786 41.7341 9.69506 41.7341 10C41.7341 10.3049 41.9813 10.5521 42.2862 10.5521V9.44786ZM42.2862 9.44786H21.7333V10.5521H42.2862V9.44786ZM21.7333 9.44786C17.8858 9.44786 14.7956 10.5396 12.6676 12.6676C10.5396 14.7956 9.44786 17.8858 9.44786 21.7333H10.5521C10.5521 18.0911 11.5822 15.3147 13.4484 13.4484C15.3147 11.5822 18.0911 10.5521 21.7333 10.5521V9.44786ZM9.44786 21.7333V42.2667H10.5521V21.7333H9.44786ZM9.44786 42.2667C9.44786 46.1142 10.5396 49.2045 12.6676 51.3324C14.7956 53.4604 17.8858 54.5521 21.7333 54.5521V53.4479C18.0911 53.4479 15.3147 52.4178 13.4484 50.5516C11.5822 48.6853 10.5521 45.9089 10.5521 42.2667H9.44786ZM21.7333 54.5521H42.2862V53.4479H21.7333V54.5521ZM42.2862 54.5521C46.1338 54.5521 49.2195 53.4604 51.3427 51.332C53.4657 49.2037 54.5521 46.1135 54.5521 42.2667H53.4479C53.4479 45.9096 52.4223 48.6861 50.5609 50.5521C48.6997 52.4179 45.9284 53.4479 42.2862 53.4479V54.5521ZM54.5521 42.2667V21.7333H53.4479V42.2667H54.5521ZM54.5521 21.7333C54.5521 17.8865 53.4657 14.7963 51.3427 12.6681C49.2195 10.5396 46.1338 9.44786 42.2862 9.44786V10.5521C45.9284 10.5521 48.6997 11.5821 50.5609 13.4479C52.4223 15.314 53.4479 18.0904 53.4479 21.7333H54.5521Z" fill="url(#paint0_linear_501_1397)" mask="url(#path-1-outside-1_501_1397)"/>
</g>
<g filter="url(#filter1_bd_501_1397)">
<mask id="path-3-inside-2_501_1397" fill="white">
<path fill-rule="evenodd" clip-rule="evenodd" d="M32.8871 20.5925C31.9497 20.5925 31.1778 21.3645 31.1778 22.3202V43.3098C31.1778 44.2471 31.9497 45.0191 32.8871 45.0191C33.8428 45.0191 34.6148 44.2471 34.6148 43.3098V22.3202C34.6148 21.3645 33.8428 20.5925 32.8871 20.5925ZM23.2388 27.375C22.3015 27.375 21.5295 28.147 21.5295 29.1027V43.3102C21.5295 44.2476 22.3015 45.0195 23.2388 45.0195C24.1946 45.0195 24.9665 44.2476 24.9665 43.3102V29.1027C24.9665 28.147 24.1946 27.375 23.2388 27.375ZM40.6816 36.6013C40.6816 35.6456 41.4536 34.8737 42.4093 34.8737C43.3467 34.8737 44.1186 35.6456 44.1186 36.6013V43.3099C44.1186 44.2473 43.3467 45.0192 42.391 45.0192C41.4536 45.0192 40.6816 44.2473 40.6816 43.3099V36.6013Z"/>
</mask>
<path fill-rule="evenodd" clip-rule="evenodd" d="M32.8871 20.5925C31.9497 20.5925 31.1778 21.3645 31.1778 22.3202V43.3098C31.1778 44.2471 31.9497 45.0191 32.8871 45.0191C33.8428 45.0191 34.6148 44.2471 34.6148 43.3098V22.3202C34.6148 21.3645 33.8428 20.5925 32.8871 20.5925ZM23.2388 27.375C22.3015 27.375 21.5295 28.147 21.5295 29.1027V43.3102C21.5295 44.2476 22.3015 45.0195 23.2388 45.0195C24.1946 45.0195 24.9665 44.2476 24.9665 43.3102V29.1027C24.9665 28.147 24.1946 27.375 23.2388 27.375ZM40.6816 36.6013C40.6816 35.6456 41.4536 34.8737 42.4093 34.8737C43.3467 34.8737 44.1186 35.6456 44.1186 36.6013V43.3099C44.1186 44.2473 43.3467 45.0192 42.391 45.0192C41.4536 45.0192 40.6816 44.2473 40.6816 43.3099V36.6013Z" fill="url(#paint1_linear_501_1397)"/>
<path d="M31.3851 22.3201C31.3851 21.4775 32.0656 20.8 32.8869 20.8V20.3848C31.8334 20.3848 30.97 21.2512 30.97 22.3201H31.3851ZM31.3851 43.3097V22.3201H30.97V43.3097H31.3851ZM32.8869 44.8114C32.0641 44.8114 31.3851 44.1324 31.3851 43.3097H30.97C30.97 44.3617 31.8349 45.2266 32.8869 45.2266V44.8114ZM34.407 43.3097C34.407 44.131 33.7294 44.8114 32.8869 44.8114V45.2266C33.9558 45.2266 34.8221 44.3631 34.8221 43.3097H34.407ZM34.407 22.3201V43.3097H34.8221V22.3201H34.407ZM32.8869 20.8C33.728 20.8 34.407 21.479 34.407 22.3201H34.8221C34.8221 21.2497 33.9572 20.3848 32.8869 20.3848V20.8ZM21.7369 29.1026C21.7369 28.2601 22.4173 27.5825 23.2386 27.5825V27.1673C22.1852 27.1673 21.3217 28.0337 21.3217 29.1026H21.7369ZM21.7369 43.3101V29.1026H21.3217V43.3101H21.7369ZM23.2386 44.8118C22.4159 44.8118 21.7369 44.1328 21.7369 43.3101H21.3217C21.3217 44.3621 22.1866 45.227 23.2386 45.227V44.8118ZM24.7587 43.3101C24.7587 44.1314 24.0812 44.8118 23.2386 44.8118V45.227C24.3075 45.227 25.1739 44.3635 25.1739 43.3101H24.7587ZM24.7587 29.1026V43.3101H25.1739V29.1026H24.7587ZM23.2386 27.5825C24.0797 27.5825 24.7587 28.2615 24.7587 29.1026H25.1739C25.1739 28.0322 24.309 27.1673 23.2386 27.1673V27.5825ZM42.4091 34.666C41.3387 34.666 40.4739 35.5309 40.4739 36.6012H40.889C40.889 35.7601 41.568 35.0811 42.4091 35.0811V34.666ZM44.326 36.6012C44.326 35.5323 43.4626 34.666 42.4091 34.666V35.0811C43.2304 35.0811 43.9109 35.7587 43.9109 36.6012H44.326ZM44.326 43.3098V36.6012H43.9109V43.3098H44.326ZM42.3907 45.2267C43.4597 45.2267 44.326 44.3633 44.326 43.3098H43.9109C43.9109 44.1311 43.2333 44.8116 42.3907 44.8116V45.2267ZM40.4739 43.3098C40.4739 44.3618 41.3387 45.2267 42.3907 45.2267V44.8116C41.568 44.8116 40.889 44.1325 40.889 43.3098H40.4739ZM40.4739 36.6012V43.3098H40.889V36.6012H40.4739Z" fill="url(#paint2_linear_501_1397)" mask="url(#path-3-inside-2_501_1397)"/>
</g>
<defs>
<filter id="filter0_b_501_1397" x="1.1662" y="1.16583" width="61.6676" height="61.6683" filterUnits="userSpaceOnUse" color-interpolation-filters="sRGB">
<feFlood flood-opacity="0" result="BackgroundImageFix"/>
<feGaussianBlur in="BackgroundImage" stdDeviation="4.14102"/>
<feComposite in2="SourceAlpha" operator="in" result="effect1_backgroundBlur_501_1397"/>
<feBlend mode="normal" in="SourceGraphic" in2="effect1_backgroundBlur_501_1397" result="shape"/>
</filter>
<filter id="filter1_bd_501_1397" x="13.7453" y="12.8084" width="38.1569" height="39.9951" filterUnits="userSpaceOnUse" color-interpolation-filters="sRGB">
<feFlood flood-opacity="0" result="BackgroundImageFix"/>
<feGaussianBlur in="BackgroundImage" stdDeviation="3.89202"/>
<feComposite in2="SourceAlpha" operator="in" result="effect1_backgroundBlur_501_1397"/>
<feColorMatrix in="SourceAlpha" type="matrix" values="0 0 0 0 0 0 0 0 0 0 0 0 0 0 0 0 0 0 127 0" result="hardAlpha"/>
<feOffset dx="2.59468" dy="2.59468"/>
<feGaussianBlur stdDeviation="2.59468"/>
<feColorMatrix type="matrix" values="0 0 0 0 1 0 0 0 0 0.447059 0 0 0 0 0.368627 0 0 0 0.5 0"/>
<feBlend mode="normal" in2="effect1_backgroundBlur_501_1397" result="effect2_dropShadow_501_1397"/>
<feBlend mode="normal" in="SourceGraphic" in2="effect2_dropShadow_501_1397" result="shape"/>
</filter>
<linearGradient id="paint0_linear_501_1397" x1="17.0041" y1="15.1261" x2="45.0714" y2="49.8881" gradientUnits="userSpaceOnUse">
<stop stop-color="white" stop-opacity="0.25"/>
<stop offset="1" stop-color="white" stop-opacity="0"/>
</linearGradient>
<linearGradient id="paint1_linear_501_1397" x1="15.6821" y1="38.7226" x2="26.2635" y2="60.461" gradientUnits="userSpaceOnUse">
<stop stop-color="#FE9780"/>
<stop offset="1" stop-color="#FFB7A7" stop-opacity="0.73"/>
</linearGradient>
<linearGradient id="paint2_linear_501_1397" x1="25.1251" y1="23.4382" x2="40.9192" y2="41.5277" gradientUnits="userSpaceOnUse">
<stop stop-color="white" stop-opacity="0.25"/>
<stop offset="1" stop-color="white" stop-opacity="0"/>
</linearGradient>
</defs>
</svg>
