<svg width="522" height="184" viewBox="0 0 522 184" fill="none" xmlns="http://www.w3.org/2000/svg">
<rect width="522" height="184" rx="12" fill="#FAF6FF"/>
<path d="M33.8252 27.9481C33.0022 27.9481 31.336 27.9682 30.5933 27.9682V27.9481H27.542V42H30.5933V38.0856C31.2156 38.0856 33.3033 38.0856 33.8252 38.0856C35.1501 38.0856 39.8273 38.2662 39.8273 33.0269C39.8273 27.9682 35.5114 27.9481 33.8252 27.9481ZM33.9256 35.4358C33.6646 35.4358 31.2758 35.4358 30.5933 35.4358V30.5979C31.4163 30.5979 33.4237 30.5979 33.9858 30.5979C35.0096 30.5979 36.9567 30.5979 36.9567 33.0269C36.9567 35.5562 34.7486 35.4358 33.9256 35.4358ZM48.0375 30.7384C46.0903 30.7384 45.4078 31.3206 44.7654 32.4046H44.5847V30.7384H41.5335V42H44.5847V36.9614C44.5847 35.4358 45.2472 33.6693 47.5156 33.6693C48.4791 33.6693 49.262 33.8298 49.543 33.9101L50.0248 31.0396C49.5029 30.9191 48.8404 30.7384 48.0375 30.7384ZM56.5735 30.5377C53.1609 30.5377 50.3104 32.4046 50.3104 36.2789C50.3104 40.1733 53.1609 42 56.5735 42C60.0062 42 62.8567 40.2335 62.8567 36.2789C62.8567 32.3644 60.0062 30.5377 56.5735 30.5377ZM56.5735 39.2298C54.6665 39.2298 53.3014 38.3867 53.3014 36.2789C53.3014 34.151 54.6665 33.328 56.5735 33.328C58.5006 33.328 59.8657 34.1912 59.8657 36.2789C59.8657 38.3064 58.5006 39.2298 56.5735 39.2298ZM73.8179 27.5065V32.4046H73.6373C72.8744 31.4009 71.6098 30.7384 69.5221 30.7384C64.7645 30.7384 64.2627 34.7332 64.2627 36.3793C64.2627 37.8848 64.7846 42 69.502 42C71.6299 42 72.9146 41.4179 73.6774 40.4342H73.8179V42H76.8692V27.5065H73.8179ZM70.4053 39.3904C67.4946 39.3904 67.1734 37.1822 67.1734 36.3793C67.1734 35.496 67.4745 33.3681 70.4053 33.3681C73.035 33.3681 73.577 34.8536 73.577 36.3793C73.577 38.0856 73.035 39.3904 70.4053 39.3904ZM87.3603 30.7384V36.1785C87.3603 37.7041 86.9588 39.3904 84.3291 39.3904C81.3982 39.3904 81.599 37.2625 81.599 36.3793V30.7384H78.5678V36.3793C78.5678 38.0253 78.6882 42 83.4458 42C85.4733 42 86.4971 41.3576 87.2197 40.3539H87.3603V42H90.4115V30.7384H87.3603ZM100.765 37.7844C100.544 38.5673 99.8416 39.2699 97.9145 39.2699C95.9272 39.2699 94.8833 38.3666 94.8833 36.3592C94.8833 34.4521 95.9272 33.4685 97.9145 33.4685C99.7814 33.4685 100.524 34.1109 100.785 34.954H103.776C103.515 32.2841 101.146 30.7184 97.9145 30.7184C94.6023 30.7184 91.9124 32.7258 91.9124 36.3592C91.9124 40.093 94.6023 42 97.9145 42C101.146 42 103.535 40.4944 103.776 37.7844H100.765ZM109.147 33.3481H112.801V30.7786H109.147V27.5266H106.076V30.7786H104.59V33.3481H106.076V37.8647C106.076 39.4907 106.076 42 109.147 42C112.198 42 112.801 41.7993 112.801 41.7993V38.8283C109.87 38.9889 109.147 39.2097 109.147 37.5837V37.3428V33.3481Z" fill="#5F27BF"/>
<path d="M31.296 88.3774V76.2818H32.9029V88.3774H31.296ZM40.3014 76.0572V77.5087C38.7808 77.382 38.0205 78.0386 38.0205 79.4785V79.7377H40.3014V81.1892H38.0205V88.3774H36.5172V81.1892H35.1348V79.7377H36.5172V79.4785C36.5172 78.3035 36.8455 77.4223 37.5021 76.8348C38.1587 76.2358 39.0918 75.9766 40.3014 76.0572ZM50.8633 88.6021C49.5616 88.6021 48.4787 88.1701 47.6148 87.3061C46.7508 86.4306 46.3188 85.3478 46.3188 84.0576C46.3188 82.7674 46.7508 81.6903 47.6148 80.8263C48.4787 79.9508 49.5616 79.5131 50.8633 79.5131C51.7157 79.5131 52.4818 79.7204 53.1615 80.1352C53.8411 80.5383 54.348 81.0855 54.682 81.7767L53.4206 82.5024C53.2018 82.0417 52.8619 81.673 52.4012 81.3966C51.9519 81.1201 51.4393 80.9818 50.8633 80.9818C49.9993 80.9818 49.2736 81.2756 48.6861 81.8631C48.1101 82.4621 47.8221 83.1936 47.8221 84.0576C47.8221 84.91 48.1101 85.6358 48.6861 86.2348C49.2736 86.8223 49.9993 87.116 50.8633 87.116C51.4393 87.116 51.9577 86.9836 52.4184 86.7186C52.8792 86.4421 53.2306 86.0735 53.4725 85.6127L54.7512 86.3557C54.371 87.0469 53.8353 87.5941 53.1442 87.9973C52.453 88.4005 51.6927 88.6021 50.8633 88.6021ZM63.7894 81.2238V79.7377H65.2927V88.3774H63.7894V86.8914C63.0521 88.0319 61.9635 88.6021 60.5236 88.6021C59.3025 88.6021 58.2715 88.1643 57.4306 87.2888C56.5781 86.4018 56.1519 85.3247 56.1519 84.0576C56.1519 82.8019 56.5781 81.7306 57.4306 80.8436C58.283 79.9566 59.314 79.5131 60.5236 79.5131C61.9635 79.5131 63.0521 80.0833 63.7894 81.2238ZM60.7136 87.1506C61.5891 87.1506 62.3206 86.8569 62.9081 86.2694C63.4956 85.6703 63.7894 84.9331 63.7894 84.0576C63.7894 83.1821 63.4956 82.4506 62.9081 81.8631C62.3206 81.2641 61.5891 80.9646 60.7136 80.9646C59.8497 80.9646 59.1239 81.2641 58.5364 81.8631C57.9489 82.4506 57.6552 83.1821 57.6552 84.0576C57.6552 84.9331 57.9489 85.6703 58.5364 86.2694C59.1239 86.8569 59.8497 87.1506 60.7136 87.1506ZM77.4196 79.5131C78.3988 79.5131 79.1821 79.8299 79.7696 80.4635C80.3686 81.097 80.6681 81.9437 80.6681 83.0035V88.3774H79.1648V83.0554C79.1648 82.3988 78.992 81.8861 78.6464 81.5175C78.3124 81.1374 77.8516 80.9473 77.2641 80.9473C76.596 80.9473 76.0718 81.1719 75.6917 81.6212C75.323 82.0589 75.1387 82.7098 75.1387 83.5738V88.3774H73.6354V83.0554C73.6354 82.3988 73.4684 81.8861 73.1343 81.5175C72.8118 81.1374 72.3683 80.9473 71.8038 80.9473C71.1472 80.9473 70.6115 81.1777 70.1968 81.6385C69.7936 82.0877 69.592 82.7328 69.592 83.5738V88.3774H68.0887V79.7377H69.592V80.8954C70.1795 79.9739 71.0377 79.5131 72.1667 79.5131C73.3301 79.5131 74.1768 80.0027 74.7067 80.9818C75.3058 80.0027 76.21 79.5131 77.4196 79.5131ZM88.0401 79.5131C89.2497 79.5131 90.2807 79.9566 91.1331 80.8436C91.9856 81.7306 92.4118 82.8019 92.4118 84.0576C92.4118 85.3247 91.9856 86.4018 91.1331 87.2888C90.2922 88.1643 89.2612 88.6021 88.0401 88.6021C86.6117 88.6021 85.5231 88.0319 84.7743 86.8914V91.8333H83.271V79.7377H84.7743V81.2238C85.5231 80.0833 86.6117 79.5131 88.0401 79.5131ZM87.85 87.1506C88.714 87.1506 89.4397 86.8569 90.0272 86.2694C90.6147 85.6703 90.9085 84.9331 90.9085 84.0576C90.9085 83.1821 90.6147 82.4506 90.0272 81.8631C89.4397 81.2641 88.714 80.9646 87.85 80.9646C86.9745 80.9646 86.243 81.2641 85.6555 81.8631C85.068 82.4506 84.7743 83.1821 84.7743 84.0576C84.7743 84.9331 85.068 85.6703 85.6555 86.2694C86.243 86.8569 86.9745 87.1506 87.85 87.1506ZM101.878 81.2238V79.7377H103.381V88.3774H101.878V86.8914C101.14 88.0319 100.052 88.6021 98.6119 88.6021C97.3908 88.6021 96.3598 88.1643 95.5189 87.2888C94.6664 86.4018 94.2402 85.3247 94.2402 84.0576C94.2402 82.8019 94.6664 81.7306 95.5189 80.8436C96.3713 79.9566 97.4023 79.5131 98.6119 79.5131C100.052 79.5131 101.14 80.0833 101.878 81.2238ZM98.802 87.1506C99.6774 87.1506 100.409 86.8569 100.996 86.2694C101.584 85.6703 101.878 84.9331 101.878 84.0576C101.878 83.1821 101.584 82.4506 100.996 81.8631C100.409 81.2641 99.6774 80.9646 98.802 80.9646C97.938 80.9646 97.2122 81.2641 96.6247 81.8631C96.0372 82.4506 95.7435 83.1821 95.7435 84.0576C95.7435 84.9331 96.0372 85.6703 96.6247 86.2694C97.2122 86.8569 97.938 87.1506 98.802 87.1506ZM106.937 78.1653C106.649 78.1653 106.407 78.0674 106.212 77.8715C106.016 77.6757 105.918 77.4396 105.918 77.1631C105.918 76.8866 106.016 76.6505 106.212 76.4546C106.407 76.2473 106.649 76.1436 106.937 76.1436C107.214 76.1436 107.45 76.2473 107.646 76.4546C107.842 76.6505 107.94 76.8866 107.94 77.1631C107.94 77.4396 107.842 77.6757 107.646 77.8715C107.45 78.0674 107.214 78.1653 106.937 78.1653ZM107.68 88.3774H106.177V79.7377H107.68V88.3774ZM117.663 81.2238V79.7377H119.149V88.0146C119.149 89.2933 118.717 90.2839 117.853 90.9866C116.978 91.7009 115.941 92.058 114.743 92.058C113.775 92.058 112.94 91.8736 112.237 91.505C111.535 91.1479 111.005 90.6295 110.648 89.9499L111.961 89.2069C112.433 90.1745 113.372 90.6583 114.777 90.6583C115.676 90.6583 116.379 90.4222 116.886 89.9499C117.404 89.4776 117.663 88.8325 117.663 88.0146V86.7877C116.903 87.9397 115.82 88.5157 114.415 88.5157C113.17 88.5157 112.128 88.0779 111.287 87.2024C110.435 86.3154 110.008 85.2499 110.008 84.0057C110.008 82.7616 110.435 81.7018 111.287 80.8263C112.128 79.9508 113.17 79.5131 114.415 79.5131C115.832 79.5131 116.914 80.0833 117.663 81.2238ZM117.663 84.0057C117.663 83.1418 117.369 82.416 116.782 81.8285C116.194 81.241 115.463 80.9473 114.587 80.9473C113.712 80.9473 112.98 81.241 112.393 81.8285C111.805 82.416 111.512 83.1418 111.512 84.0057C111.512 84.8812 111.805 85.6127 112.393 86.2002C112.98 86.7877 113.712 87.0815 114.587 87.0815C115.463 87.0815 116.194 86.7877 116.782 86.2002C117.369 85.6127 117.663 84.8812 117.663 84.0057ZM126.248 79.5131C127.261 79.5131 128.074 79.8356 128.684 80.4807C129.295 81.1143 129.6 81.9783 129.6 83.0727V88.3774H128.097V83.1591C128.097 82.4679 127.907 81.9265 127.526 81.5348C127.146 81.1431 126.622 80.9473 125.954 80.9473C125.182 80.9473 124.572 81.1892 124.122 81.673C123.673 82.1453 123.448 82.8538 123.448 83.7984V88.3774H121.945V79.7377H123.448V80.9818C124.048 80.0027 124.981 79.5131 126.248 79.5131ZM141.116 88.6021C139.814 88.6021 138.731 88.1701 137.867 87.3061C137.003 86.4306 136.571 85.3478 136.571 84.0576C136.571 82.7674 137.003 81.6903 137.867 80.8263C138.731 79.9508 139.814 79.5131 141.116 79.5131C141.968 79.5131 142.734 79.7204 143.414 80.1352C144.094 80.5383 144.601 81.0855 144.935 81.7767L143.673 82.5024C143.454 82.0417 143.115 81.673 142.654 81.3966C142.204 81.1201 141.692 80.9818 141.116 80.9818C140.252 80.9818 139.526 81.2756 138.939 81.8631C138.363 82.4621 138.075 83.1936 138.075 84.0576C138.075 84.91 138.363 85.6358 138.939 86.2348C139.526 86.8223 140.252 87.116 141.116 87.116C141.692 87.116 142.21 86.9836 142.671 86.7186C143.132 86.4421 143.483 86.0735 143.725 85.6127L145.004 86.3557C144.624 87.0469 144.088 87.5941 143.397 87.9973C142.706 88.4005 141.945 88.6021 141.116 88.6021ZM154.18 87.2888C153.305 88.1643 152.228 88.6021 150.949 88.6021C149.67 88.6021 148.593 88.1643 147.718 87.2888C146.842 86.4133 146.404 85.3363 146.404 84.0576C146.404 82.7789 146.842 81.7018 147.718 80.8263C148.593 79.9508 149.67 79.5131 150.949 79.5131C152.228 79.5131 153.305 79.9508 154.18 80.8263C155.067 81.7133 155.511 82.7904 155.511 84.0576C155.511 85.3247 155.067 86.4018 154.18 87.2888ZM150.949 87.1333C151.813 87.1333 152.539 86.8396 153.126 86.2521C153.714 85.6646 154.007 84.9331 154.007 84.0576C154.007 83.1821 153.714 82.4506 153.126 81.8631C152.539 81.2756 151.813 80.9818 150.949 80.9818C150.097 80.9818 149.377 81.2756 148.789 81.8631C148.202 82.4506 147.908 83.1821 147.908 84.0576C147.908 84.9331 148.202 85.6646 148.789 86.2521C149.377 86.8396 150.097 87.1333 150.949 87.1333ZM162.104 79.5131C163.118 79.5131 163.93 79.8356 164.54 80.4807C165.151 81.1143 165.456 81.9783 165.456 83.0727V88.3774H163.953V83.1591C163.953 82.4679 163.763 81.9265 163.383 81.5348C163.002 81.1431 162.478 80.9473 161.81 80.9473C161.038 80.9473 160.428 81.1892 159.979 81.673C159.529 82.1453 159.305 82.8538 159.305 83.7984V88.3774H157.801V79.7377H159.305V80.9818C159.904 80.0027 160.837 79.5131 162.104 79.5131ZM172.773 79.7377V81.1892H170.475V85.8719C170.475 86.2982 170.556 86.6034 170.717 86.7877C170.89 86.9605 171.149 87.0527 171.494 87.0642C171.84 87.0642 172.266 87.0527 172.773 87.0296V88.3774C171.448 88.5502 170.481 88.4408 169.87 88.0491C169.271 87.6575 168.972 86.9317 168.972 85.8719V81.1892H167.261V79.7377H168.972V77.7679L170.475 77.3186V79.7377H172.773ZM181.786 81.2238V79.7377H183.29V88.3774H181.786V86.8914C181.049 88.0319 179.96 88.6021 178.52 88.6021C177.299 88.6021 176.268 88.1643 175.427 87.2888C174.575 86.4018 174.149 85.3247 174.149 84.0576C174.149 82.8019 174.575 81.7306 175.427 80.8436C176.28 79.9566 177.311 79.5131 178.52 79.5131C179.96 79.5131 181.049 80.0833 181.786 81.2238ZM178.711 87.1506C179.586 87.1506 180.318 86.8569 180.905 86.2694C181.493 85.6703 181.786 84.9331 181.786 84.0576C181.786 83.1821 181.493 82.4506 180.905 81.8631C180.318 81.2641 179.586 80.9646 178.711 80.9646C177.847 80.9646 177.121 81.2641 176.533 81.8631C175.946 82.4506 175.652 83.1821 175.652 84.0576C175.652 84.9331 175.946 85.6703 176.533 86.2694C177.121 86.8569 177.847 87.1506 178.711 87.1506ZM186.846 78.1653C186.558 78.1653 186.316 78.0674 186.12 77.8715C185.924 77.6757 185.826 77.4396 185.826 77.1631C185.826 76.8866 185.924 76.6505 186.12 76.4546C186.316 76.2473 186.558 76.1436 186.846 76.1436C187.122 76.1436 187.359 76.2473 187.554 76.4546C187.75 76.6505 187.848 76.8866 187.848 77.1631C187.848 77.4396 187.75 77.6757 187.554 77.8715C187.359 78.0674 187.122 78.1653 186.846 78.1653ZM187.589 88.3774H186.086V79.7377H187.589V88.3774ZM194.703 79.5131C195.717 79.5131 196.529 79.8356 197.14 80.4807C197.75 81.1143 198.056 81.9783 198.056 83.0727V88.3774H196.552V83.1591C196.552 82.4679 196.362 81.9265 195.982 81.5348C195.602 81.1431 195.078 80.9473 194.41 80.9473C193.638 80.9473 193.027 81.1892 192.578 81.673C192.129 82.1453 191.904 82.8538 191.904 83.7984V88.3774H190.401V79.7377H191.904V80.9818C192.503 80.0027 193.436 79.5131 194.703 79.5131ZM201.969 82.0705C201.969 82.6234 202.539 83.0554 203.679 83.3664C204.105 83.4586 204.463 83.5565 204.75 83.6602C205.05 83.7523 205.373 83.8963 205.718 84.0921C206.075 84.288 206.346 84.5472 206.53 84.8697C206.715 85.1923 206.807 85.5724 206.807 86.0102C206.807 86.7935 206.501 87.4213 205.891 87.8936C205.28 88.3659 204.509 88.6021 203.575 88.6021C202.746 88.6021 202.026 88.4235 201.416 88.0664C200.817 87.6978 200.39 87.2024 200.137 86.5804L201.433 85.8374C201.571 86.2521 201.83 86.5804 202.21 86.8223C202.591 87.0642 203.046 87.1852 203.575 87.1852C204.094 87.1852 204.509 87.0872 204.82 86.8914C205.131 86.6956 205.286 86.4018 205.286 86.0102C205.286 85.4227 204.716 84.9964 203.575 84.7315C203.195 84.6278 202.907 84.5472 202.712 84.4896C202.516 84.432 202.245 84.3283 201.899 84.1785C201.565 84.0288 201.312 83.8733 201.139 83.712C200.966 83.5392 200.805 83.3146 200.655 83.0381C200.517 82.7501 200.448 82.4333 200.448 82.0877C200.448 81.339 200.736 80.7227 201.312 80.2388C201.899 79.755 202.631 79.5131 203.506 79.5131C204.209 79.5131 204.831 79.6744 205.373 79.9969C205.925 80.3079 206.34 80.7457 206.617 81.3102L205.355 82.0186C205.044 81.2814 204.428 80.9127 203.506 80.9127C203.069 80.9127 202.7 81.0164 202.4 81.2238C202.112 81.4311 201.969 81.7133 201.969 82.0705Z" fill="#1E1919"/>
<path d="M31.296 137.172V125.077H32.9029V137.172H31.296ZM40.3014 124.852V126.304C38.7808 126.177 38.0205 126.834 38.0205 128.273V128.533H40.3014V129.984H38.0205V137.172H36.5172V129.984H35.1348V128.533H36.5172V128.273C36.5172 127.098 36.8455 126.217 37.5021 125.63C38.1587 125.031 39.0918 124.771 40.3014 124.852ZM50.8633 137.397C49.5616 137.397 48.4787 136.965 47.6148 136.101C46.7508 135.226 46.3188 134.143 46.3188 132.853C46.3188 131.562 46.7508 130.485 47.6148 129.621C48.4787 128.746 49.5616 128.308 50.8633 128.308C51.7157 128.308 52.4818 128.515 53.1615 128.93C53.8411 129.333 54.348 129.88 54.682 130.572L53.4206 131.297C53.2018 130.837 52.8619 130.468 52.4012 130.191C51.9519 129.915 51.4393 129.777 50.8633 129.777C49.9993 129.777 49.2736 130.071 48.6861 130.658C48.1101 131.257 47.8221 131.989 47.8221 132.853C47.8221 133.705 48.1101 134.431 48.6861 135.03C49.2736 135.617 49.9993 135.911 50.8633 135.911C51.4393 135.911 51.9577 135.778 52.4184 135.514C52.8792 135.237 53.2306 134.868 53.4725 134.408L54.7512 135.151C54.371 135.842 53.8353 136.389 53.1442 136.792C52.453 137.195 51.6927 137.397 50.8633 137.397ZM63.7894 130.019V128.533H65.2927V137.172H63.7894V135.686C63.0521 136.827 61.9635 137.397 60.5236 137.397C59.3025 137.397 58.2715 136.959 57.4306 136.084C56.5781 135.197 56.1519 134.12 56.1519 132.853C56.1519 131.597 56.5781 130.526 57.4306 129.639C58.283 128.752 59.314 128.308 60.5236 128.308C61.9635 128.308 63.0521 128.878 63.7894 130.019ZM60.7136 135.946C61.5891 135.946 62.3206 135.652 62.9081 135.064C63.4956 134.465 63.7894 133.728 63.7894 132.853C63.7894 131.977 63.4956 131.246 62.9081 130.658C62.3206 130.059 61.5891 129.759 60.7136 129.759C59.8497 129.759 59.1239 130.059 58.5364 130.658C57.9489 131.246 57.6552 131.977 57.6552 132.853C57.6552 133.728 57.9489 134.465 58.5364 135.064C59.1239 135.652 59.8497 135.946 60.7136 135.946ZM77.4196 128.308C78.3988 128.308 79.1821 128.625 79.7696 129.258C80.3686 129.892 80.6681 130.739 80.6681 131.798V137.172H79.1648V131.85C79.1648 131.194 78.992 130.681 78.6464 130.312C78.3124 129.932 77.8516 129.742 77.2641 129.742C76.596 129.742 76.0718 129.967 75.6917 130.416C75.323 130.854 75.1387 131.505 75.1387 132.369V137.172H73.6354V131.85C73.6354 131.194 73.4684 130.681 73.1343 130.312C72.8118 129.932 72.3683 129.742 71.8038 129.742C71.1472 129.742 70.6115 129.973 70.1968 130.433C69.7936 130.883 69.592 131.528 69.592 132.369V137.172H68.0887V128.533H69.592V129.69C70.1795 128.769 71.0377 128.308 72.1667 128.308C73.3301 128.308 74.1768 128.798 74.7067 129.777C75.3058 128.798 76.21 128.308 77.4196 128.308ZM88.0401 128.308C89.2497 128.308 90.2807 128.752 91.1331 129.639C91.9856 130.526 92.4118 131.597 92.4118 132.853C92.4118 134.12 91.9856 135.197 91.1331 136.084C90.2922 136.959 89.2612 137.397 88.0401 137.397C86.6117 137.397 85.5231 136.827 84.7743 135.686V140.628H83.271V128.533H84.7743V130.019C85.5231 128.878 86.6117 128.308 88.0401 128.308ZM87.85 135.946C88.714 135.946 89.4397 135.652 90.0272 135.064C90.6147 134.465 90.9085 133.728 90.9085 132.853C90.9085 131.977 90.6147 131.246 90.0272 130.658C89.4397 130.059 88.714 129.759 87.85 129.759C86.9745 129.759 86.243 130.059 85.6555 130.658C85.068 131.246 84.7743 131.977 84.7743 132.853C84.7743 133.728 85.068 134.465 85.6555 135.064C86.243 135.652 86.9745 135.946 87.85 135.946ZM101.878 130.019V128.533H103.381V137.172H101.878V135.686C101.14 136.827 100.052 137.397 98.6119 137.397C97.3908 137.397 96.3598 136.959 95.5189 136.084C94.6664 135.197 94.2402 134.12 94.2402 132.853C94.2402 131.597 94.6664 130.526 95.5189 129.639C96.3713 128.752 97.4023 128.308 98.6119 128.308C100.052 128.308 101.14 128.878 101.878 130.019ZM98.802 135.946C99.6774 135.946 100.409 135.652 100.996 135.064C101.584 134.465 101.878 133.728 101.878 132.853C101.878 131.977 101.584 131.246 100.996 130.658C100.409 130.059 99.6774 129.759 98.802 129.759C97.938 129.759 97.2122 130.059 96.6247 130.658C96.0372 131.246 95.7435 131.977 95.7435 132.853C95.7435 133.728 96.0372 134.465 96.6247 135.064C97.2122 135.652 97.938 135.946 98.802 135.946ZM106.937 126.96C106.649 126.96 106.407 126.862 106.212 126.666C106.016 126.471 105.918 126.234 105.918 125.958C105.918 125.682 106.016 125.445 106.212 125.25C106.407 125.042 106.649 124.939 106.937 124.939C107.214 124.939 107.45 125.042 107.646 125.25C107.842 125.445 107.94 125.682 107.94 125.958C107.94 126.234 107.842 126.471 107.646 126.666C107.45 126.862 107.214 126.96 106.937 126.96ZM107.68 137.172H106.177V128.533H107.68V137.172ZM117.663 130.019V128.533H119.149V136.809C119.149 138.088 118.717 139.079 117.853 139.782C116.978 140.496 115.941 140.853 114.743 140.853C113.775 140.853 112.94 140.669 112.237 140.3C111.535 139.943 111.005 139.424 110.648 138.745L111.961 138.002C112.433 138.969 113.372 139.453 114.777 139.453C115.676 139.453 116.379 139.217 116.886 138.745C117.404 138.272 117.663 137.627 117.663 136.809V135.583C116.903 136.735 115.82 137.311 114.415 137.311C113.17 137.311 112.128 136.873 111.287 135.997C110.435 135.11 110.008 134.045 110.008 132.801C110.008 131.557 110.435 130.497 111.287 129.621C112.128 128.746 113.17 128.308 114.415 128.308C115.832 128.308 116.914 128.878 117.663 130.019ZM117.663 132.801C117.663 131.937 117.369 131.211 116.782 130.623C116.194 130.036 115.463 129.742 114.587 129.742C113.712 129.742 112.98 130.036 112.393 130.623C111.805 131.211 111.512 131.937 111.512 132.801C111.512 133.676 111.805 134.408 112.393 134.995C112.98 135.583 113.712 135.876 114.587 135.876C115.463 135.876 116.194 135.583 116.782 134.995C117.369 134.408 117.663 133.676 117.663 132.801ZM126.248 128.308C127.261 128.308 128.074 128.631 128.684 129.276C129.295 129.909 129.6 130.773 129.6 131.868V137.172H128.097V131.954C128.097 131.263 127.907 130.721 127.526 130.33C127.146 129.938 126.622 129.742 125.954 129.742C125.182 129.742 124.572 129.984 124.122 130.468C123.673 130.94 123.448 131.649 123.448 132.593V137.172H121.945V128.533H123.448V129.777C124.048 128.798 124.981 128.308 126.248 128.308ZM141.116 137.397C139.814 137.397 138.731 136.965 137.867 136.101C137.003 135.226 136.571 134.143 136.571 132.853C136.571 131.562 137.003 130.485 137.867 129.621C138.731 128.746 139.814 128.308 141.116 128.308C141.968 128.308 142.734 128.515 143.414 128.93C144.094 129.333 144.601 129.88 144.935 130.572L143.673 131.297C143.454 130.837 143.115 130.468 142.654 130.191C142.204 129.915 141.692 129.777 141.116 129.777C140.252 129.777 139.526 130.071 138.939 130.658C138.363 131.257 138.075 131.989 138.075 132.853C138.075 133.705 138.363 134.431 138.939 135.03C139.526 135.617 140.252 135.911 141.116 135.911C141.692 135.911 142.21 135.778 142.671 135.514C143.132 135.237 143.483 134.868 143.725 134.408L145.004 135.151C144.624 135.842 144.088 136.389 143.397 136.792C142.706 137.195 141.945 137.397 141.116 137.397ZM154.18 136.084C153.305 136.959 152.228 137.397 150.949 137.397C149.67 137.397 148.593 136.959 147.718 136.084C146.842 135.208 146.404 134.131 146.404 132.853C146.404 131.574 146.842 130.497 147.718 129.621C148.593 128.746 149.67 128.308 150.949 128.308C152.228 128.308 153.305 128.746 154.18 129.621C155.067 130.508 155.511 131.585 155.511 132.853C155.511 134.12 155.067 135.197 154.18 136.084ZM150.949 135.928C151.813 135.928 152.539 135.634 153.126 135.047C153.714 134.459 154.007 133.728 154.007 132.853C154.007 131.977 153.714 131.246 153.126 130.658C152.539 130.071 151.813 129.777 150.949 129.777C150.097 129.777 149.377 130.071 148.789 130.658C148.202 131.246 147.908 131.977 147.908 132.853C147.908 133.728 148.202 134.459 148.789 135.047C149.377 135.634 150.097 135.928 150.949 135.928ZM162.104 128.308C163.118 128.308 163.93 128.631 164.54 129.276C165.151 129.909 165.456 130.773 165.456 131.868V137.172H163.953V131.954C163.953 131.263 163.763 130.721 163.383 130.33C163.002 129.938 162.478 129.742 161.81 129.742C161.038 129.742 160.428 129.984 159.979 130.468C159.529 130.94 159.305 131.649 159.305 132.593V137.172H157.801V128.533H159.305V129.777C159.904 128.798 160.837 128.308 162.104 128.308ZM172.773 128.533V129.984H170.475V134.667C170.475 135.093 170.556 135.398 170.717 135.583C170.89 135.755 171.149 135.848 171.494 135.859C171.84 135.859 172.266 135.848 172.773 135.825V137.172C171.448 137.345 170.481 137.236 169.87 136.844C169.271 136.452 168.972 135.727 168.972 134.667V129.984H167.261V128.533H168.972V126.563L170.475 126.114V128.533H172.773ZM181.786 130.019V128.533H183.29V137.172H181.786V135.686C181.049 136.827 179.96 137.397 178.52 137.397C177.299 137.397 176.268 136.959 175.427 136.084C174.575 135.197 174.149 134.12 174.149 132.853C174.149 131.597 174.575 130.526 175.427 129.639C176.28 128.752 177.311 128.308 178.52 128.308C179.96 128.308 181.049 128.878 181.786 130.019ZM178.711 135.946C179.586 135.946 180.318 135.652 180.905 135.064C181.493 134.465 181.786 133.728 181.786 132.853C181.786 131.977 181.493 131.246 180.905 130.658C180.318 130.059 179.586 129.759 178.711 129.759C177.847 129.759 177.121 130.059 176.533 130.658C175.946 131.246 175.652 131.977 175.652 132.853C175.652 133.728 175.946 134.465 176.533 135.064C177.121 135.652 177.847 135.946 178.711 135.946ZM186.846 126.96C186.558 126.96 186.316 126.862 186.12 126.666C185.924 126.471 185.826 126.234 185.826 125.958C185.826 125.682 185.924 125.445 186.12 125.25C186.316 125.042 186.558 124.939 186.846 124.939C187.122 124.939 187.359 125.042 187.554 125.25C187.75 125.445 187.848 125.682 187.848 125.958C187.848 126.234 187.75 126.471 187.554 126.666C187.359 126.862 187.122 126.96 186.846 126.96ZM187.589 137.172H186.086V128.533H187.589V137.172ZM194.703 128.308C195.717 128.308 196.529 128.631 197.14 129.276C197.75 129.909 198.056 130.773 198.056 131.868V137.172H196.552V131.954C196.552 131.263 196.362 130.721 195.982 130.33C195.602 129.938 195.078 129.742 194.41 129.742C193.638 129.742 193.027 129.984 192.578 130.468C192.129 130.94 191.904 131.649 191.904 132.593V137.172H190.401V128.533H191.904V129.777C192.503 128.798 193.436 128.308 194.703 128.308ZM201.969 130.865C201.969 131.418 202.539 131.85 203.679 132.161C204.105 132.253 204.463 132.351 204.75 132.455C205.05 132.547 205.373 132.691 205.718 132.887C206.075 133.083 206.346 133.342 206.53 133.665C206.715 133.987 206.807 134.367 206.807 134.805C206.807 135.588 206.501 136.216 205.891 136.689C205.28 137.161 204.509 137.397 203.575 137.397C202.746 137.397 202.026 137.218 201.416 136.861C200.817 136.493 200.39 135.997 200.137 135.375L201.433 134.632C201.571 135.047 201.83 135.375 202.21 135.617C202.591 135.859 203.046 135.98 203.575 135.98C204.094 135.98 204.509 135.882 204.82 135.686C205.131 135.49 205.286 135.197 205.286 134.805C205.286 134.218 204.716 133.791 203.575 133.526C203.195 133.423 202.907 133.342 202.712 133.284C202.516 133.227 202.245 133.123 201.899 132.973C201.565 132.824 201.312 132.668 201.139 132.507C200.966 132.334 200.805 132.109 200.655 131.833C200.517 131.545 200.448 131.228 200.448 130.883C200.448 130.134 200.736 129.518 201.312 129.034C201.899 128.55 202.631 128.308 203.506 128.308C204.209 128.308 204.831 128.469 205.373 128.792C205.925 129.103 206.34 129.541 206.617 130.105L205.355 130.814C205.044 130.076 204.428 129.708 203.506 129.708C203.069 129.708 202.7 129.811 202.4 130.019C202.112 130.226 201.969 130.508 201.969 130.865Z" fill="#1E1919"/>
<path d="M340.501 79.7377V81.1892H338.202V85.8719C338.202 86.2982 338.283 86.6034 338.444 86.7877C338.617 86.9605 338.876 87.0527 339.222 87.0642C339.568 87.0642 339.994 87.0527 340.501 87.0296V88.3774C339.176 88.5502 338.208 88.4408 337.598 88.0491C336.999 87.6575 336.699 86.9317 336.699 85.8719V81.1892H334.988V79.7377H336.699V77.7679L338.202 77.3186V79.7377H340.501ZM347.101 79.5131C348.115 79.5131 348.927 79.8356 349.538 80.4807C350.148 81.1143 350.454 81.9783 350.454 83.0727V88.3774H348.95V83.1591C348.95 82.4679 348.76 81.9265 348.38 81.5348C348 81.1431 347.476 80.9473 346.808 80.9473C346.036 80.9473 345.425 81.1892 344.976 81.673C344.527 82.1453 344.302 82.8538 344.302 83.7984V88.3774H342.799V76.2818H344.302V80.9818C344.901 80.0027 345.834 79.5131 347.101 79.5131ZM361.365 84.7488H354.125C354.274 85.5091 354.626 86.1081 355.179 86.5458C355.732 86.972 356.423 87.1852 357.252 87.1852C358.393 87.1852 359.222 86.7647 359.74 85.9238L361.019 86.6495C360.167 87.9512 358.9 88.6021 357.218 88.6021C355.858 88.6021 354.741 88.1758 353.865 87.3234C353.013 86.4479 352.587 85.3593 352.587 84.0576C352.587 82.7443 353.007 81.6615 353.848 80.8091C354.689 79.9451 355.778 79.5131 357.114 79.5131C358.381 79.5131 359.412 79.9624 360.207 80.8609C361.013 81.7364 361.417 82.8077 361.417 84.0749C361.417 84.2937 361.399 84.5184 361.365 84.7488ZM357.114 80.93C356.319 80.93 355.651 81.1546 355.11 81.6039C354.58 82.0532 354.251 82.6637 354.125 83.4355H359.896C359.769 82.6407 359.452 82.0244 358.946 81.5866C358.439 81.1489 357.828 80.93 357.114 80.93ZM367.966 79.5131C368.979 79.5131 369.791 79.8356 370.402 80.4807C371.013 81.1143 371.318 81.9783 371.318 83.0727V88.3774H369.814V83.1591C369.814 82.4679 369.624 81.9265 369.244 81.5348C368.864 81.1431 368.34 80.9473 367.672 80.9473C366.9 80.9473 366.289 81.1892 365.84 81.673C365.391 82.1453 365.166 82.8538 365.166 83.7984V88.3774H363.663V79.7377H365.166V80.9818C365.765 80.0027 366.698 79.5131 367.966 79.5131Z" fill="#1E1919"/>
<path d="M340.501 128.533V129.984H338.202V134.667C338.202 135.093 338.283 135.398 338.444 135.583C338.617 135.755 338.876 135.848 339.222 135.859C339.568 135.859 339.994 135.848 340.501 135.825V137.172C339.176 137.345 338.208 137.236 337.598 136.844C336.999 136.452 336.699 135.727 336.699 134.667V129.984H334.988V128.533H336.699V126.563L338.202 126.114V128.533H340.501ZM347.101 128.308C348.115 128.308 348.927 128.631 349.538 129.276C350.148 129.909 350.454 130.773 350.454 131.868V137.172H348.95V131.954C348.95 131.263 348.76 130.721 348.38 130.33C348 129.938 347.476 129.742 346.808 129.742C346.036 129.742 345.425 129.984 344.976 130.468C344.527 130.94 344.302 131.649 344.302 132.593V137.172H342.799V125.077H344.302V129.777C344.901 128.798 345.834 128.308 347.101 128.308ZM361.365 133.544H354.125C354.274 134.304 354.626 134.903 355.179 135.341C355.732 135.767 356.423 135.98 357.252 135.98C358.393 135.98 359.222 135.56 359.74 134.719L361.019 135.444C360.167 136.746 358.9 137.397 357.218 137.397C355.858 137.397 354.741 136.971 353.865 136.118C353.013 135.243 352.587 134.154 352.587 132.853C352.587 131.539 353.007 130.456 353.848 129.604C354.689 128.74 355.778 128.308 357.114 128.308C358.381 128.308 359.412 128.757 360.207 129.656C361.013 130.531 361.417 131.603 361.417 132.87C361.417 133.089 361.399 133.313 361.365 133.544ZM357.114 129.725C356.319 129.725 355.651 129.95 355.11 130.399C354.58 130.848 354.251 131.459 354.125 132.23H359.896C359.769 131.436 359.452 130.819 358.946 130.382C358.439 129.944 357.828 129.725 357.114 129.725ZM367.966 128.308C368.979 128.308 369.791 128.631 370.402 129.276C371.013 129.909 371.318 130.773 371.318 131.868V137.172H369.814V131.954C369.814 131.263 369.624 130.721 369.244 130.33C368.864 129.938 368.34 129.742 367.672 129.742C366.9 129.742 366.289 129.984 365.84 130.468C365.391 130.94 365.166 131.649 365.166 132.593V137.172H363.663V128.533H365.166V129.777C365.765 128.798 366.698 128.308 367.966 128.308Z" fill="#1E1919"/>
<rect x="216.712" y="67.4775" width="109.831" height="31.5166" rx="3.34267" fill="white" fill-opacity="0.82" stroke="#D3C7E9" stroke-width="0.95505"/>
<rect x="380.69" y="67.4775" width="109.831" height="31.5166" rx="3.34267" fill="white" fill-opacity="0.82" stroke="#D3C7E9" stroke-width="0.95505"/>
<rect x="380.69" y="117.14" width="109.831" height="31.5166" rx="3.34267" fill="white" fill-opacity="0.82" stroke="#D3C7E9" stroke-width="0.95505"/>
<rect x="217.667" y="117.14" width="108.876" height="31.5166" rx="3.34267" fill="white" fill-opacity="0.82" stroke="#D3C7E9" stroke-width="0.95505"/>
<path d="M241.145 80.4494C241.964 80.4494 242.604 80.7311 243.065 81.2945C243.526 81.858 243.68 82.611 243.526 83.5535L242.681 88.3325H241.344L242.174 83.5996C242.277 82.9951 242.205 82.5341 241.959 82.2166C241.713 81.8887 241.329 81.7248 240.807 81.7248C240.243 81.7248 239.757 81.9143 239.347 82.2934C238.937 82.6622 238.66 83.2359 238.517 84.0145L237.764 88.3325H236.427L237.257 83.5996C237.359 82.9951 237.293 82.5341 237.057 82.2166C236.832 81.8887 236.468 81.7248 235.966 81.7248C235.403 81.7248 234.901 81.9143 234.46 82.2934C234.02 82.6724 233.733 83.2461 233.6 84.0145V83.9991L232.831 88.3325H231.494L232.847 80.6491H234.184L234.014 81.5711C234.67 80.8233 235.479 80.4494 236.442 80.4494C237.477 80.4494 238.163 80.895 238.502 81.7863C239.198 80.895 240.079 80.4494 241.145 80.4494ZM247.27 79.2508C247.024 79.2508 246.83 79.1637 246.686 78.9895C246.543 78.8154 246.492 78.6054 246.533 78.3595C246.574 78.1034 246.692 77.8882 246.886 77.7141C247.081 77.5399 247.311 77.4529 247.578 77.4529C247.824 77.4529 248.018 77.5451 248.162 77.7295C248.315 77.9036 248.372 78.1136 248.331 78.3595C248.279 78.6156 248.156 78.8307 247.962 79.0049C247.767 79.1688 247.537 79.2508 247.27 79.2508ZM244.996 88.3325L246.348 80.6491H247.685L246.333 88.3325H244.996ZM248.849 88.3325L249.663 83.661L250.816 77.1148H252.153L250.186 88.3325H248.849ZM260.369 80.6491L256.036 84.3679L259.155 88.3325H257.619L254.684 84.5523L254.023 88.3325H252.686L254.576 77.5758H255.913L254.791 83.9837L258.648 80.6491H260.369ZM270.741 80.4494C271.817 80.4494 272.672 80.854 273.307 81.6633C273.943 82.4624 274.163 83.4254 273.968 84.5523C273.774 85.6792 273.256 86.6268 272.416 87.3951C271.576 88.1532 270.577 88.5323 269.42 88.5323C268.795 88.5323 268.252 88.3889 267.791 88.102C267.34 87.8049 266.992 87.4054 266.746 86.9034L266.5 88.3325H265.163L267.053 77.5758H268.39L267.637 81.8631C268.446 80.9206 269.481 80.4494 270.741 80.4494ZM272.631 84.4294C272.765 83.6508 272.616 83.0105 272.186 82.5085C271.766 81.9963 271.166 81.7402 270.388 81.7402C269.619 81.7402 268.928 82.0014 268.313 82.5239C267.699 83.0464 267.32 83.702 267.176 84.4908C267.043 85.2694 267.192 85.9251 267.622 86.4578C268.062 86.9802 268.667 87.2415 269.435 87.2415C270.224 87.2415 270.915 86.9751 271.51 86.4424C272.114 85.8994 272.488 85.2284 272.631 84.4294ZM279.052 88.5323C277.915 88.5323 277.003 88.1379 276.317 87.349C275.63 86.5602 275.394 85.5614 275.61 84.3525C275.825 83.1642 276.388 82.2166 277.3 81.5097C278.212 80.8028 279.226 80.4494 280.343 80.4494C281.439 80.4494 282.32 80.8438 282.986 81.6326C283.652 82.4214 283.882 83.41 283.677 84.5984C283.472 85.8072 282.924 86.7651 282.033 87.472C281.142 88.1789 280.148 88.5323 279.052 88.5323ZM279.159 87.2261C279.907 87.2261 280.588 86.9802 281.203 86.4885C281.828 85.9968 282.212 85.3206 282.356 84.4601C282.499 83.6303 282.345 82.9746 281.895 82.4932C281.454 82.0014 280.865 81.7555 280.127 81.7555C279.4 81.7658 278.729 82.0117 278.114 82.4932C277.5 82.9746 277.11 83.6405 276.947 84.4908C276.803 85.3514 276.952 86.0275 277.392 86.5192C277.843 87.0007 278.432 87.2364 279.159 87.2261ZM288.177 81.9399L287.439 86.1043C287.367 86.4731 287.398 86.7395 287.531 86.9034C287.664 87.0673 287.879 87.1544 288.177 87.1646C288.484 87.1646 288.863 87.1544 289.314 87.1339L289.099 88.3325C287.961 88.4862 287.137 88.3889 286.624 88.0406C286.112 87.682 285.938 87.0366 286.102 86.1043L286.824 81.9399H285.303L285.549 80.6491H287.055L287.362 78.8973L288.776 78.4978L288.392 80.6491H290.451L290.22 81.9399H288.177ZM294.01 81.9399L293.272 86.1043C293.201 86.4731 293.231 86.7395 293.364 86.9034C293.498 87.0673 293.713 87.1544 294.01 87.1646C294.317 87.1646 294.696 87.1544 295.147 87.1339L294.932 88.3325C293.795 88.4862 292.97 88.3889 292.458 88.0406C291.946 87.682 291.771 87.0366 291.935 86.1043L292.658 81.9399H291.136L291.382 80.6491H292.888L293.195 78.8973L294.609 78.4978L294.225 80.6491H296.284L296.054 81.9399H294.01ZM296.991 88.3325L297.805 83.661L298.958 77.1148H300.295L298.328 88.3325H296.991ZM305.668 80.4494C306.826 80.4494 307.712 80.8489 308.327 81.648C308.952 82.4368 309.157 83.3895 308.941 84.5062C308.921 84.6701 308.87 84.8699 308.788 85.1055H302.364C302.364 85.7919 302.574 86.3246 302.995 86.7036C303.425 87.0827 303.993 87.2722 304.7 87.2722C305.735 87.2722 306.549 86.8932 307.144 86.1351L308.142 86.8573C307.753 87.39 307.236 87.8049 306.59 88.102C305.955 88.3889 305.274 88.5323 304.547 88.5323C303.338 88.5323 302.411 88.1276 301.765 87.3183C301.12 86.509 300.9 85.5153 301.104 84.3372C301.299 83.2205 301.827 82.2934 302.687 81.5558C303.548 80.8182 304.541 80.4494 305.668 80.4494ZM302.564 83.9223H307.681C307.712 83.1949 307.533 82.6468 307.144 82.278C306.754 81.899 306.237 81.7094 305.591 81.7094C304.874 81.7094 304.244 81.9092 303.701 82.3088C303.169 82.698 302.79 83.2359 302.564 83.9223Z" fill="#5515C2"/>
<path d="M241.545 127.326H242.881L240.991 138.083H239.654L239.854 136.976C239.045 137.847 238.015 138.282 236.766 138.282C235.669 138.282 234.804 137.862 234.169 137.022C233.544 136.182 233.334 135.199 233.538 134.072C233.743 132.894 234.261 131.956 235.091 131.26C235.92 130.553 236.858 130.199 237.903 130.199C238.538 130.199 239.106 130.343 239.608 130.63C240.11 130.916 240.489 131.321 240.746 131.844L241.545 127.326ZM235.306 136.177C235.746 136.72 236.356 136.991 237.134 136.991C237.913 136.991 238.604 136.74 239.209 136.239C239.813 135.726 240.182 135.081 240.315 134.302C240.469 133.432 240.31 132.745 239.839 132.243C239.378 131.741 238.768 131.49 238.01 131.49C237.273 131.49 236.602 131.731 235.997 132.212C235.393 132.684 235.019 133.339 234.875 134.179C234.732 134.968 234.875 135.634 235.306 136.177ZM250.131 130.399H251.468L250.116 138.083H248.779L248.963 137.068C248.297 137.878 247.421 138.282 246.335 138.282C245.434 138.282 244.748 137.995 244.276 137.422C243.815 136.848 243.667 136.08 243.831 135.117L244.66 130.399H245.997L245.183 135.04C245.07 135.675 245.147 136.162 245.413 136.5C245.68 136.838 246.12 137.007 246.735 137.007C247.391 137.007 247.964 136.802 248.456 136.392C248.948 135.972 249.265 135.332 249.409 134.471V134.487L250.131 130.399ZM256.269 138.282C255.122 138.282 254.22 137.873 253.565 137.053C252.909 136.223 252.684 135.229 252.889 134.072C253.083 132.945 253.616 132.018 254.487 131.29C255.358 130.563 256.367 130.199 257.514 130.199C258.282 130.199 258.948 130.384 259.512 130.753C260.075 131.111 260.47 131.593 260.695 132.197L259.512 132.812C259.174 131.941 258.472 131.506 257.406 131.506C256.628 131.506 255.936 131.762 255.332 132.274C254.738 132.776 254.369 133.411 254.226 134.179C254.082 134.968 254.22 135.629 254.64 136.162C255.06 136.694 255.66 136.961 256.438 136.961C256.961 136.961 257.437 136.838 257.867 136.592C258.308 136.346 258.667 136.013 258.943 135.593L260.019 136.3C259.629 136.925 259.102 137.412 258.436 137.76C257.78 138.108 257.058 138.282 256.269 138.282ZM269.145 130.399L264.812 134.118L267.931 138.083H266.394L263.459 134.302L262.799 138.083H261.462L263.352 127.326H264.689L263.567 133.734L267.424 130.399H269.145ZM269.651 138.083L270.466 133.411L271.618 126.865H272.955L270.988 138.083H269.651ZM275.763 129.001C275.517 129.001 275.322 128.914 275.179 128.74C275.035 128.565 274.984 128.355 275.025 128.109C275.066 127.853 275.184 127.638 275.379 127.464C275.573 127.29 275.804 127.203 276.07 127.203C276.316 127.203 276.511 127.295 276.654 127.479C276.808 127.654 276.864 127.864 276.823 128.109C276.772 128.366 276.649 128.581 276.454 128.755C276.26 128.919 276.029 129.001 275.763 129.001ZM273.489 138.083L274.841 130.399H276.178L274.825 138.083H273.489ZM282.459 130.199C283.36 130.199 284.041 130.486 284.502 131.06C284.974 131.634 285.127 132.402 284.963 133.365L284.134 138.083H282.797L283.611 133.442C283.724 132.807 283.647 132.32 283.381 131.982C283.114 131.644 282.674 131.475 282.059 131.475C281.403 131.475 280.83 131.685 280.338 132.105C279.846 132.515 279.529 133.15 279.385 134.01V133.995L278.663 138.083H277.326L278.678 130.399H280.015L279.831 131.413C280.497 130.604 281.373 130.199 282.459 130.199ZM294.206 130.399H295.527L294.236 137.76C294.032 138.928 293.524 139.819 292.715 140.434C291.916 141.048 290.953 141.356 289.826 141.356C289.007 141.356 288.295 141.192 287.69 140.864C287.096 140.536 286.666 140.075 286.399 139.481L287.583 138.866C287.931 139.696 288.704 140.111 289.903 140.111C290.743 140.111 291.419 139.906 291.931 139.496C292.454 139.086 292.782 138.508 292.915 137.76L293.069 136.853C292.3 137.755 291.301 138.205 290.072 138.205C288.904 138.205 288.008 137.801 287.383 136.991C286.768 136.172 286.553 135.188 286.737 134.041C286.912 132.914 287.419 131.992 288.259 131.275C289.099 130.558 290.041 130.199 291.086 130.199C291.721 130.199 292.29 130.343 292.792 130.63C293.304 130.906 293.688 131.311 293.944 131.844L294.206 130.399ZM290.379 136.915C291.117 136.915 291.778 136.689 292.362 136.239C292.946 135.778 293.325 135.173 293.499 134.425L293.576 134.026C293.668 133.247 293.473 132.627 292.992 132.166C292.51 131.705 291.916 131.475 291.209 131.475C290.472 131.475 289.795 131.721 289.181 132.212C288.566 132.694 288.197 133.339 288.074 134.149C287.941 134.937 288.09 135.598 288.52 136.131C288.961 136.653 289.58 136.915 290.379 136.915ZM299.473 138.282C298.715 138.282 298.09 138.118 297.599 137.791C297.117 137.452 296.784 136.997 296.6 136.423L297.798 135.808C297.88 136.167 298.075 136.459 298.382 136.684C298.7 136.91 299.099 137.022 299.581 137.022C300.032 137.022 300.406 136.935 300.703 136.761C301.01 136.587 301.194 136.336 301.256 136.008C301.297 135.783 301.251 135.593 301.118 135.439C300.984 135.286 300.795 135.163 300.549 135.071C300.313 134.968 300.047 134.871 299.75 134.779C299.463 134.686 299.176 134.579 298.889 134.456C298.602 134.333 298.346 134.19 298.121 134.026C297.896 133.862 297.727 133.636 297.614 133.35C297.501 133.052 297.481 132.709 297.552 132.32C297.665 131.695 297.993 131.188 298.536 130.799C299.089 130.399 299.735 130.199 300.472 130.199C301.783 130.199 302.675 130.732 303.146 131.798L301.963 132.412C301.758 131.767 301.24 131.444 300.411 131.444C300.052 131.444 299.724 131.531 299.427 131.705C299.13 131.869 298.951 132.12 298.889 132.458C298.838 132.766 298.941 133.011 299.197 133.196C299.463 133.38 299.796 133.534 300.196 133.657C300.605 133.78 301.01 133.918 301.409 134.072C301.809 134.225 302.127 134.476 302.362 134.825C302.598 135.173 302.67 135.619 302.577 136.162C302.454 136.838 302.116 137.36 301.563 137.729C301.01 138.098 300.313 138.282 299.473 138.282Z" fill="#5515C2"/>
<path d="M406.576 80.4494C407.396 80.4494 408.036 80.7311 408.497 81.2945C408.958 81.858 409.112 82.611 408.958 83.5535L408.113 88.3325H406.776L407.606 83.5996C407.708 82.9951 407.637 82.5341 407.391 82.2166C407.145 81.8887 406.761 81.7248 406.238 81.7248C405.675 81.7248 405.188 81.9143 404.778 82.2934C404.369 82.6622 404.092 83.2359 403.949 84.0145L403.196 88.3325H401.859L402.688 83.5996C402.791 82.9951 402.724 82.5341 402.489 82.2166C402.263 81.8887 401.9 81.7248 401.398 81.7248C400.834 81.7248 400.332 81.9143 399.892 82.2934C399.451 82.6724 399.164 83.2461 399.031 84.0145V83.9991L398.263 88.3325H396.926L398.278 80.6491H399.615L399.446 81.5711C400.102 80.8233 400.911 80.4494 401.874 80.4494C402.909 80.4494 403.595 80.895 403.933 81.7863C404.63 80.895 405.511 80.4494 406.576 80.4494ZM412.702 79.2508C412.456 79.2508 412.261 79.1637 412.118 78.9895C411.975 78.8154 411.923 78.6054 411.964 78.3595C412.005 78.1034 412.123 77.8882 412.318 77.7141C412.512 77.5399 412.743 77.4529 413.009 77.4529C413.255 77.4529 413.45 77.5451 413.593 77.7295C413.747 77.9036 413.803 78.1136 413.762 78.3595C413.711 78.6156 413.588 78.8307 413.393 79.0049C413.199 79.1688 412.968 79.2508 412.702 79.2508ZM410.428 88.3325L411.78 80.6491H413.117L411.765 88.3325H410.428ZM414.281 88.3325L415.095 83.661L416.247 77.1148H417.584L415.617 88.3325H414.281ZM425.801 80.6491L421.468 84.3679L424.587 88.3325H423.05L420.115 84.5523L419.455 88.3325H418.118L420.008 77.5758H421.345L420.223 83.9837L424.08 80.6491H425.801ZM436.173 80.4494C437.249 80.4494 438.104 80.854 438.739 81.6633C439.374 82.4624 439.595 83.4254 439.4 84.5523C439.205 85.6792 438.688 86.6268 437.848 87.3951C437.008 88.1532 436.009 88.5323 434.851 88.5323C434.226 88.5323 433.683 88.3889 433.222 88.102C432.772 87.8049 432.423 87.4054 432.178 86.9034L431.932 88.3325H430.595L432.485 77.5758H433.822L433.069 81.8631C433.878 80.9206 434.913 80.4494 436.173 80.4494ZM438.063 84.4294C438.196 83.6508 438.048 83.0105 437.617 82.5085C437.197 81.9963 436.598 81.7402 435.819 81.7402C435.051 81.7402 434.36 82.0014 433.745 82.5239C433.13 83.0464 432.751 83.702 432.608 84.4908C432.475 85.2694 432.623 85.9251 433.053 86.4578C433.494 86.9802 434.098 87.2415 434.867 87.2415C435.656 87.2415 436.347 86.9751 436.941 86.4424C437.546 85.8994 437.92 85.2284 438.063 84.4294ZM444.483 88.5323C443.346 88.5323 442.435 88.1379 441.748 87.349C441.062 86.5602 440.826 85.5614 441.041 84.3525C441.256 83.1642 441.82 82.2166 442.732 81.5097C443.643 80.8028 444.658 80.4494 445.774 80.4494C446.87 80.4494 447.751 80.8438 448.417 81.6326C449.083 82.4214 449.314 83.41 449.109 84.5984C448.904 85.8072 448.356 86.7651 447.465 87.472C446.573 88.1789 445.58 88.5323 444.483 88.5323ZM444.591 87.2261C445.339 87.2261 446.02 86.9802 446.635 86.4885C447.26 85.9968 447.644 85.3206 447.787 84.4601C447.931 83.6303 447.777 82.9746 447.326 82.4932C446.886 82.0014 446.297 81.7555 445.559 81.7555C444.832 81.7658 444.161 82.0117 443.546 82.4932C442.931 82.9746 442.542 83.6405 442.378 84.4908C442.235 85.3514 442.383 86.0275 442.824 86.5192C443.275 87.0007 443.864 87.2364 444.591 87.2261ZM453.608 81.9399L452.871 86.1043C452.799 86.4731 452.83 86.7395 452.963 86.9034C453.096 87.0673 453.311 87.1544 453.608 87.1646C453.915 87.1646 454.295 87.1544 454.745 87.1339L454.53 88.3325C453.393 88.4862 452.568 88.3889 452.056 88.0406C451.544 87.682 451.37 87.0366 451.534 86.1043L452.256 81.9399H450.735L450.98 80.6491H452.486L452.794 78.8973L454.207 78.4978L453.823 80.6491H455.882L455.652 81.9399H453.608ZM459.442 81.9399L458.704 86.1043C458.632 86.4731 458.663 86.7395 458.796 86.9034C458.929 87.0673 459.144 87.1544 459.442 87.1646C459.749 87.1646 460.128 87.1544 460.579 87.1339L460.364 88.3325C459.226 88.4862 458.402 88.3889 457.889 88.0406C457.377 87.682 457.203 87.0366 457.367 86.1043L458.089 81.9399H456.568L456.814 80.6491H458.32L458.627 78.8973L460.041 78.4978L459.657 80.6491H461.716L461.485 81.9399H459.442ZM462.422 88.3325L463.237 83.661L464.389 77.1148H465.726L463.759 88.3325H462.422ZM471.1 80.4494C472.258 80.4494 473.144 80.8489 473.758 81.648C474.383 82.4368 474.588 83.3895 474.373 84.5062C474.353 84.6701 474.301 84.8699 474.219 85.1055H467.796C467.796 85.7919 468.006 86.3246 468.426 86.7036C468.856 87.0827 469.425 87.2722 470.132 87.2722C471.167 87.2722 471.981 86.8932 472.575 86.1351L473.574 86.8573C473.185 87.39 472.667 87.8049 472.022 88.102C471.387 88.3889 470.706 88.5323 469.978 88.5323C468.769 88.5323 467.842 88.1276 467.197 87.3183C466.551 86.509 466.331 85.5153 466.536 84.3372C466.731 83.2205 467.258 82.2934 468.119 81.5558C468.979 80.8182 469.973 80.4494 471.1 80.4494ZM467.996 83.9223H473.113C473.144 83.1949 472.964 82.6468 472.575 82.278C472.186 81.899 471.669 81.7094 471.023 81.7094C470.306 81.7094 469.676 81.9092 469.133 82.3088C468.6 82.698 468.221 83.2359 467.996 83.9223Z" fill="#5515C2"/>
<path d="M407.857 127.326H409.194L407.304 138.083H405.967L406.167 136.976C405.357 137.847 404.328 138.282 403.078 138.282C401.982 138.282 401.116 137.862 400.481 137.022C399.856 136.182 399.646 135.199 399.851 134.072C400.056 132.894 400.573 131.956 401.403 131.26C402.233 130.553 403.17 130.199 404.215 130.199C404.85 130.199 405.419 130.343 405.921 130.63C406.423 130.916 406.802 131.321 407.058 131.844L407.857 127.326ZM401.618 136.177C402.059 136.72 402.668 136.991 403.447 136.991C404.225 136.991 404.917 136.74 405.521 136.239C406.126 135.726 406.495 135.081 406.628 134.302C406.781 133.432 406.623 132.745 406.151 132.243C405.69 131.741 405.081 131.49 404.323 131.49C403.585 131.49 402.914 131.731 402.31 132.212C401.705 132.684 401.331 133.339 401.188 134.179C401.044 134.968 401.188 135.634 401.618 136.177ZM416.443 130.399H417.78L416.428 138.083H415.091L415.276 137.068C414.61 137.878 413.734 138.282 412.648 138.282C411.746 138.282 411.06 137.995 410.589 137.422C410.128 136.848 409.979 136.08 410.143 135.117L410.973 130.399H412.31L411.495 135.04C411.383 135.675 411.46 136.162 411.726 136.5C411.992 136.838 412.433 137.007 413.047 137.007C413.703 137.007 414.277 136.802 414.769 136.392C415.26 135.972 415.578 135.332 415.721 134.471V134.487L416.443 130.399ZM422.582 138.282C421.434 138.282 420.533 137.873 419.877 137.053C419.222 136.223 418.996 135.229 419.201 134.072C419.396 132.945 419.928 132.018 420.799 131.29C421.67 130.563 422.679 130.199 423.826 130.199C424.595 130.199 425.261 130.384 425.824 130.753C426.388 131.111 426.782 131.593 427.007 132.197L425.824 132.812C425.486 131.941 424.784 131.506 423.719 131.506C422.94 131.506 422.249 131.762 421.644 132.274C421.05 132.776 420.681 133.411 420.538 134.179C420.395 134.968 420.533 135.629 420.953 136.162C421.373 136.694 421.972 136.961 422.751 136.961C423.273 136.961 423.75 136.838 424.18 136.592C424.62 136.346 424.979 136.013 425.256 135.593L426.331 136.3C425.942 136.925 425.414 137.412 424.749 137.76C424.093 138.108 423.371 138.282 422.582 138.282ZM435.458 130.399L431.124 134.118L434.244 138.083H432.707L429.772 134.302L429.111 138.083H427.774L429.664 127.326H431.001L429.879 133.734L433.736 130.399H435.458ZM435.964 138.083L436.778 133.411L437.931 126.865H439.268L437.301 138.083H435.964ZM442.075 129.001C441.829 129.001 441.635 128.914 441.491 128.74C441.348 128.565 441.297 128.355 441.338 128.109C441.379 127.853 441.497 127.638 441.691 127.464C441.886 127.29 442.116 127.203 442.383 127.203C442.629 127.203 442.823 127.295 442.967 127.479C443.12 127.654 443.177 127.864 443.136 128.109C443.084 128.366 442.962 128.581 442.767 128.755C442.572 128.919 442.342 129.001 442.075 129.001ZM439.801 138.083L441.153 130.399H442.49L441.138 138.083H439.801ZM448.771 130.199C449.673 130.199 450.354 130.486 450.815 131.06C451.286 131.634 451.44 132.402 451.276 133.365L450.446 138.083H449.109L449.924 133.442C450.036 132.807 449.959 132.32 449.693 131.982C449.427 131.644 448.986 131.475 448.372 131.475C447.716 131.475 447.142 131.685 446.65 132.105C446.159 132.515 445.841 133.15 445.698 134.01V133.995L444.975 138.083H443.639L444.991 130.399H446.328L446.143 131.413C446.809 130.604 447.685 130.199 448.771 130.199ZM460.518 130.399H461.84L460.549 137.76C460.344 138.928 459.837 139.819 459.028 140.434C458.229 141.048 457.266 141.356 456.139 141.356C455.319 141.356 454.607 141.192 454.003 140.864C453.409 140.536 452.978 140.075 452.712 139.481L453.895 138.866C454.243 139.696 455.017 140.111 456.216 140.111C457.056 140.111 457.732 139.906 458.244 139.496C458.766 139.086 459.094 138.508 459.227 137.76L459.381 136.853C458.613 137.755 457.614 138.205 456.385 138.205C455.217 138.205 454.32 137.801 453.695 136.991C453.081 136.172 452.866 135.188 453.05 134.041C453.224 132.914 453.731 131.992 454.571 131.275C455.411 130.558 456.354 130.199 457.399 130.199C458.034 130.199 458.603 130.343 459.104 130.63C459.617 130.906 460.001 131.311 460.257 131.844L460.518 130.399ZM456.692 136.915C457.43 136.915 458.09 136.689 458.674 136.239C459.258 135.778 459.637 135.173 459.811 134.425L459.888 134.026C459.98 133.247 459.786 132.627 459.304 132.166C458.823 131.705 458.229 131.475 457.522 131.475C456.784 131.475 456.108 131.721 455.493 132.212C454.879 132.694 454.51 133.339 454.387 134.149C454.254 134.937 454.402 135.598 454.833 136.131C455.273 136.653 455.893 136.915 456.692 136.915ZM465.786 138.282C465.028 138.282 464.403 138.118 463.911 137.791C463.43 137.452 463.097 136.997 462.912 136.423L464.111 135.808C464.193 136.167 464.387 136.459 464.695 136.684C465.012 136.91 465.412 137.022 465.893 137.022C466.344 137.022 466.718 136.935 467.015 136.761C467.322 136.587 467.507 136.336 467.568 136.008C467.609 135.783 467.563 135.593 467.43 135.439C467.297 135.286 467.107 135.163 466.861 135.071C466.626 134.968 466.359 134.871 466.062 134.779C465.776 134.686 465.489 134.579 465.202 134.456C464.915 134.333 464.659 134.19 464.434 134.026C464.208 133.862 464.039 133.636 463.926 133.35C463.814 133.052 463.793 132.709 463.865 132.32C463.978 131.695 464.305 131.188 464.848 130.799C465.402 130.399 466.047 130.199 466.785 130.199C468.096 130.199 468.987 130.732 469.458 131.798L468.275 132.412C468.07 131.767 467.553 131.444 466.723 131.444C466.365 131.444 466.037 131.531 465.74 131.705C465.443 131.869 465.263 132.12 465.202 132.458C465.151 132.766 465.253 133.011 465.509 133.196C465.776 133.38 466.108 133.534 466.508 133.657C466.918 133.78 467.322 133.918 467.722 134.072C468.122 134.225 468.439 134.476 468.675 134.825C468.91 135.173 468.982 135.619 468.89 136.162C468.767 136.838 468.429 137.36 467.876 137.729C467.322 138.098 466.626 138.282 465.786 138.282Z" fill="#5515C2"/>
</svg>
