<svg width="522" height="151" viewBox="0 0 522 151" fill="none" xmlns="http://www.w3.org/2000/svg">
<rect x="408" y="59.9653" width="43.8227" height="6.6398" rx="3.3199" fill="#D5CBE7"/>
<rect x="70" y="84.5337" width="43.8227" height="6.6398" rx="3.3199" fill="#D5CBE7"/>
<rect x="70" y="60.2854" width="43.8227" height="6.6398" rx="3.3199" fill="#D5CBE7"/>
<rect x="74.4746" y="34.3315" width="34.8686" height="6.6398" rx="3.3199" fill="#A296BB"/>
<rect x="412.475" y="34.3315" width="34.8686" height="6.6398" rx="3.3199" fill="#A296BB"/>
<rect x="70" y="109.101" width="43.8227" height="6.6398" rx="3.3199" fill="#D5CBE7"/>
<rect x="408" y="84.5337" width="43.8227" height="6.6398" rx="3.3199" fill="#D5CBE7"/>
<rect x="408" y="109.101" width="43.8227" height="6.6398" rx="3.3199" fill="#D5CBE7"/>
<path opacity="0.35" d="M131.496 27.5939C131.496 21.5807 136.054 16.5466 142.038 15.9514L227 7.5V143.5L142.038 135.049C136.054 134.453 131.496 129.419 131.496 123.406V27.5939Z" fill="url(#paint0_linear_1379_4734)"/>
<path opacity="0.35" d="M295.5 9L379.37 16.0938C385.427 16.6062 390.083 21.6727 390.083 27.7522V123.691C390.083 129.583 385.702 134.556 379.856 135.298L295.5 146V9Z" fill="url(#paint1_linear_1379_4734)"/>
<rect x="143.943" y="84.5337" width="43.8227" height="6.6398" rx="3.3199" fill="#995CFC"/>
<rect x="143.943" y="60.2854" width="43.8227" height="6.6398" rx="3.3199" fill="#995CFC"/>
<rect x="148.418" y="34.3315" width="34.8686" height="6.6398" rx="3.3199" fill="#FDFCFF"/>
<rect x="143.943" y="109.101" width="43.8227" height="6.6398" rx="3.3199" fill="#995CFC"/>
<rect x="333.043" y="59.9653" width="43.8227" height="6.6398" rx="3.3199" fill="#20DC98"/>
<rect x="337.518" y="34.3315" width="34.8686" height="6.6398" rx="3.3199" fill="white"/>
<rect x="333.043" y="84.5337" width="43.8227" height="6.6398" rx="3.3199" fill="#20DC98"/>
<rect x="333.043" y="109.101" width="43.8227" height="6.6398" rx="3.3199" fill="#20DC98"/>
<rect x="217.266" width="87.3643" height="151" rx="15.1" fill="url(#paint2_linear_1379_4734)"/>
<path fill-rule="evenodd" clip-rule="evenodd" d="M293.322 55.4514C293.322 55.2694 293.252 55.0949 293.127 54.9662C293.001 54.8374 292.832 54.7651 292.655 54.7651C292.478 54.7651 292.308 54.8374 292.183 54.9662C292.058 55.0949 291.987 55.2694 291.987 55.4514V56.1378C291.28 56.1378 290.601 56.427 290.1 56.9418C289.6 57.4566 289.318 58.1549 289.318 58.883C289.318 59.6111 289.6 60.3093 290.1 60.8242C290.601 61.339 291.28 61.6282 291.987 61.6282V64.3734C291.711 64.3735 291.442 64.2855 291.217 64.1217C290.991 63.9579 290.821 63.7262 290.729 63.4586C290.667 63.2901 290.544 63.1531 290.386 63.0771C290.227 63.001 290.046 62.9919 289.881 63.0518C289.717 63.1117 289.581 63.2358 289.504 63.3974C289.427 63.5589 289.415 63.745 289.471 63.9157C289.655 64.4509 289.995 64.9144 290.446 65.2422C290.897 65.57 291.435 65.746 291.987 65.7461V66.4324C291.987 66.6144 292.058 66.789 292.183 66.9177C292.308 67.0464 292.478 67.1187 292.655 67.1187C292.832 67.1187 293.001 67.0464 293.127 66.9177C293.252 66.789 293.322 66.6144 293.322 66.4324V65.7461C294.03 65.7461 294.709 65.4568 295.209 64.942C295.71 64.4272 295.991 63.7289 295.991 63.0008C295.991 62.2727 295.71 61.5745 295.209 61.0597C294.709 60.5448 294.03 60.2556 293.322 60.2556V57.5104C293.598 57.5103 293.867 57.5983 294.093 57.7621C294.318 57.9259 294.489 58.1576 294.581 58.4252C294.642 58.5937 294.765 58.7307 294.924 58.8067C295.082 58.8828 295.263 58.8919 295.428 58.832C295.593 58.7721 295.728 58.648 295.805 58.4865C295.882 58.3249 295.894 58.1388 295.839 57.9681C295.655 57.4329 295.314 56.9694 294.863 56.6416C294.413 56.3139 293.874 56.1378 293.322 56.1378V55.4514ZM291.987 57.5104C291.634 57.5104 291.294 57.655 291.044 57.9124C290.794 58.1698 290.653 58.5189 290.653 58.883C290.653 59.247 290.794 59.5962 291.044 59.8536C291.294 60.111 291.634 60.2556 291.987 60.2556V57.5104ZM293.322 61.6282V64.3734C293.676 64.3734 294.015 64.2288 294.266 63.9714C294.516 63.714 294.657 63.3649 294.657 63.0008C294.657 62.6368 294.516 62.2877 294.266 62.0302C294.015 61.7728 293.676 61.6282 293.322 61.6282Z" fill="white"/>
<path fill-rule="evenodd" clip-rule="evenodd" d="M293.322 84.805C293.322 84.6229 293.252 84.4484 293.127 84.3197C293.001 84.191 292.832 84.1187 292.655 84.1187C292.478 84.1187 292.308 84.191 292.183 84.3197C292.058 84.4484 291.987 84.6229 291.987 84.805V85.4913C291.28 85.4913 290.601 85.7805 290.1 86.2953C289.6 86.8102 289.318 87.5084 289.318 88.2365C289.318 88.9646 289.6 89.6628 290.1 90.1777C290.601 90.6925 291.28 90.9817 291.987 90.9817V93.727C291.711 93.727 291.442 93.6391 291.217 93.4752C290.991 93.3114 290.821 93.0797 290.729 92.8121C290.667 92.6437 290.544 92.5066 290.386 92.4306C290.227 92.3545 290.046 92.3454 289.881 92.4053C289.717 92.4652 289.581 92.5893 289.504 92.7509C289.427 92.9124 289.415 93.0985 289.471 93.2692C289.655 93.8045 289.995 94.2679 290.446 94.5957C290.897 94.9235 291.435 95.0995 291.987 95.0996V95.7859C291.987 95.9679 292.058 96.1425 292.183 96.2712C292.308 96.3999 292.478 96.4722 292.655 96.4722C292.832 96.4722 293.001 96.3999 293.127 96.2712C293.252 96.1425 293.322 95.9679 293.322 95.7859V95.0996C294.03 95.0996 294.709 94.8103 295.209 94.2955C295.71 93.7807 295.991 93.0824 295.991 92.3543C295.991 91.6263 295.71 90.928 295.209 90.4132C294.709 89.8983 294.03 89.6091 293.322 89.6091V86.8639C293.598 86.8638 293.867 86.9518 294.093 87.1156C294.318 87.2795 294.489 87.5111 294.581 87.7787C294.642 87.9472 294.765 88.0842 294.924 88.1603C295.082 88.2363 295.263 88.2454 295.428 88.1855C295.593 88.1256 295.728 88.0015 295.805 87.84C295.882 87.6784 295.894 87.4923 295.839 87.3216C295.655 86.7864 295.314 86.3229 294.863 85.9952C294.413 85.6674 293.874 85.4913 293.322 85.4913V84.805ZM291.987 86.8639C291.634 86.8639 291.294 87.0085 291.044 87.2659C290.794 87.5233 290.653 87.8725 290.653 88.2365C290.653 88.6005 290.794 88.9497 291.044 89.2071C291.294 89.4645 291.634 89.6091 291.987 89.6091V86.8639ZM293.322 90.9817V93.727C293.676 93.727 294.015 93.5823 294.266 93.3249C294.516 93.0675 294.657 92.7184 294.657 92.3543C294.657 91.9903 294.516 91.6412 294.266 91.3838C294.015 91.1263 293.676 90.9817 293.322 90.9817Z" fill="white"/>
<path fill-rule="evenodd" clip-rule="evenodd" d="M293.322 114.158C293.322 113.976 293.252 113.802 293.127 113.673C293.001 113.544 292.832 113.472 292.655 113.472C292.478 113.472 292.308 113.544 292.183 113.673C292.058 113.802 291.987 113.976 291.987 114.158V114.845C291.28 114.845 290.601 115.134 290.1 115.649C289.6 116.164 289.318 116.862 289.318 117.59C289.318 118.318 289.6 119.016 290.1 119.531C290.601 120.046 291.28 120.335 291.987 120.335V123.08C291.711 123.081 291.442 122.993 291.217 122.829C290.991 122.665 290.821 122.433 290.729 122.166C290.667 121.997 290.544 121.86 290.386 121.784C290.227 121.708 290.046 121.699 289.881 121.759C289.717 121.819 289.581 121.943 289.504 122.104C289.427 122.266 289.415 122.452 289.471 122.623C289.655 123.158 289.995 123.621 290.446 123.949C290.897 124.277 291.435 124.453 291.987 124.453V125.139C291.987 125.321 292.058 125.496 292.183 125.625C292.308 125.753 292.478 125.826 292.655 125.826C292.832 125.826 293.001 125.753 293.127 125.625C293.252 125.496 293.322 125.321 293.322 125.139V124.453C294.03 124.453 294.709 124.164 295.209 123.649C295.71 123.134 295.991 122.436 295.991 121.708C295.991 120.98 295.71 120.282 295.209 119.767C294.709 119.252 294.03 118.963 293.322 118.963V116.217C293.598 116.217 293.867 116.305 294.093 116.469C294.318 116.633 294.489 116.865 294.581 117.132C294.642 117.301 294.765 117.438 294.924 117.514C295.082 117.59 295.263 117.599 295.428 117.539C295.593 117.479 295.728 117.355 295.805 117.193C295.882 117.032 295.894 116.846 295.839 116.675C295.655 116.14 295.314 115.676 294.863 115.349C294.413 115.021 293.874 114.845 293.322 114.845V114.158ZM291.987 116.217C291.634 116.217 291.294 116.362 291.044 116.619C290.794 116.877 290.653 117.226 290.653 117.59C290.653 117.954 290.794 118.303 291.044 118.561C291.294 118.818 291.634 118.963 291.987 118.963V116.217ZM293.322 120.335V123.08C293.676 123.08 294.015 122.936 294.266 122.678C294.516 122.421 294.657 122.072 294.657 121.708C294.657 121.344 294.516 120.995 294.266 120.737C294.015 120.48 293.676 120.335 293.322 120.335Z" fill="white"/>
<rect x="226.973" y="56.7791" width="52.812" height="8.00181" rx="4.00091" fill="white"/>
<rect x="239.916" y="25.8867" width="42.0211" height="8.00181" rx="4.00091" fill="#B398FF"/>
<rect x="226.973" y="115.993" width="52.812" height="8.00181" rx="4.00091" fill="white"/>
<rect x="226.973" y="86.2856" width="52.812" height="8.00181" rx="4.00091" fill="white"/>
<defs>
<linearGradient id="paint0_linear_1379_4734" x1="132.075" y1="17" x2="198.932" y2="134" gradientUnits="userSpaceOnUse">
<stop stop-color="#A872FF"/>
<stop offset="1" stop-color="#6647BD"/>
</linearGradient>
<linearGradient id="paint1_linear_1379_4734" x1="322.969" y1="17" x2="389.827" y2="134" gradientUnits="userSpaceOnUse">
<stop offset="1" stop-color="#86F4DA"/>
</linearGradient>
<linearGradient id="paint2_linear_1379_4734" x1="218.013" y1="-3.92136e-07" x2="304.298" y2="151" gradientUnits="userSpaceOnUse">
<stop stop-color="#A872FF"/>
<stop offset="0.404167" stop-color="#6647BD"/>
<stop offset="0.898958" stop-color="#86F4DA"/>
</linearGradient>
</defs>
</svg>
