<svg width="522" height="248" viewBox="0 0 522 248" fill="none" xmlns="http://www.w3.org/2000/svg">
<rect x="176.117" width="173.453" height="44.426" rx="15.25" fill="#FFF7E1"/>
<path d="M221 16.8332V18.5478H217.942V27.7129H216.152V18.5478H213.079V16.8332H221ZM225.737 19.8073V21.6206C225.095 21.5801 224.534 21.7344 224.053 22.0834C223.578 22.4273 223.34 22.9989 223.34 23.798V27.7129H221.663V19.9438H223.34V21.2488C223.765 20.2878 224.564 19.8073 225.737 19.8073ZM229.018 25.6113C229.484 26.0817 230.068 26.3169 230.771 26.3169C231.479 26.3169 232.066 26.0817 232.531 25.6113C232.996 25.1358 233.229 24.5415 233.229 23.8284C233.229 23.1152 232.996 22.5234 232.531 22.053C232.066 21.5776 231.479 21.3398 230.771 21.3398C230.068 21.3398 229.484 21.5776 229.018 22.053C228.553 22.5234 228.32 23.1152 228.32 23.8284C228.32 24.5415 228.553 25.1358 229.018 25.6113ZM233.229 19.9438H234.906V27.7129H233.229V26.5976C232.597 27.4777 231.719 27.9177 230.596 27.9177C229.473 27.9177 228.533 27.5207 227.774 26.7266C227.02 25.9325 226.644 24.9639 226.644 23.8208C226.644 22.6777 227.02 21.7116 227.774 20.9226C228.533 20.1335 229.473 19.739 230.596 19.739C231.719 19.739 232.597 20.174 233.229 21.0439V19.9438ZM248.095 19.9438V27.7129H246.419V21.5599H243.839V27.7129H242.162V21.5599H239.567V27.7129H237.891V21.5599H236.707V19.9438H237.891V19.7921C237.891 18.7249 238.189 17.9131 238.786 17.3567C239.383 16.8003 240.255 16.56 241.404 16.6359V18.2519C240.18 18.1356 239.567 18.649 239.567 19.7921V19.9438H242.162V19.6328C242.162 17.5286 243.333 16.4766 245.675 16.4766C246.226 16.4766 246.8 16.5449 247.397 16.6814V18.2216C245.819 17.9889 244.785 18.0597 244.294 18.434C243.996 18.6616 243.844 19.0612 243.839 19.6328V19.9438H248.095ZM254.176 27.9177C253.007 27.9177 252.031 27.5232 251.247 26.7342C250.468 25.9451 250.079 24.974 250.079 23.8208C250.079 22.6676 250.468 21.699 251.247 20.915C252.031 20.131 253.007 19.739 254.176 19.739C254.934 19.739 255.625 19.9211 256.247 20.2852C256.869 20.6494 257.334 21.1375 257.643 21.7495L256.201 22.5841C256.024 22.2098 255.756 21.9164 255.397 21.704C255.038 21.4916 254.626 21.3854 254.161 21.3854C253.478 21.3854 252.906 21.6206 252.446 22.0909C251.986 22.5563 251.756 23.1354 251.756 23.8284C251.756 24.5213 251.986 25.103 252.446 25.5734C252.906 26.0387 253.478 26.2714 254.161 26.2714C254.616 26.2714 255.028 26.1626 255.397 25.9451C255.766 25.7276 256.045 25.4368 256.232 25.0726L257.673 25.892C257.34 26.5141 256.862 27.0073 256.239 27.3715C255.622 27.7357 254.934 27.9177 254.176 27.9177ZM265.586 21.4764C265.368 21.618 265.259 21.8203 265.259 22.0834C265.259 22.3464 265.401 22.5538 265.684 22.7055C265.968 22.8522 266.314 22.9811 266.724 23.0924C267.133 23.1986 267.546 23.3251 267.96 23.4718C268.375 23.6185 268.724 23.8663 269.007 24.2153C269.296 24.5592 269.44 24.9942 269.44 25.5203C269.44 26.2638 269.152 26.8505 268.575 27.2804C267.998 27.7053 267.3 27.9177 266.481 27.9177C265.662 27.9177 264.979 27.7584 264.432 27.4398C263.886 27.116 263.487 26.6684 263.234 26.0969L264.683 25.2547C264.951 25.9982 265.525 26.3725 266.405 26.3776C267.285 26.3776 267.725 26.0867 267.725 25.5051C267.725 25.2572 267.584 25.0575 267.3 24.9057C267.017 24.7489 266.671 24.6174 266.261 24.5112C265.851 24.3999 265.439 24.2709 265.024 24.1243C264.609 23.9776 264.258 23.7373 263.97 23.4035C263.686 23.0646 263.545 22.6372 263.545 22.1213C263.545 21.4081 263.815 20.834 264.357 20.3991C264.903 19.959 265.538 19.739 266.261 19.739C266.989 19.739 267.604 19.8831 268.105 20.1714C268.61 20.4547 268.997 20.8492 269.265 21.355L267.854 22.1516C267.586 21.5599 267.098 21.264 266.39 21.264C266.071 21.264 265.803 21.3348 265.586 21.4764ZM273.108 25.5885C273.573 26.0539 274.147 26.2865 274.83 26.2865C275.518 26.2865 276.094 26.0539 276.56 25.5885C277.025 25.1181 277.258 24.5314 277.258 23.8284C277.258 23.1253 277.025 22.5411 276.56 22.0758C276.094 21.6054 275.518 21.3702 274.83 21.3702C274.147 21.3702 273.573 21.6054 273.108 22.0758C272.642 22.5411 272.41 23.1253 272.41 23.8284C272.41 24.5314 272.642 25.1181 273.108 25.5885ZM277.743 26.7342C276.949 27.5232 275.981 27.9177 274.837 27.9177C273.694 27.9177 272.723 27.5232 271.924 26.7342C271.13 25.9451 270.733 24.9765 270.733 23.8284C270.733 22.6802 271.13 21.7116 271.924 20.9226C272.723 20.1335 273.694 19.739 274.837 19.739C275.981 19.739 276.949 20.1335 277.743 20.9226C278.537 21.7116 278.934 22.6802 278.934 23.8284C278.934 24.9765 278.537 25.9451 277.743 26.7342ZM286.153 19.9438H287.83V27.7129H286.153V26.719C285.647 27.5182 284.846 27.9177 283.748 27.9177C282.858 27.9177 282.137 27.632 281.586 27.0604C281.039 26.4889 280.766 25.7074 280.766 24.716V19.9438H282.443V24.5415C282.443 25.1181 282.6 25.5632 282.913 25.8768C283.217 26.1904 283.652 26.3472 284.218 26.3472C284.785 26.3472 285.248 26.1626 285.607 25.7934C285.971 25.4242 286.153 24.8627 286.153 24.1091V19.9438ZM294.335 19.8073V21.6206C293.693 21.5801 293.131 21.7344 292.651 22.0834C292.175 22.4273 291.938 22.9989 291.938 23.798V27.7129H290.261V19.9438H291.938V21.2488C292.362 20.2878 293.162 19.8073 294.335 19.8073ZM299.338 27.9177C298.17 27.9177 297.194 27.5232 296.41 26.7342C295.631 25.9451 295.241 24.974 295.241 23.8208C295.241 22.6676 295.631 21.699 296.41 20.915C297.194 20.131 298.17 19.739 299.338 19.739C300.097 19.739 300.787 19.9211 301.409 20.2852C302.032 20.6494 302.497 21.1375 302.805 21.7495L301.364 22.5841C301.187 22.2098 300.919 21.9164 300.56 21.704C300.201 21.4916 299.788 21.3854 299.323 21.3854C298.64 21.3854 298.069 21.6206 297.608 22.0909C297.148 22.5563 296.918 23.1354 296.918 23.8284C296.918 24.5213 297.148 25.103 297.608 25.5734C298.069 26.0387 298.64 26.2714 299.323 26.2714C299.778 26.2714 300.191 26.1626 300.56 25.9451C300.929 25.7276 301.207 25.4368 301.394 25.0726L302.836 25.892C302.502 26.5141 302.024 27.0073 301.402 27.3715C300.785 27.7357 300.097 27.9177 299.338 27.9177ZM309.463 21.7495C309.058 21.4258 308.562 21.264 307.976 21.264C307.389 21.264 306.888 21.4359 306.473 21.7799C306.064 22.1188 305.801 22.5841 305.684 23.1759H310.252C310.135 22.5436 309.872 22.0682 309.463 21.7495ZM308.188 26.3776C309.078 26.3776 309.746 26.0564 310.191 25.414L311.572 26.2183C310.803 27.3462 309.67 27.9127 308.173 27.9177C306.908 27.9177 305.887 27.5308 305.108 26.7569C304.334 25.9831 303.947 25.0119 303.947 23.8435C303.947 22.6751 304.329 21.699 305.093 20.915C305.861 20.131 306.83 19.739 307.998 19.739C309.167 19.739 310.115 20.1386 310.843 20.9377C311.577 21.7369 311.944 22.7055 311.944 23.8435C311.944 24.0206 311.923 24.2532 311.883 24.5415H305.699C305.826 25.1333 306.112 25.5885 306.557 25.9072C307.002 26.2208 307.546 26.3776 308.188 26.3776Z" fill="#8A4C0C"/>
<rect x="55" y="90" width="176.453" height="44.426" rx="15.25" fill="#E1FFE4"/>
<path d="M96.825 112.304C97.351 112.299 97.786 112.119 98.13 111.765C98.4739 111.411 98.6434 110.958 98.6383 110.407C98.6434 109.856 98.4739 109.403 98.13 109.049C97.786 108.695 97.351 108.518 96.825 108.518H94.602V112.304H96.825ZM96.825 106.833C97.8518 106.833 98.7091 107.177 99.397 107.865C100.085 108.553 100.429 109.398 100.429 110.399C100.429 111.411 100.085 112.261 99.397 112.949C98.7091 113.636 97.8518 113.98 96.825 113.98H94.602V117.713H92.8115V106.833H96.825ZM103.732 115.612C104.198 116.082 104.782 116.317 105.485 116.317C106.193 116.317 106.78 116.082 107.245 115.612C107.711 115.136 107.943 114.542 107.943 113.829C107.943 113.115 107.711 112.524 107.245 112.053C106.78 111.578 106.193 111.34 105.485 111.34C104.782 111.34 104.198 111.578 103.732 112.053C103.267 112.524 103.034 113.115 103.034 113.829C103.034 114.542 103.267 115.136 103.732 115.612ZM107.943 109.944H109.62V117.713H107.943V116.598C107.311 117.478 106.433 117.918 105.311 117.918C104.188 117.918 103.247 117.521 102.488 116.727C101.735 115.933 101.358 114.964 101.358 113.821C101.358 112.678 101.735 111.712 102.488 110.923C103.247 110.134 104.188 109.739 105.311 109.739C106.433 109.739 107.311 110.174 107.943 111.044V109.944ZM112.044 117.713V109.944H113.72V117.713H112.044ZM113.637 108.457C113.424 108.669 113.174 108.776 112.886 108.776C112.597 108.776 112.345 108.669 112.127 108.457C111.915 108.245 111.808 107.994 111.808 107.706C111.808 107.418 111.912 107.167 112.119 106.955C112.327 106.742 112.582 106.636 112.886 106.636C113.189 106.636 113.442 106.742 113.644 106.955C113.852 107.167 113.955 107.418 113.955 107.706C113.955 107.994 113.849 108.245 113.637 108.457ZM119.831 116.317C120.539 116.317 121.126 116.079 121.591 115.604C122.057 115.129 122.289 114.537 122.289 113.829C122.289 113.115 122.057 112.524 121.591 112.053C121.126 111.578 120.539 111.34 119.831 111.34C119.123 111.34 118.539 111.578 118.079 112.053C117.613 112.529 117.381 113.12 117.381 113.829C117.381 114.537 117.613 115.129 118.079 115.604C118.544 116.079 119.128 116.317 119.831 116.317ZM122.289 106.833H123.966V117.713H122.289V116.598C121.657 117.478 120.78 117.918 119.657 117.918C118.534 117.918 117.593 117.521 116.834 116.727C116.081 115.933 115.704 114.964 115.704 113.821C115.704 112.678 116.081 111.712 116.834 110.923C117.593 110.134 118.534 109.739 119.657 109.739C120.78 109.739 121.657 110.174 122.289 111.044V106.833ZM126.807 119.268H125.957L132.171 105.286H133.028L126.807 119.268ZM137.478 115.065C138.221 115.804 139.137 116.173 140.224 116.173C141.311 116.173 142.224 115.804 142.963 115.065C143.706 114.322 144.078 113.391 144.078 112.273C144.078 111.155 143.706 110.227 142.963 109.489C142.224 108.745 141.311 108.374 140.224 108.374C139.137 108.374 138.221 108.745 137.478 109.489C136.739 110.227 136.37 111.155 136.37 112.273C136.37 113.391 136.739 114.322 137.478 115.065ZM144.222 116.279C143.13 117.372 141.797 117.918 140.224 117.918C138.651 117.918 137.318 117.372 136.226 116.279C135.133 115.182 134.587 113.846 134.587 112.273C134.587 110.7 135.133 109.367 136.226 108.275C137.318 107.182 138.651 106.636 140.224 106.636C141.797 106.636 143.13 107.182 144.222 108.275C145.32 109.367 145.869 110.7 145.869 112.273C145.869 113.846 145.32 115.182 144.222 116.279ZM151.926 109.808V111.621C151.284 111.58 150.723 111.735 150.242 112.084C149.767 112.428 149.529 112.999 149.529 113.798V117.713H147.852V109.944H149.529V111.249C149.954 110.288 150.753 109.808 151.926 109.808ZM155.215 115.49C155.685 115.955 156.272 116.188 156.975 116.188C157.683 116.188 158.272 115.955 158.743 115.49C159.213 115.025 159.448 114.446 159.448 113.753C159.448 113.06 159.213 112.481 158.743 112.015C158.272 111.545 157.683 111.31 156.975 111.31C156.272 111.31 155.685 111.545 155.215 112.015C154.745 112.481 154.509 113.06 154.509 113.753C154.509 114.446 154.745 115.025 155.215 115.49ZM159.448 109.944H161.095V117.357C161.095 118.535 160.705 119.44 159.926 120.073C159.153 120.705 158.212 121.021 157.104 121.021C155.314 121.021 154.087 120.394 153.424 119.139L154.866 118.305C155.271 119.104 156.027 119.504 157.134 119.504C157.858 119.504 158.424 119.314 158.834 118.935C159.244 118.555 159.448 118.029 159.448 117.357V116.408C158.816 117.308 157.934 117.759 156.801 117.759C155.668 117.759 154.722 117.369 153.963 116.59C153.209 115.806 152.833 114.86 152.833 113.753C152.833 112.645 153.209 111.699 153.963 110.915C154.722 110.131 155.668 109.739 156.801 109.739C157.934 109.739 158.816 110.192 159.448 111.097V109.944ZM165.461 115.612C165.926 116.082 166.51 116.317 167.213 116.317C167.921 116.317 168.508 116.082 168.973 115.612C169.439 115.136 169.671 114.542 169.671 113.829C169.671 113.115 169.439 112.524 168.973 112.053C168.508 111.578 167.921 111.34 167.213 111.34C166.51 111.34 165.926 111.578 165.461 112.053C164.995 112.524 164.763 113.115 164.763 113.829C164.763 114.542 164.995 115.136 165.461 115.612ZM169.671 109.944H171.348V117.713H169.671V116.598C169.039 117.478 168.162 117.918 167.039 117.918C165.916 117.918 164.975 117.521 164.216 116.727C163.463 115.933 163.086 114.964 163.086 113.821C163.086 112.678 163.463 111.712 164.216 110.923C164.975 110.134 165.916 109.739 167.039 109.739C168.162 109.739 169.039 110.174 169.671 111.044V109.944ZM177.861 109.739C178.751 109.739 179.47 110.025 180.016 110.597C180.567 111.168 180.843 111.95 180.843 112.941V117.713H179.166V113.115C179.166 112.534 179.009 112.089 178.696 111.78C178.387 111.467 177.95 111.31 177.383 111.31C176.817 111.31 176.351 111.494 175.987 111.864C175.628 112.233 175.448 112.794 175.448 113.548V117.713H173.772V109.944H175.448V110.938C175.959 110.139 176.764 109.739 177.861 109.739ZM183.115 117.713V109.944H184.791V117.713H183.115ZM184.708 108.457C184.495 108.669 184.245 108.776 183.957 108.776C183.669 108.776 183.416 108.669 183.198 108.457C182.986 108.245 182.879 107.994 182.879 107.706C182.879 107.418 182.983 107.167 183.191 106.955C183.398 106.742 183.653 106.636 183.957 106.636C184.26 106.636 184.513 106.742 184.716 106.955C184.923 107.167 185.027 107.418 185.027 107.706C185.027 107.994 184.92 108.245 184.708 108.457ZM190.872 117.918C189.703 117.918 188.727 117.523 187.943 116.734C187.164 115.945 186.775 114.974 186.775 113.821C186.775 112.668 187.164 111.699 187.943 110.915C188.727 110.131 189.703 109.739 190.872 109.739C191.631 109.739 192.321 109.921 192.943 110.285C193.565 110.65 194.031 111.138 194.339 111.75L192.898 112.584C192.721 112.21 192.453 111.917 192.093 111.704C191.734 111.492 191.322 111.386 190.857 111.386C190.174 111.386 189.602 111.621 189.142 112.091C188.682 112.557 188.452 113.136 188.452 113.829C188.452 114.522 188.682 115.103 189.142 115.574C189.602 116.039 190.174 116.272 190.857 116.272C191.312 116.272 191.724 116.163 192.093 115.945C192.463 115.728 192.741 115.437 192.928 115.073L194.369 115.892C194.036 116.514 193.558 117.008 192.936 117.372C192.318 117.736 191.631 117.918 190.872 117.918Z" fill="#149220"/>
<g filter="url(#filter0_d_1379_4723)">
<rect x="307" y="134" width="159.453" height="44.426" rx="15.25" fill="#F2F4FF" fill-opacity="0.8" shape-rendering="crispEdges"/>
<path d="M355.228 150.833V161.713H353.438V153.959L350.13 159.429H349.91L346.602 153.944V161.713H344.811V150.833H346.739L350.016 156.273L353.316 150.833H355.228ZM362.834 155.75C362.429 155.426 361.934 155.264 361.347 155.264C360.76 155.264 360.259 155.436 359.845 155.78C359.435 156.119 359.172 156.584 359.056 157.176H363.623C363.507 156.544 363.244 156.068 362.834 155.75ZM361.559 160.378C362.449 160.378 363.117 160.056 363.562 159.414L364.943 160.218C364.174 161.346 363.041 161.913 361.544 161.918C360.28 161.918 359.258 161.531 358.479 160.757C357.705 159.983 357.318 159.012 357.318 157.844C357.318 156.675 357.7 155.699 358.464 154.915C359.233 154.131 360.201 153.739 361.37 153.739C362.538 153.739 363.486 154.139 364.215 154.938C364.948 155.737 365.315 156.705 365.315 157.844C365.315 158.021 365.295 158.253 365.254 158.542H359.071C359.197 159.133 359.483 159.589 359.928 159.907C360.373 160.221 360.917 160.378 361.559 160.378ZM370.91 160.317C371.618 160.317 372.205 160.079 372.67 159.604C373.135 159.128 373.368 158.536 373.368 157.828C373.368 157.115 373.135 156.523 372.67 156.053C372.205 155.578 371.618 155.34 370.91 155.34C370.202 155.34 369.617 155.578 369.157 156.053C368.692 156.528 368.459 157.12 368.459 157.828C368.459 158.536 368.692 159.128 369.157 159.604C369.623 160.079 370.207 160.317 370.91 160.317ZM373.368 150.833H375.045V161.713H373.368V160.598C372.736 161.478 371.858 161.918 370.735 161.918C369.612 161.918 368.672 161.521 367.913 160.727C367.159 159.932 366.782 158.964 366.782 157.821C366.782 156.678 367.159 155.712 367.913 154.923C368.672 154.134 369.612 153.739 370.735 153.739C371.858 153.739 372.736 154.174 373.368 155.044V150.833ZM377.468 161.713V153.944H379.145V161.713H377.468ZM379.062 152.457C378.849 152.669 378.599 152.775 378.31 152.775C378.022 152.775 377.769 152.669 377.552 152.457C377.339 152.244 377.233 151.994 377.233 151.706C377.233 151.417 377.337 151.167 377.544 150.955C377.751 150.742 378.007 150.636 378.31 150.636C378.614 150.636 378.867 150.742 379.069 150.955C379.276 151.167 379.38 151.417 379.38 151.706C379.38 151.994 379.274 152.244 379.062 152.457ZM383.503 159.611C383.969 160.082 384.553 160.317 385.256 160.317C385.964 160.317 386.551 160.082 387.016 159.611C387.481 159.136 387.714 158.542 387.714 157.828C387.714 157.115 387.481 156.523 387.016 156.053C386.551 155.578 385.964 155.34 385.256 155.34C384.553 155.34 383.969 155.578 383.503 156.053C383.038 156.523 382.805 157.115 382.805 157.828C382.805 158.542 383.038 159.136 383.503 159.611ZM387.714 153.944H389.391V161.713H387.714V160.598C387.082 161.478 386.204 161.918 385.081 161.918C383.958 161.918 383.018 161.521 382.259 160.727C381.505 159.932 381.129 158.964 381.129 157.821C381.129 156.678 381.505 155.712 382.259 154.923C383.018 154.134 383.958 153.739 385.081 153.739C386.204 153.739 387.082 154.174 387.714 155.044V153.944ZM400.497 155.56H398.57V159.293C398.57 159.611 398.643 159.841 398.79 159.983C398.937 160.12 399.152 160.195 399.435 160.211C399.718 160.226 400.072 160.223 400.497 160.203V161.713C399.212 161.87 398.289 161.758 397.728 161.379C397.172 161 396.893 160.304 396.893 159.293V155.56H395.467V153.944H396.893V152.267L398.57 151.766V153.944H400.497V155.56ZM407.875 153.944H409.666L406.684 161.963C405.94 163.971 404.676 164.925 402.89 164.824V163.253C403.416 163.283 403.839 163.172 404.157 162.919C404.481 162.666 404.747 162.269 404.954 161.728L405.03 161.576L401.737 153.944H403.573L405.887 159.581L407.875 153.944ZM415.314 160.317C416.017 160.317 416.601 160.079 417.066 159.604C417.532 159.128 417.764 158.536 417.764 157.828C417.764 157.115 417.532 156.523 417.066 156.053C416.601 155.578 416.017 155.34 415.314 155.34C414.605 155.34 414.019 155.578 413.553 156.053C413.088 156.528 412.855 157.12 412.855 157.828C412.855 158.536 413.088 159.128 413.553 159.604C414.019 160.079 414.605 160.317 415.314 160.317ZM412.855 155.059C413.493 154.179 414.373 153.739 415.496 153.739C416.619 153.739 417.559 154.136 418.318 154.93C419.077 155.724 419.454 156.693 419.448 157.836C419.448 158.979 419.069 159.945 418.31 160.734C417.557 161.523 416.619 161.918 415.496 161.918C414.373 161.918 413.493 161.483 412.855 160.613V164.824H411.179V153.944H412.855V155.059ZM426.515 155.75C426.111 155.426 425.615 155.264 425.028 155.264C424.442 155.264 423.941 155.436 423.526 155.78C423.116 156.119 422.853 156.584 422.737 157.176H427.304C427.188 156.544 426.925 156.068 426.515 155.75ZM425.241 160.378C426.131 160.378 426.799 160.056 427.244 159.414L428.624 160.218C427.856 161.346 426.723 161.913 425.225 161.918C423.961 161.918 422.939 161.531 422.16 160.757C421.386 159.983 421 159.012 421 157.844C421 156.675 421.381 155.699 422.145 154.915C422.914 154.131 423.883 153.739 425.051 153.739C426.219 153.739 427.168 154.139 427.896 154.938C428.63 155.737 428.996 156.705 428.996 157.844C428.996 158.021 428.976 158.253 428.936 158.542H422.752C422.879 159.133 423.164 159.589 423.609 159.907C424.055 160.221 424.598 160.378 425.241 160.378Z" fill="#3A52C2"/>
<rect x="307.5" y="134.5" width="158.453" height="43.426" rx="14.75" stroke="#E2E6F8" shape-rendering="crispEdges"/>
</g>
<rect x="127" y="203" width="153.453" height="44.426" rx="15.25" fill="#F7E7FF"/>
<path d="M169.955 230.918C168.317 230.918 166.959 230.377 165.881 229.294C164.809 228.212 164.273 226.874 164.273 225.281C164.273 223.682 164.811 222.342 165.889 221.26C166.966 220.177 168.322 219.636 169.955 219.636C170.942 219.636 171.852 219.869 172.687 220.334C173.521 220.799 174.171 221.431 174.637 222.231L173.081 223.134C172.793 222.597 172.371 222.17 171.814 221.851C171.258 221.533 170.638 221.373 169.955 221.373C168.797 221.373 167.856 221.743 167.133 222.481C166.415 223.214 166.056 224.145 166.056 225.273C166.056 226.401 166.415 227.334 167.133 228.073C167.856 228.806 168.797 229.173 169.955 229.173C170.638 229.173 171.26 229.016 171.822 228.702C172.383 228.384 172.803 227.956 173.081 227.42L174.637 228.308C174.181 229.107 173.537 229.742 172.702 230.212C171.867 230.683 170.952 230.918 169.955 230.918ZM178.403 228.611C178.868 229.082 179.453 229.317 180.156 229.317C180.864 229.317 181.451 229.082 181.916 228.611C182.381 228.136 182.614 227.542 182.614 226.828C182.614 226.115 182.381 225.523 181.916 225.053C181.451 224.578 180.864 224.34 180.156 224.34C179.453 224.34 178.868 224.578 178.403 225.053C177.938 225.523 177.705 226.115 177.705 226.828C177.705 227.542 177.938 228.136 178.403 228.611ZM182.614 222.944H184.291V230.713H182.614V229.598C181.982 230.478 181.104 230.918 179.981 230.918C178.858 230.918 177.918 230.521 177.159 229.727C176.405 228.932 176.028 227.964 176.028 226.821C176.028 225.678 176.405 224.712 177.159 223.923C177.918 223.134 178.858 222.739 179.981 222.739C181.104 222.739 181.982 223.174 182.614 224.044V222.944ZM195.196 222.739C196.082 222.739 196.792 223.025 197.328 223.596C197.864 224.168 198.133 224.934 198.133 225.895V230.713H196.456V226.001C196.456 225.465 196.322 225.05 196.054 224.757C195.791 224.459 195.411 224.309 194.916 224.309C194.42 224.309 194.02 224.481 193.717 224.825C193.413 225.169 193.259 225.683 193.254 226.366V230.713H191.577V226.001C191.577 225.465 191.451 225.05 191.198 224.757C190.945 224.459 190.576 224.309 190.09 224.309C189.605 224.309 189.2 224.484 188.876 224.833C188.553 225.182 188.391 225.693 188.391 226.366V230.713H186.714V222.944H188.391V223.877C188.887 223.118 189.63 222.739 190.621 222.739C191.613 222.739 192.346 223.149 192.822 223.968C193.338 223.149 194.129 222.739 195.196 222.739ZM204.532 229.317C205.235 229.317 205.819 229.079 206.284 228.604C206.75 228.128 206.982 227.536 206.982 226.828C206.982 226.115 206.75 225.523 206.284 225.053C205.819 224.578 205.235 224.34 204.532 224.34C203.824 224.34 203.237 224.578 202.772 225.053C202.306 225.528 202.074 226.12 202.074 226.828C202.074 227.536 202.306 228.128 202.772 228.604C203.237 229.079 203.824 229.317 204.532 229.317ZM202.074 224.059C202.711 223.179 203.591 222.739 204.714 222.739C205.837 222.739 206.777 223.136 207.536 223.93C208.295 224.724 208.672 225.693 208.667 226.836C208.667 227.979 208.287 228.945 207.529 229.734C206.775 230.523 205.837 230.918 204.714 230.918C203.591 230.918 202.711 230.483 202.074 229.613V233.824H200.397V222.944H202.074V224.059ZM212.592 228.611C213.058 229.082 213.642 229.317 214.345 229.317C215.053 229.317 215.64 229.082 216.105 228.611C216.571 228.136 216.803 227.542 216.803 226.828C216.803 226.115 216.571 225.523 216.105 225.053C215.64 224.578 215.053 224.34 214.345 224.34C213.642 224.34 213.058 224.578 212.592 225.053C212.127 225.523 211.894 226.115 211.894 226.828C211.894 227.542 212.127 228.136 212.592 228.611ZM216.803 222.944H218.48V230.713H216.803V229.598C216.171 230.478 215.293 230.918 214.171 230.918C213.048 230.918 212.107 230.521 211.348 229.727C210.595 228.932 210.218 227.964 210.218 226.821C210.218 225.678 210.595 224.712 211.348 223.923C212.107 223.134 213.048 222.739 214.171 222.739C215.293 222.739 216.171 223.174 216.803 224.044V222.944ZM220.903 230.713V222.944H222.58V230.713H220.903ZM222.497 221.457C222.284 221.669 222.034 221.775 221.746 221.775C221.457 221.775 221.204 221.669 220.987 221.457C220.775 221.244 220.668 220.994 220.668 220.706C220.668 220.417 220.772 220.167 220.979 219.955C221.187 219.742 221.442 219.636 221.746 219.636C222.049 219.636 222.302 219.742 222.504 219.955C222.712 220.167 222.815 220.417 222.815 220.706C222.815 220.994 222.709 221.244 222.497 221.457ZM226.946 228.49C227.416 228.955 228.003 229.188 228.706 229.188C229.414 229.188 230.004 228.955 230.474 228.49C230.944 228.025 231.18 227.445 231.18 226.752C231.18 226.06 230.944 225.48 230.474 225.015C230.004 224.545 229.414 224.309 228.706 224.309C228.003 224.309 227.416 224.545 226.946 225.015C226.476 225.48 226.24 226.06 226.24 226.752C226.24 227.445 226.476 228.025 226.946 228.49ZM231.18 222.944H232.826V230.356C232.826 231.535 232.436 232.44 231.658 233.072C230.884 233.705 229.943 234.021 228.835 234.021C227.045 234.021 225.818 233.394 225.156 232.139L226.597 231.305C227.002 232.104 227.758 232.503 228.866 232.503C229.589 232.503 230.155 232.314 230.565 231.934C230.975 231.555 231.18 231.029 231.18 230.356V229.408C230.547 230.308 229.665 230.758 228.532 230.758C227.399 230.758 226.453 230.369 225.694 229.59C224.941 228.806 224.564 227.86 224.564 226.752C224.564 225.645 224.941 224.699 225.694 223.915C226.453 223.131 227.399 222.739 228.532 222.739C229.665 222.739 230.547 223.192 231.18 224.097V222.944ZM239.339 222.739C240.229 222.739 240.947 223.025 241.494 223.596C242.045 224.168 242.321 224.949 242.321 225.941V230.713H240.644V226.115C240.644 225.534 240.487 225.088 240.173 224.78C239.865 224.466 239.427 224.309 238.861 224.309C238.294 224.309 237.829 224.494 237.465 224.863C237.106 225.233 236.926 225.794 236.926 226.548V230.713H235.25V222.944H236.926V223.938C237.437 223.139 238.241 222.739 239.339 222.739Z" fill="#8028AC"/>
<g filter="url(#filter1_d_1379_4723)">
<path d="M432.29 170.202C432.086 170.033 431.837 169.926 431.573 169.893C431.31 169.86 431.043 169.903 430.803 170.016C430.562 170.13 430.36 170.309 430.217 170.533C430.075 170.757 430 171.017 430 171.283V190.88C430 192.178 431.61 192.777 432.458 191.797L437.392 186.095C437.589 185.867 437.833 185.685 438.107 185.559C438.381 185.434 438.678 185.37 438.98 185.37H446.808C448.122 185.37 448.712 183.723 447.699 182.889L432.29 170.202Z" fill="#2C2140"/>
</g>
<defs>
<filter id="filter0_d_1379_4723" x="277" y="118" width="219.453" height="104.426" filterUnits="userSpaceOnUse" color-interpolation-filters="sRGB">
<feFlood flood-opacity="0" result="BackgroundImageFix"/>
<feColorMatrix in="SourceAlpha" type="matrix" values="0 0 0 0 0 0 0 0 0 0 0 0 0 0 0 0 0 0 127 0" result="hardAlpha"/>
<feOffset dy="14"/>
<feGaussianBlur stdDeviation="15"/>
<feComposite in2="hardAlpha" operator="out"/>
<feColorMatrix type="matrix" values="0 0 0 0 0.725698 0 0 0 0 0.750212 0 0 0 0 0.970833 0 0 0 0.4 0"/>
<feBlend mode="normal" in2="BackgroundImageFix" result="effect1_dropShadow_1379_4723"/>
<feBlend mode="normal" in="SourceGraphic" in2="effect1_dropShadow_1379_4723" result="shape"/>
</filter>
<filter id="filter1_d_1379_4723" x="422.837" y="167.929" width="32.5365" height="36.7267" filterUnits="userSpaceOnUse" color-interpolation-filters="sRGB">
<feFlood flood-opacity="0" result="BackgroundImageFix"/>
<feColorMatrix in="SourceAlpha" type="matrix" values="0 0 0 0 0 0 0 0 0 0 0 0 0 0 0 0 0 0 127 0" result="hardAlpha"/>
<feOffset dy="5.2093"/>
<feGaussianBlur stdDeviation="3.5814"/>
<feComposite in2="hardAlpha" operator="out"/>
<feColorMatrix type="matrix" values="0 0 0 0 0 0 0 0 0 0 0 0 0 0 0 0 0 0 0.25 0"/>
<feBlend mode="normal" in2="BackgroundImageFix" result="effect1_dropShadow_1379_4723"/>
<feBlend mode="normal" in="SourceGraphic" in2="effect1_dropShadow_1379_4723" result="shape"/>
</filter>
</defs>
</svg>
