<svg width="88" height="236" viewBox="0 0 88 236" fill="none" xmlns="http://www.w3.org/2000/svg">
<path d="M10.322 227.364C7.58333 227.364 5.32133 226.454 3.536 224.634C1.75067 222.814 0.858 220.569 0.858 217.9C0.858 215.213 1.75067 212.969 3.536 211.166C5.32133 209.346 7.58333 208.436 10.322 208.436C11.9687 208.436 13.4853 208.826 14.872 209.606C16.276 210.369 17.368 211.409 18.148 212.726L15.054 214.52C14.6033 213.705 13.962 213.073 13.13 212.622C12.298 212.154 11.362 211.92 10.322 211.92C8.554 211.92 7.124 212.475 6.032 213.584C4.95733 214.693 4.42 216.132 4.42 217.9C4.42 219.651 4.95733 221.081 6.032 222.19C7.124 223.299 8.554 223.854 10.322 223.854C11.362 223.854 12.298 223.629 13.13 223.178C13.9793 222.71 14.6207 222.077 15.054 221.28L18.148 223.074C17.368 224.391 16.2847 225.44 14.898 226.22C13.5113 226.983 11.986 227.364 10.322 227.364ZM31.6083 225.388C30.2736 226.705 28.6443 227.364 26.7203 227.364C24.7963 227.364 23.1669 226.705 21.8323 225.388C20.5149 224.053 19.8563 222.424 19.8563 220.5C19.8563 218.576 20.5149 216.955 21.8323 215.638C23.1669 214.303 24.7963 213.636 26.7203 213.636C28.6443 213.636 30.2736 214.303 31.6083 215.638C32.9429 216.955 33.6103 218.576 33.6103 220.5C33.6103 222.424 32.9429 224.053 31.6083 225.388ZM24.1983 223.074C24.8743 223.75 25.7149 224.088 26.7203 224.088C27.7256 224.088 28.5663 223.75 29.2423 223.074C29.9183 222.398 30.2563 221.54 30.2563 220.5C30.2563 219.46 29.9183 218.602 29.2423 217.926C28.5663 217.25 27.7256 216.912 26.7203 216.912C25.7149 216.912 24.8743 217.25 24.1983 217.926C23.5396 218.602 23.2103 219.46 23.2103 220.5C23.2103 221.54 23.5396 222.398 24.1983 223.074ZM36.2298 227V208.02H39.5838V227H36.2298ZM42.9136 227V208.02H46.2676V227H42.9136ZM52.4314 221.878C52.8821 223.507 54.1041 224.322 56.0974 224.322C57.3801 224.322 58.3508 223.889 59.0094 223.022L61.7134 224.582C60.4308 226.437 58.5414 227.364 56.0454 227.364C53.8961 227.364 52.1714 226.714 50.8714 225.414C49.5714 224.114 48.9214 222.476 48.9214 220.5C48.9214 218.541 49.5628 216.912 50.8454 215.612C52.1281 214.295 53.7748 213.636 55.7854 213.636C57.6921 213.636 59.2608 214.295 60.4914 215.612C61.7394 216.929 62.3634 218.559 62.3634 220.5C62.3634 220.933 62.3201 221.393 62.2334 221.878H52.4314ZM52.3794 219.278H59.0094C58.8188 218.394 58.4201 217.735 57.8134 217.302C57.2241 216.869 56.5481 216.652 55.7854 216.652C54.8841 216.652 54.1388 216.886 53.5494 217.354C52.9601 217.805 52.5701 218.446 52.3794 219.278ZM71.0513 227.364C69.0926 227.364 67.4546 226.705 66.1373 225.388C64.8373 224.071 64.1873 222.441 64.1873 220.5C64.1873 218.559 64.8373 216.929 66.1373 215.612C67.4546 214.295 69.0926 213.636 71.0513 213.636C72.3166 213.636 73.4693 213.939 74.5093 214.546C75.5493 215.153 76.338 215.967 76.8753 216.99L73.9893 218.68C73.7293 218.143 73.3306 217.718 72.7933 217.406C72.2733 217.094 71.684 216.938 71.0253 216.938C70.02 216.938 69.188 217.276 68.5293 217.952C67.8706 218.611 67.5413 219.46 67.5413 220.5C67.5413 221.523 67.8706 222.372 68.5293 223.048C69.188 223.707 70.02 224.036 71.0253 224.036C71.7013 224.036 72.2993 223.889 72.8193 223.594C73.3566 223.282 73.7553 222.857 74.0153 222.32L76.9273 223.984C76.3553 225.007 75.5493 225.83 74.5093 226.454C73.4693 227.061 72.3166 227.364 71.0513 227.364ZM86.3972 217.224H83.4592V222.632C83.4592 223.083 83.5719 223.412 83.7972 223.62C84.0225 223.828 84.3519 223.949 84.7852 223.984C85.2185 224.001 85.7559 223.993 86.3972 223.958V227C84.0919 227.26 82.4625 227.043 81.5092 226.35C80.5732 225.657 80.1052 224.417 80.1052 222.632V217.224H77.8432V214H80.1052V211.374L83.4592 210.36V214H86.3972V217.224Z" fill="url(#paint0_linear_200_3389)"/>
<path d="M44 0L44 126" stroke="url(#paint1_linear_200_3389)" stroke-width="3"/>
<circle cx="44" cy="157.5" r="32" fill="url(#paint2_linear_200_3389)"/>
<path d="M44.0394 148.2H46.9194V165H43.6074V151.704L40.4394 152.592L39.6234 149.76L44.0394 148.2Z" fill="white"/>
<defs>
<linearGradient id="paint0_linear_200_3389" x1="10.3937" y1="211.5" x2="79.2127" y2="217.551" gradientUnits="userSpaceOnUse">
<stop stop-color="#560EDE"/>
<stop offset="0.466624" stop-color="#414AE2"/>
<stop offset="1"/>
</linearGradient>
<linearGradient id="paint1_linear_200_3389" x1="44.5" y1="-2.18557e-08" x2="44.5" y2="126" gradientUnits="userSpaceOnUse">
<stop stop-color="#0CE9EB" stop-opacity="0"/>
<stop offset="1" stop-color="#0CE9EB"/>
</linearGradient>
<linearGradient id="paint2_linear_200_3389" x1="12" y1="165.5" x2="76" y2="158" gradientUnits="userSpaceOnUse">
<stop stop-color="#5806DD"/>
<stop offset="1" stop-color="#05FBEC"/>
</linearGradient>
</defs>
</svg>
