<svg width="29" height="31" viewBox="0 0 29 31" fill="none" xmlns="http://www.w3.org/2000/svg">
<path d="M20.7146 21.0596C21.1289 22.8548 21.5432 24.3048 21.8885 25.8239C21.9575 26.1691 22.0956 26.5834 22.1646 26.9286C22.3027 27.55 22.1646 28.1715 21.5432 28.5167C20.9218 28.862 20.3694 28.5858 19.9551 28.1024C18.7123 26.6524 17.4694 25.1334 16.2266 23.6834C15.9504 23.3381 15.6742 23.062 15.1908 22.5786C14.7766 24.0286 14.3623 25.2715 13.948 26.5143C13.6027 27.55 13.3266 28.6548 12.8432 29.6215C12.7051 30.0358 12.1527 30.45 11.8075 30.5191C11.117 30.5881 10.9099 29.9667 10.8408 29.4143C10.7027 27.8953 10.6337 26.3072 10.4956 24.7881C10.4266 23.8215 10.3575 22.8548 10.2194 21.612C9.52893 21.8881 9.0456 22.0262 8.56227 22.2334C7.11227 22.7858 5.66226 23.4072 4.28131 23.9596C3.79797 24.1667 3.31464 24.3048 2.83131 24.3739C2.07178 24.512 1.24321 24.512 0.759878 23.7524C0.345591 23.131 0.552734 22.3024 1.38131 21.5429C2.76226 20.3 4.14321 19.1953 5.59321 18.0215C6.0075 17.6762 6.42178 17.331 6.90512 16.9167C5.45512 16.2262 4.00512 15.5358 2.69321 14.8453C1.31226 14.1548 0.897973 13.4643 1.17416 12.6358C1.45035 11.8072 2.20988 11.3929 3.65988 11.531C5.24797 11.6691 6.83607 11.8762 8.42417 12.0143C9.11465 12.0834 9.80512 12.0143 10.7027 12.0143C10.5646 10.9786 10.5646 10.15 10.4266 9.32148C10.1504 7.94052 9.80512 6.6286 9.52893 5.24764C9.45988 4.76431 9.39084 4.28098 9.39084 3.79765C9.45988 3.10717 9.73608 2.48574 10.4956 2.2786C11.1861 2.07145 11.7385 2.34764 12.0837 2.90003C13.1194 4.21193 13.948 5.52384 14.8456 6.76669C15.1908 7.31909 15.5361 7.87148 16.2266 8.35481C16.5027 6.83574 16.7099 5.38574 16.9861 3.86669C17.1242 3.24526 17.1932 2.55479 17.4004 1.93336C17.6766 1.03574 18.2289 0.621456 18.9194 0.690503C19.6789 0.828597 20.0242 1.38098 20.1623 2.07145C20.3694 3.79765 20.5075 5.45479 20.6456 7.181C20.7146 7.59528 20.7146 8.07862 20.7146 8.70005C21.267 8.4929 21.6813 8.28576 22.0956 8.07862C23.1313 7.52624 24.167 6.97386 25.2027 6.4905C26.4456 5.86907 27.1361 5.86907 27.6194 6.55955C28.0337 7.181 27.8956 7.87148 26.998 8.90719C26.1694 9.87386 25.3408 10.8405 24.5123 11.8072C23.8908 12.4977 23.3385 13.2572 22.648 14.0858C22.9242 14.431 23.2004 14.7762 23.5456 15.0524C25.0646 16.7096 26.6527 18.3667 28.1718 20.0239C28.6551 20.5762 28.9313 21.1286 28.517 21.8191C28.1027 22.5096 27.4813 22.5096 26.7908 22.3715C24.8575 21.9572 22.9242 21.5429 20.7146 21.0596Z" fill="black"/>
</svg>
