<svg width="120" height="236" viewBox="0 0 120 236" fill="none" xmlns="http://www.w3.org/2000/svg">
<path d="M13.728 208.8V212.232H8.814V227H5.226V212.232H0.338V208.8H13.728ZM17.5386 216.236C17.8506 215.404 18.362 214.78 19.0726 214.364C19.8006 213.948 20.6066 213.74 21.4906 213.74V217.484C20.468 217.363 19.5493 217.571 18.7346 218.108C17.9373 218.645 17.5386 219.538 17.5386 220.786V227H14.1846V214H17.5386V216.236ZM33.1098 214H36.4638V227H33.1098V225.466C32.1044 226.731 30.6918 227.364 28.8718 227.364C27.1384 227.364 25.6478 226.705 24.3998 225.388C23.1691 224.053 22.5538 222.424 22.5538 220.5C22.5538 218.576 23.1691 216.955 24.3998 215.638C25.6478 214.303 27.1384 213.636 28.8718 213.636C30.6918 213.636 32.1044 214.269 33.1098 215.534V214ZM26.9218 223.152C27.5978 223.828 28.4558 224.166 29.4958 224.166C30.5358 224.166 31.3938 223.828 32.0698 223.152C32.7631 222.459 33.1098 221.575 33.1098 220.5C33.1098 219.425 32.7631 218.55 32.0698 217.874C31.3938 217.181 30.5358 216.834 29.4958 216.834C28.4558 216.834 27.5978 217.181 26.9218 217.874C26.2458 218.55 25.9078 219.425 25.9078 220.5C25.9078 221.575 26.2458 222.459 26.9218 223.152ZM46.9932 213.636C48.4145 213.636 49.5845 214.113 50.5032 215.066C51.4392 216.019 51.9072 217.337 51.9072 219.018V227H48.5532V219.434C48.5532 218.567 48.3192 217.909 47.8512 217.458C47.3832 216.99 46.7592 216.756 45.9792 216.756C45.1125 216.756 44.4192 217.025 43.8992 217.562C43.3792 218.099 43.1192 218.905 43.1192 219.98V227H39.7652V214H43.1192V215.456C43.9338 214.243 45.2252 213.636 46.9932 213.636ZM58.125 217.692C58.125 218.039 58.3504 218.325 58.801 218.55C59.269 218.758 59.8324 218.949 60.491 219.122C61.1497 219.278 61.8084 219.486 62.467 219.746C63.1257 219.989 63.6804 220.405 64.131 220.994C64.599 221.583 64.833 222.32 64.833 223.204C64.833 224.539 64.3304 225.57 63.325 226.298C62.337 227.009 61.0977 227.364 59.607 227.364C56.9377 227.364 55.1177 226.333 54.147 224.27L57.059 222.632C57.4404 223.759 58.2897 224.322 59.607 224.322C60.803 224.322 61.401 223.949 61.401 223.204C61.401 222.857 61.167 222.58 60.699 222.372C60.2484 222.147 59.6937 221.947 59.035 221.774C58.3764 221.601 57.7177 221.384 57.059 221.124C56.4004 220.864 55.837 220.457 55.369 219.902C54.9184 219.33 54.693 218.619 54.693 217.77C54.693 216.487 55.161 215.482 56.097 214.754C57.0504 214.009 58.229 213.636 59.633 213.636C60.6904 213.636 61.6524 213.879 62.519 214.364C63.3857 214.832 64.0704 215.508 64.573 216.392L61.713 217.952C61.297 217.068 60.6037 216.626 59.633 216.626C59.1997 216.626 58.8357 216.721 58.541 216.912C58.2637 217.103 58.125 217.363 58.125 217.692ZM74.0917 211.66C72.2543 211.521 71.3357 212.258 71.3357 213.87V214H74.0917V217.224H71.3357V227H67.9817V217.224H66.1097V214H67.9817V213.87C67.9817 212.033 68.493 210.637 69.5157 209.684C70.5383 208.731 72.0637 208.315 74.0917 208.436V211.66ZM86.4825 225.388C85.1478 226.705 83.5185 227.364 81.5945 227.364C79.6705 227.364 78.0412 226.705 76.7065 225.388C75.3892 224.053 74.7305 222.424 74.7305 220.5C74.7305 218.576 75.3892 216.955 76.7065 215.638C78.0412 214.303 79.6705 213.636 81.5945 213.636C83.5185 213.636 85.1478 214.303 86.4825 215.638C87.8172 216.955 88.4845 218.576 88.4845 220.5C88.4845 222.424 87.8172 224.053 86.4825 225.388ZM79.0725 223.074C79.7485 223.75 80.5892 224.088 81.5945 224.088C82.5998 224.088 83.4405 223.75 84.1165 223.074C84.7925 222.398 85.1305 221.54 85.1305 220.5C85.1305 219.46 84.7925 218.602 84.1165 217.926C83.4405 217.25 82.5998 216.912 81.5945 216.912C80.5892 216.912 79.7485 217.25 79.0725 217.926C78.4138 218.602 78.0845 219.46 78.0845 220.5C78.0845 221.54 78.4138 222.398 79.0725 223.074ZM94.458 216.236C94.77 215.404 95.2813 214.78 95.992 214.364C96.72 213.948 97.526 213.74 98.41 213.74V217.484C97.3873 217.363 96.4687 217.571 95.654 218.108C94.8567 218.645 94.458 219.538 94.458 220.786V227H91.104V214H94.458V216.236ZM115.01 213.636C116.5 213.636 117.688 214.121 118.572 215.092C119.473 216.063 119.924 217.363 119.924 218.992V227H116.57V219.226C116.57 218.446 116.379 217.839 115.998 217.406C115.616 216.973 115.079 216.756 114.386 216.756C113.623 216.756 113.025 217.007 112.592 217.51C112.176 218.013 111.968 218.741 111.968 219.694V227H108.614V219.226C108.614 218.446 108.423 217.839 108.042 217.406C107.66 216.973 107.123 216.756 106.43 216.756C105.684 216.756 105.086 217.007 104.636 217.51C104.202 218.013 103.986 218.741 103.986 219.694V227H100.632V214H103.986V215.378C104.766 214.217 105.97 213.636 107.6 213.636C109.194 213.636 110.373 214.26 111.136 215.508C112.002 214.26 113.294 213.636 115.01 213.636Z" fill="url(#paint0_linear_200_3395)"/>
<path d="M61 0L61 126" stroke="url(#paint1_linear_200_3395)" stroke-width="3"/>
<circle cx="61" cy="157.5" r="32" fill="url(#paint2_linear_200_3395)"/>
<path d="M55.773 165V162.528L61.509 156.624C62.789 155.28 63.429 154.16 63.429 153.264C63.429 152.608 63.221 152.08 62.805 151.68C62.405 151.28 61.885 151.08 61.245 151.08C59.981 151.08 59.045 151.736 58.437 153.048L55.653 151.416C56.181 150.264 56.941 149.384 57.933 148.776C58.925 148.168 60.013 147.864 61.197 147.864C62.717 147.864 64.021 148.344 65.109 149.304C66.197 150.248 66.741 151.528 66.741 153.144C66.741 154.888 65.821 156.68 63.981 158.52L60.693 161.808H67.005V165H55.773Z" fill="white"/>
<defs>
<linearGradient id="paint0_linear_200_3395" x1="14.4094" y1="211.5" x2="109.147" y2="223.049" gradientUnits="userSpaceOnUse">
<stop stop-color="#FC1076"/>
<stop offset="0.466624" stop-color="#FD72CA"/>
<stop offset="1"/>
</linearGradient>
<linearGradient id="paint1_linear_200_3395" x1="61.5" y1="-2.18557e-08" x2="61.5" y2="126" gradientUnits="userSpaceOnUse">
<stop stop-color="#FD82D8" stop-opacity="0"/>
<stop offset="1" stop-color="#FD82D8"/>
</linearGradient>
<linearGradient id="paint2_linear_200_3395" x1="91" y1="160.5" x2="29" y2="153.5" gradientUnits="userSpaceOnUse">
<stop stop-color="#FD86DC"/>
<stop offset="1" stop-color="#FB056C"/>
</linearGradient>
</defs>
</svg>
