<svg width="107" height="236" viewBox="0 0 107 236" fill="none" xmlns="http://www.w3.org/2000/svg">
<path d="M6.38628 227L0.27628 208.8H4.17628L8.62228 222.788L13.0423 208.8H16.9683L10.8323 227H6.38628ZM19.9825 212.44C19.4278 212.44 18.9425 212.241 18.5265 211.842C18.1278 211.426 17.9285 210.941 17.9285 210.386C17.9285 209.831 18.1278 209.346 18.5265 208.93C18.9425 208.514 19.4278 208.306 19.9825 208.306C20.5545 208.306 21.0398 208.514 21.4385 208.93C21.8545 209.346 22.0625 209.831 22.0625 210.386C22.0625 210.941 21.8545 211.426 21.4385 211.842C21.0398 212.241 20.5545 212.44 19.9825 212.44ZM18.3185 227V214H21.6725V227H18.3185ZM27.9947 217.692C27.9947 218.039 28.2201 218.325 28.6707 218.55C29.1387 218.758 29.7021 218.949 30.3607 219.122C31.0194 219.278 31.6781 219.486 32.3367 219.746C32.9954 219.989 33.5501 220.405 34.0007 220.994C34.4687 221.583 34.7027 222.32 34.7027 223.204C34.7027 224.539 34.2001 225.57 33.1947 226.298C32.2067 227.009 30.9674 227.364 29.4767 227.364C26.8074 227.364 24.9874 226.333 24.0167 224.27L26.9287 222.632C27.3101 223.759 28.1594 224.322 29.4767 224.322C30.6727 224.322 31.2707 223.949 31.2707 223.204C31.2707 222.857 31.0367 222.58 30.5687 222.372C30.1181 222.147 29.5634 221.947 28.9047 221.774C28.2461 221.601 27.5874 221.384 26.9287 221.124C26.2701 220.864 25.7067 220.457 25.2387 219.902C24.7881 219.33 24.5627 218.619 24.5627 217.77C24.5627 216.487 25.0307 215.482 25.9667 214.754C26.9201 214.009 28.0987 213.636 29.5027 213.636C30.5601 213.636 31.5221 213.879 32.3887 214.364C33.2554 214.832 33.9401 215.508 34.4427 216.392L31.5827 217.952C31.1667 217.068 30.4734 216.626 29.5027 216.626C29.0694 216.626 28.7054 216.721 28.4107 216.912C28.1334 217.103 27.9947 217.363 27.9947 217.692ZM45.6997 214H49.0537V227H45.6997V225.544C44.885 226.757 43.5937 227.364 41.8257 227.364C40.4044 227.364 39.2257 226.887 38.2897 225.934C37.371 224.981 36.9117 223.663 36.9117 221.982V214H40.2657V221.566C40.2657 222.433 40.4997 223.1 40.9677 223.568C41.4357 224.019 42.0597 224.244 42.8397 224.244C43.7064 224.244 44.3997 223.975 44.9197 223.438C45.4397 222.901 45.6997 222.095 45.6997 221.02V214ZM62.2656 214H65.6196V227H62.2656V225.466C61.2602 226.731 59.8476 227.364 58.0276 227.364C56.2942 227.364 54.8036 226.705 53.5556 225.388C52.3249 224.053 51.7096 222.424 51.7096 220.5C51.7096 218.576 52.3249 216.955 53.5556 215.638C54.8036 214.303 56.2942 213.636 58.0276 213.636C59.8476 213.636 61.2602 214.269 62.2656 215.534V214ZM56.0776 223.152C56.7536 223.828 57.6116 224.166 58.6516 224.166C59.6916 224.166 60.5496 223.828 61.2256 223.152C61.9189 222.459 62.2656 221.575 62.2656 220.5C62.2656 219.425 61.9189 218.55 61.2256 217.874C60.5496 217.181 59.6916 216.834 58.6516 216.834C57.6116 216.834 56.7536 217.181 56.0776 217.874C55.4016 218.55 55.0636 219.425 55.0636 220.5C55.0636 221.575 55.4016 222.459 56.0776 223.152ZM68.921 227V208.02H72.275V227H68.921ZM77.2688 212.44C76.7141 212.44 76.2288 212.241 75.8128 211.842C75.4141 211.426 75.2148 210.941 75.2148 210.386C75.2148 209.831 75.4141 209.346 75.8128 208.93C76.2288 208.514 76.7141 208.306 77.2688 208.306C77.8408 208.306 78.3261 208.514 78.7248 208.93C79.1408 209.346 79.3488 209.831 79.3488 210.386C79.3488 210.941 79.1408 211.426 78.7248 211.842C78.3261 212.241 77.8408 212.44 77.2688 212.44ZM75.6048 227V214H78.9588V227H75.6048ZM85.281 217.692C85.281 218.039 85.5064 218.325 85.957 218.55C86.425 218.758 86.9884 218.949 87.647 219.122C88.3057 219.278 88.9644 219.486 89.623 219.746C90.2817 219.989 90.8364 220.405 91.287 220.994C91.755 221.583 91.989 222.32 91.989 223.204C91.989 224.539 91.4864 225.57 90.481 226.298C89.493 227.009 88.2537 227.364 86.763 227.364C84.0937 227.364 82.2737 226.333 81.303 224.27L84.215 222.632C84.5964 223.759 85.4457 224.322 86.763 224.322C87.959 224.322 88.557 223.949 88.557 223.204C88.557 222.857 88.323 222.58 87.855 222.372C87.4044 222.147 86.8497 221.947 86.191 221.774C85.5324 221.601 84.8737 221.384 84.215 221.124C83.5564 220.864 82.993 220.457 82.525 219.902C82.0744 219.33 81.849 218.619 81.849 217.77C81.849 216.487 82.317 215.482 83.253 214.754C84.2064 214.009 85.385 213.636 86.789 213.636C87.8464 213.636 88.8084 213.879 89.675 214.364C90.5417 214.832 91.2264 215.508 91.729 216.392L88.869 217.952C88.453 217.068 87.7597 216.626 86.789 216.626C86.3557 216.626 85.9917 216.721 85.697 216.912C85.4197 217.103 85.281 217.363 85.281 217.692ZM97.0623 221.878C97.513 223.507 98.735 224.322 100.728 224.322C102.011 224.322 102.982 223.889 103.64 223.022L106.344 224.582C105.062 226.437 103.172 227.364 100.676 227.364C98.527 227.364 96.8023 226.714 95.5023 225.414C94.2023 224.114 93.5523 222.476 93.5523 220.5C93.5523 218.541 94.1936 216.912 95.4763 215.612C96.759 214.295 98.4056 213.636 100.416 213.636C102.323 213.636 103.892 214.295 105.122 215.612C106.37 216.929 106.994 218.559 106.994 220.5C106.994 220.933 106.951 221.393 106.864 221.878H97.0623ZM97.0103 219.278H103.64C103.45 218.394 103.051 217.735 102.444 217.302C101.855 216.869 101.179 216.652 100.416 216.652C99.515 216.652 98.7696 216.886 98.1803 217.354C97.591 217.805 97.201 218.446 97.0103 219.278Z" fill="url(#paint0_linear_200_3401)"/>
<path d="M54 0L54 126" stroke="url(#paint1_linear_200_3401)" stroke-width="3"/>
<circle cx="54" cy="157.5" r="32" fill="url(#paint2_linear_200_3401)"/>
<path d="M55.9329 155.016C57.0689 155.352 57.9889 155.944 58.6929 156.792C59.4129 157.624 59.7729 158.632 59.7729 159.816C59.7729 161.544 59.1889 162.896 58.0209 163.872C56.8689 164.848 55.4529 165.336 53.7729 165.336C52.4609 165.336 51.2849 165.04 50.2449 164.448C49.2209 163.84 48.4769 162.952 48.0129 161.784L50.8449 160.152C51.2609 161.448 52.2369 162.096 53.7729 162.096C54.6209 162.096 55.2769 161.896 55.7409 161.496C56.2209 161.08 56.4609 160.52 56.4609 159.816C56.4609 159.128 56.2209 158.576 55.7409 158.16C55.2769 157.744 54.6209 157.536 53.7729 157.536H53.0529L51.7809 155.616L55.0929 151.296H48.5169V148.2H59.0769V150.936L55.9329 155.016Z" fill="white"/>
<defs>
<linearGradient id="paint0_linear_200_3401" x1="12.7559" y1="211.5" x2="96.8888" y2="220.579" gradientUnits="userSpaceOnUse">
<stop stop-color="#16E07E"/>
<stop offset="0.466624" stop-color="#7EEEB3"/>
<stop offset="1"/>
</linearGradient>
<linearGradient id="paint1_linear_200_3401" x1="54.5" y1="-2.18557e-08" x2="54.5" y2="126" gradientUnits="userSpaceOnUse">
<stop stop-color="#82EFB5" stop-opacity="0"/>
<stop offset="1" stop-color="#82EFB5"/>
</linearGradient>
<linearGradient id="paint2_linear_200_3401" x1="22" y1="165.5" x2="86" y2="158" gradientUnits="userSpaceOnUse">
<stop stop-color="#06DD76"/>
<stop offset="1" stop-color="#8EF0BB"/>
</linearGradient>
</defs>
</svg>
