<svg width="54" height="54" viewBox="0 0 54 54" fill="none" xmlns="http://www.w3.org/2000/svg">
<path d="M17.0918 29.7979C15.8999 28.6059 15.8999 26.6734 17.0918 25.4814C18.2838 24.2895 20.2163 24.2895 21.4082 25.4814L30.5391 34.6123L26.2227 38.9288L17.0918 29.7979Z" fill="#8EAE5A"/>
<path d="M6.04493 30.022C4.85299 28.83 4.85298 26.8975 6.04493 25.7056C7.23688 24.5136 9.16941 24.5136 10.3614 25.7056L24.9034 40.2476L20.5869 44.564L6.04493 30.022Z" fill="#329D8A"/>
<path d="M21.2852 22.7239C20.0932 21.5319 20.0932 19.5994 21.2852 18.4075C22.4771 17.2155 24.4096 17.2155 25.6016 18.4075L36.1721 28.978L31.8557 33.2944L21.2852 22.7239Z" fill="#E0B34B"/>
<path d="M17.8379 7.77052C16.646 6.57857 16.646 4.64604 17.8379 3.45409C19.0298 2.26214 20.9624 2.26214 22.1543 3.45409L42.0738 23.3736L37.7574 27.69L17.8379 7.77052Z" fill="#E16152"/>
<path fill-rule="evenodd" clip-rule="evenodd" d="M49.9034 11.6265C46.143 11.6265 43.0947 14.6748 43.0947 18.4352V24.5393C43.0946 24.5394 43.0946 24.5395 43.0945 24.5395L38.6904 28.9289C38.5833 29.0357 38.6028 29.2144 38.7258 29.3024C39.7797 30.0563 41.3081 31.6761 41.9201 32.6397C42.5815 33.681 42.9477 34.8192 43.094 36.044C43.2404 37.2689 42.9279 38.808 42.5306 39.9758C42.1332 41.1436 41.4789 42.2074 40.6159 43.0888C39.7529 43.9702 38.7358 44.8961 37.5766 45.318C36.4174 45.7398 35.1651 46.0255 33.9375 45.9049C32.7098 45.7843 31.4707 45.4877 30.4158 44.8484C29.4366 44.2551 27.3172 42.5177 26.4779 41.4455C26.3853 41.3273 26.2076 41.3112 26.1027 41.4186L21.9512 45.6712C23.2005 47.5819 24.8626 49.188 26.815 50.3711C28.7674 51.5542 30.9604 52.2842 33.2324 52.5074C35.5043 52.7305 37.7974 52.4411 39.9427 51.6604C42.088 50.8797 44.0308 49.6277 45.628 47.9965C47.2252 46.3654 48.436 44.3966 49.1714 42.2354C49.8813 40.1492 50.1306 37.9349 49.9034 35.7449V11.6265Z" fill="#293941"/>
</svg>
