<svg width="52" height="52" viewBox="0 0 52 52" fill="none" xmlns="http://www.w3.org/2000/svg">
<path fill-rule="evenodd" clip-rule="evenodd" d="M23.5051 0.61652C22.0157 0.760407 19.53 1.26261 18.248 1.67863C14.9133 2.76066 12.2168 4.2649 9.44262 6.59038C3.34725 11.7002 -0.0861336 19.8722 0.534866 27.7922C0.656366 29.3415 0.932554 31.3321 1.04123 31.4406C1.06362 31.4631 1.60463 30.8932 2.24329 30.1742C6.06885 25.8674 10.1331 23.6045 14.043 23.6045C16.815 23.6045 19.1349 24.6073 21.8065 26.9601L22.487 27.5594L25.7251 24.3596C29.1625 20.963 30.0337 20.2634 31.7201 19.5459C35.0462 18.1305 38.5573 18.6355 42.1239 21.0425C44.6613 22.7548 47.5114 25.795 50.0325 29.4786C50.5708 30.2652 51.0404 30.9107 51.0759 30.913C51.2622 30.9247 51.5643 27.8033 51.5599 25.9108C51.5444 19.0612 48.9191 12.7546 44.0942 7.97571C40.265 4.18311 35.5117 1.74444 30.141 0.817332C29.0958 0.636882 24.6774 0.503232 23.5051 0.61652ZM34.4176 21.5448C34.2629 21.5707 33.8926 21.6702 33.5947 21.766C33.2968 21.8617 33.0249 21.9119 32.9906 21.8774C32.8989 21.7858 31.6322 22.4486 31.0507 22.8925C30.7745 23.1035 29.1703 24.6392 27.4856 26.3056L24.4224 29.3351L25.6504 30.4025C27.0965 31.6595 28.6146 32.8221 30.4222 34.0564L31.7297 34.9493L32.5195 34.6236C33.5758 34.188 35.4569 33.5857 36.8364 33.2412C40.8786 32.2317 45.4926 32.1886 48.9195 33.1282C49.1334 33.1868 49.1702 33.1692 49.0947 33.0442C47.7728 30.8538 45.7207 28.1004 44.0181 26.2325C43.0312 25.1497 41.2058 23.5727 40.2288 22.9589C38.6459 21.9645 35.9008 21.2965 34.4176 21.5448ZM12.0712 26.4688C9.87451 27.0367 8.1528 28.0284 6.22849 29.8342C4.57339 31.3876 2.01762 34.4093 2.01762 34.8128C2.01762 35.0214 2.96149 37.129 3.43039 37.9675L3.81874 38.6619L4.6338 38.4319C7.8018 37.5383 12.1712 35.2423 16.2489 32.3282C17.7856 31.23 19.9574 29.5305 20.0824 29.3282C20.187 29.159 19.4247 28.4145 18.4746 27.7575C16.3255 26.2719 14.3617 25.8766 12.0712 26.4688ZM21.63 31.8132C18.9108 34.1552 15.0235 36.8178 11.8051 38.5427C10.6406 39.1668 8.36824 40.1752 7.16449 40.6021C6.74678 40.7501 6.40568 40.897 6.40635 40.9285C6.40905 41.054 7.9746 41.6447 8.98733 41.9024C11.1513 42.4534 13.055 42.461 15.6845 41.9292C17.04 41.6551 19.9527 40.702 21.6489 39.9775C22.966 39.4148 28.6834 36.5296 28.6754 36.4316C28.6727 36.3995 28.002 35.8805 27.1848 35.2783C25.7872 34.2485 24.5202 33.218 22.9595 31.842L22.286 31.2482L21.63 31.8132ZM42.4051 35.3816C41.191 35.4479 39.5205 35.6604 38.5239 35.8753C37.1697 36.1672 35.3176 36.6856 35.3176 36.7728C35.3176 36.8702 37.2442 37.5134 38.1328 37.7125C38.5366 37.8031 39.4098 37.9402 40.0734 38.0173C42.2702 38.2726 44.6982 37.813 47.0066 36.7047C47.7122 36.366 48.2615 36.061 48.2274 36.0269C47.9094 35.7089 44.1143 35.2882 42.4051 35.3816ZM30.0864 38.9456C29.3439 39.3362 28.1036 39.9984 27.3301 40.4171C24.6515 41.8671 21.6133 43.1828 19.0165 44.0172C15.3162 45.2061 12.5901 45.4585 9.24338 44.9216L8.82387 44.8542L9.27387 45.2693C10.5857 46.4796 13.2705 48.2276 15.1801 49.115C25.0982 53.7236 36.9161 51.4696 44.4567 43.531C45.4061 42.5314 47.5217 39.8212 47.4268 39.7261C47.4011 39.7006 46.8511 39.8566 46.2044 40.073C44.1647 40.7554 41.8676 41.0284 39.9251 40.8193C37.4621 40.5541 35.235 39.9203 32.9694 38.8397C32.2657 38.5042 31.6329 38.2308 31.5632 38.2324C31.4934 38.2339 30.8289 38.5549 30.0864 38.9456Z" fill="#333333"/>
</svg>
