<svg width="54" height="54" viewBox="0 0 54 54" fill="none" xmlns="http://www.w3.org/2000/svg">
<rect width="54" height="54" fill="#222423"/>
<path d="M25.5079 35.0147C22.2756 35.0147 19.1756 33.7306 16.89 31.445C14.6044 29.1594 13.3203 26.0594 13.3203 22.827C13.3203 19.5947 14.6044 16.4947 16.89 14.2091C19.1756 11.9235 22.2756 10.6394 25.5079 10.6394V17.4025C24.0693 17.4025 22.6895 17.974 21.6722 18.9913C20.6549 20.0086 20.0834 21.3884 20.0834 22.827C20.0834 24.2657 20.6549 25.6454 21.6722 26.6627C22.6895 27.68 24.0693 28.2515 25.5079 28.2515L25.5079 35.0147Z" fill="#FECC08"/>
<path d="M28.4921 19.3449C31.7244 19.3449 34.8244 20.629 37.11 22.9146C39.3956 25.2002 40.6797 28.3002 40.6797 31.5326C40.6797 34.7649 39.3956 37.8649 37.11 40.1505C34.8244 42.4362 31.7244 43.7202 28.4921 43.7202L28.4921 36.9571C29.9307 36.9571 31.3105 36.3856 32.3278 35.3683C33.3451 34.351 33.9166 32.9712 33.9166 31.5326C33.9166 30.0939 33.3451 28.7142 32.3278 27.6969C31.3105 26.6796 29.9307 26.1081 28.4921 26.1081L28.4921 19.3449Z" fill="white"/>
</svg>
