<svg width="508" height="281" viewBox="0 0 508 281" fill="none" xmlns="http://www.w3.org/2000/svg">
<g filter="url(#filter0_f_3363_7923)">
<path d="M490 219.628C490 220.732 389.264 221.628 265 221.628C140.736 221.628 40 220.732 40 219.628C40 218.523 140.736 217.628 265 217.628C389.264 217.628 490 218.523 490 219.628Z" fill="#C3AEE8"/>
</g>
<path d="M473.698 160.33V55.6277H416.906L351 159.395V191.647H438.174V218.991H473.698V191.647H501.509V160.33H473.698ZM386.991 160.33L434.434 86.4774H438.174V160.33H386.991Z" fill="#E2D6F7"/>
<path d="M126.698 160.33V55.6277H69.9061L4 159.395V191.647H91.1737V218.991H126.698V191.647H154.509V160.33H126.698ZM39.9913 160.33L87.4344 86.4774H91.1737V160.33H39.9913Z" fill="#E2D6F7"/>
<path d="M248.976 219.631C248.861 221.795 247.013 223.466 244.856 223.253C230.213 221.805 216.167 216.602 204.091 208.118C190.943 198.881 180.662 186.128 174.425 171.319C168.188 156.511 166.247 140.245 168.824 124.385C171.401 108.524 178.393 93.7104 188.998 81.6386C199.603 69.5669 213.393 60.7254 228.789 56.1266C244.185 51.5277 260.565 51.3573 276.054 55.6349C291.543 59.9125 305.514 68.4651 316.367 80.3136C326.336 91.1961 333.306 104.455 336.628 118.789C337.117 120.9 335.698 122.949 333.567 123.341V123.341C331.435 123.733 329.399 122.32 328.9 120.211C325.851 107.326 319.554 95.4104 310.58 85.6149C300.722 74.8532 288.033 67.0851 273.965 63.1999C259.897 59.3147 245.019 59.4694 231.035 63.6465C217.051 67.8235 204.526 75.8539 194.894 86.8184C185.262 97.7828 178.912 111.238 176.571 125.644C174.23 140.049 175.993 154.823 181.658 168.273C187.323 181.723 196.661 193.306 208.603 201.696C219.473 209.333 232.1 214.043 245.271 215.407C247.426 215.63 249.09 217.467 248.976 219.631V219.631Z" fill="#00E7B0" fill-opacity="0.9"/>
<path d="M209.373 69.2822C208.208 67.4551 208.74 65.0205 210.619 63.9399C225.914 55.1428 243.587 51.2732 261.219 52.917C280.155 54.6824 297.964 62.7068 311.831 75.7225C325.699 88.7382 334.834 106.003 337.794 124.79C340.551 142.282 337.807 160.166 329.996 175.986C329.036 177.93 326.64 178.615 324.743 177.567V177.567C322.846 176.52 322.167 174.136 323.117 172.189C330.091 157.899 332.527 141.781 330.042 126.012C327.353 108.948 319.056 93.2668 306.46 81.4449C293.865 69.6231 277.69 62.3347 260.49 60.7313C244.596 59.2495 228.664 62.7006 214.844 70.5643C212.961 71.6362 210.539 71.1093 209.373 69.2822V69.2822Z" fill="#5506DD"/>
<path d="M291.42 210.286C292.433 212.202 291.704 214.585 289.743 215.509C280.782 219.731 271.145 222.369 261.262 223.295C251.379 224.222 241.42 223.42 231.829 220.937C229.731 220.393 228.572 218.187 229.211 216.116V216.116C229.85 214.045 232.045 212.895 234.145 213.428C242.749 215.614 251.672 216.311 260.529 215.481C269.386 214.651 278.025 212.308 286.073 208.562C288.037 207.647 290.408 208.37 291.42 210.286V210.286Z" fill="#B29CEF"/>
<path d="M301.234 122.668C305.828 121.287 308.491 116.405 306.44 112.069C304.299 107.544 301.576 103.305 298.33 99.4622C293.21 93.4019 286.899 88.4584 279.789 84.9386C272.679 81.4187 264.921 79.3976 256.997 79.0007C249.074 78.6038 241.153 79.8395 233.727 82.6311C226.3 85.4228 219.527 89.7108 213.827 95.2291C208.127 100.747 203.622 107.378 200.591 114.71C197.56 122.042 196.069 129.919 196.209 137.851C196.297 142.88 197.041 147.864 198.411 152.678C199.724 157.292 204.944 159.211 209.309 157.224V157.224C213.675 155.236 215.5 150.085 214.486 145.396C213.929 142.822 213.623 140.192 213.576 137.544C213.478 131.992 214.522 126.478 216.644 121.346C218.766 116.214 221.919 111.572 225.909 107.709C229.899 103.846 234.64 100.845 239.839 98.8908C245.037 96.9366 250.582 96.0717 256.128 96.3495C261.675 96.6274 267.105 98.0421 272.082 100.506C277.059 102.97 281.477 106.43 285.061 110.672C286.77 112.695 288.272 114.875 289.549 117.179C291.874 121.374 296.641 124.048 301.234 122.668V122.668Z" fill="url(#paint0_linear_3363_7923)"/>
<path d="M205.627 142.656C200.382 143.09 196.407 147.728 197.684 152.833C199.121 158.579 201.423 164.092 204.527 169.178C209.293 176.985 215.816 183.57 223.578 188.409C231.34 193.248 240.125 196.206 249.232 197.048C258.34 197.89 267.518 196.592 276.036 193.258C284.553 189.924 292.173 184.646 298.289 177.845C304.404 171.043 308.846 162.907 311.26 154.085C313.674 145.263 313.993 135.999 312.192 127.031C311.019 121.189 308.967 115.579 306.121 110.385C303.593 105.77 297.525 105.063 293.38 108.304V108.304C289.234 111.545 288.626 117.511 290.787 122.309C292.005 125.014 292.92 127.856 293.509 130.784C294.725 136.84 294.509 143.097 292.879 149.056C291.249 155.014 288.249 160.509 284.118 165.103C279.988 169.696 274.841 173.261 269.089 175.513C263.337 177.764 257.138 178.641 250.986 178.072C244.835 177.504 238.902 175.506 233.66 172.238C228.418 168.969 224.012 164.522 220.793 159.249C219.237 156.7 217.98 153.992 217.038 151.179C215.367 146.189 210.871 142.221 205.627 142.656V142.656Z" fill="url(#paint1_linear_3363_7923)"/>
<path opacity="0.54" d="M289.332 238.272C290.494 241.615 288.729 245.286 285.326 246.258C262.26 252.85 237.641 252.011 214.997 243.768C192.353 235.524 172.956 220.34 159.526 200.463C157.545 197.53 158.553 193.584 161.592 191.77V191.77C164.632 189.956 168.549 190.963 170.552 193.882C182.456 211.233 199.51 224.489 219.382 231.723C239.254 238.958 260.839 239.767 281.112 234.13C284.522 233.181 288.17 234.928 289.332 238.272V238.272Z" fill="#5506DD"/>
<path d="M256.193 244.215C256.266 247.754 253.453 250.7 249.916 250.573C234.675 250.027 219.675 246.428 205.814 239.964C191.953 233.501 179.553 224.324 169.338 213C166.967 210.372 167.416 206.324 170.173 204.104V204.104C172.931 201.885 176.95 202.336 179.34 204.948C188.313 214.754 199.146 222.712 211.231 228.347C223.316 233.982 236.375 237.165 249.655 237.735C253.192 237.887 256.121 240.676 256.193 244.215V244.215Z" fill="#AC9CFD"/>
<path d="M165.107 75.9804C162.184 73.9856 161.416 69.9858 163.572 67.1786C173.221 54.6153 185.397 44.1809 199.341 36.5645C213.284 28.9481 228.643 24.3412 244.428 23.0115C247.955 22.7143 250.906 25.5214 251.005 29.0595V29.0595C251.103 32.5976 248.311 35.5246 244.787 35.8468C231.028 37.1045 217.649 41.1685 205.485 47.8132C193.321 54.4579 182.672 63.5191 174.179 74.416C172.003 77.2077 168.031 77.9752 165.107 75.9804V75.9804Z" fill="#5506DD"/>
<path opacity="0.65" d="M313.406 46.9028C315.36 43.9516 319.349 43.1289 322.186 45.2456C334.882 54.7191 345.484 66.7496 353.293 80.5858C361.102 94.4219 365.922 109.716 367.47 125.481C367.816 129.004 365.05 131.993 361.514 132.141V132.141C357.978 132.288 355.012 129.537 354.641 126.017C353.193 112.278 348.943 98.9567 342.131 86.8858C335.318 74.8148 326.11 64.2922 315.096 55.9513C312.275 53.8144 311.452 49.854 313.406 46.9028V46.9028Z" fill="#5506DD"/>
<path d="M325.045 55.8057C327.382 53.1473 331.445 52.8742 333.968 55.3567C346.619 67.8047 356.19 83.0366 361.917 99.8352C363.059 103.185 361.05 106.728 357.641 107.68V107.68C354.232 108.632 350.716 106.632 349.55 103.29C344.521 88.876 336.295 75.7845 325.49 65.0001C322.985 62.4997 322.708 58.464 325.045 55.8057V55.8057Z" fill="url(#paint2_linear_3363_7923)"/>
<path d="M303.574 169.628L363.945 229.744C369.096 234.874 369.113 243.207 363.984 248.358V248.358C358.855 253.509 350.521 253.527 345.37 248.398L284.999 188.281L294.287 178.954L303.574 169.628Z" fill="url(#paint3_linear_3363_7923)"/>
<defs>
<filter id="filter0_f_3363_7923" x="27" y="204.628" width="476" height="30" filterUnits="userSpaceOnUse" color-interpolation-filters="sRGB">
<feFlood flood-opacity="0" result="BackgroundImageFix"/>
<feBlend mode="normal" in="SourceGraphic" in2="BackgroundImageFix" result="shape"/>
<feGaussianBlur stdDeviation="6.5" result="effect1_foregroundBlur_3363_7923"/>
</filter>
<linearGradient id="paint0_linear_3363_7923" x1="203.977" y1="119.848" x2="295.957" y2="139.133" gradientUnits="userSpaceOnUse">
<stop stop-color="#AA82FF"/>
<stop offset="1" stop-color="#BAFFEA"/>
</linearGradient>
<linearGradient id="paint1_linear_3363_7923" x1="308.11" y1="134.157" x2="214.774" y2="153.341" gradientUnits="userSpaceOnUse">
<stop stop-color="#AA82FF"/>
<stop offset="1" stop-color="#BAFFEA"/>
</linearGradient>
<linearGradient id="paint2_linear_3363_7923" x1="362" y1="117.628" x2="273.751" y2="73.0494" gradientUnits="userSpaceOnUse">
<stop stop-color="#DA8CFF"/>
<stop offset="0.388867" stop-color="#5506DD"/>
<stop offset="0.567708" stop-color="#4E18D9"/>
<stop offset="1" stop-color="#00E7B0"/>
</linearGradient>
<linearGradient id="paint3_linear_3363_7923" x1="294.075" y1="177.784" x2="365.756" y2="250.421" gradientUnits="userSpaceOnUse">
<stop stop-color="#AFA0FF"/>
<stop offset="1" stop-color="#B0A9FF"/>
</linearGradient>
</defs>
</svg>
