<svg width="491" height="263" viewBox="0 0 491 263" fill="none" xmlns="http://www.w3.org/2000/svg">
<g filter="url(#filter0_f_3363_7941)">
<path d="M474 210C474 211.105 373.264 212 249 212C124.736 212 24 211.105 24 210C24 208.895 124.736 208 249 208C373.264 208 474 208.895 474 210Z" fill="#C3AEE8"/>
</g>
<g opacity="0.15">
<path d="M44.0148 138.841C44.0148 138.841 46.6745 125.543 75.2667 125.543C98.7611 125.543 103.194 139.285 103.194 150.367C103.194 170.093 87.6789 178.516 69.2823 178.516C46.2312 178.516 41.355 166.769 41.355 156.795C30.4944 156.795 20.5204 156.573 7 156.573C7 179.181 18.9688 207.108 68.839 207.108C127.575 207.108 134.889 168.099 134.889 150.367C134.889 132.857 130.9 99.8319 78.5914 99.8319C54.6537 99.8319 45.5663 111.357 41.355 120.002L45.123 81.657H130.678V50.8483H18.7472L9.21645 138.841H44.0148Z" fill="#5506DD"/>
<path d="M413.954 48.6318C372.506 48.6318 343.249 76.3375 343.249 127.316C343.249 179.181 372.506 206 413.954 206C455.623 206 484.88 178.294 484.88 127.316C484.88 76.3375 455.623 48.6318 413.954 48.6318ZM413.954 173.196C388.464 173.196 377.161 159.233 377.161 127.316C377.161 95.6206 388.464 81.657 413.954 81.657C439.665 81.657 450.968 96.0639 450.968 127.316C450.968 158.125 439.665 173.196 413.954 173.196Z" fill="#5506DD"/>
</g>
<g opacity="0.22">
<path d="M245.705 48.6318C204.257 48.6318 175 76.3375 175 127.316C175 179.181 204.257 206 245.705 206C287.374 206 316.631 178.294 316.631 127.316C316.631 76.3375 287.374 48.6318 245.705 48.6318ZM245.705 173.196C220.216 173.196 208.912 159.233 208.912 127.316C208.912 95.6206 220.216 81.657 245.705 81.657C271.416 81.657 282.72 96.0639 282.72 127.316C282.72 158.125 271.416 173.196 245.705 173.196Z" fill="#5506DD" fill-opacity="0.09"/>
<path d="M245.705 46.6318C224.523 46.6318 206.285 53.7227 193.352 67.4875C180.428 81.242 173 101.448 173 127.316C173 153.619 180.424 173.832 193.358 187.483C206.3 201.142 224.541 208 245.705 208C266.995 208 285.288 200.911 298.25 187.146C311.203 173.391 318.631 153.184 318.631 127.316C318.631 101.448 311.203 81.2409 298.25 67.4859C285.288 53.7208 266.995 46.6318 245.705 46.6318ZM245.705 171.196C233.325 171.196 224.812 167.82 219.309 160.972C213.724 154.023 210.912 143.113 210.912 127.316C210.912 111.632 213.723 100.778 219.306 93.8564C224.81 87.034 233.325 83.657 245.705 83.657C258.183 83.657 266.758 87.1374 272.295 94.0205C277.911 101.001 280.72 111.861 280.72 127.316C280.72 142.542 277.914 153.468 272.287 160.567C266.738 167.566 258.156 171.196 245.705 171.196Z" stroke="#5506DD" stroke-opacity="0.36" stroke-width="4"/>
</g>
<circle cx="170.611" cy="182.738" r="21.6109" fill="url(#paint0_linear_3363_7941)"/>
<rect x="204.191" y="101.696" width="43.2218" height="102.292" rx="21.6109" fill="url(#paint1_linear_3363_7941)"/>
<path d="M272.999 122.63L277.999 129.5L287 123.5L293 128.5L295 132.63L299.818 129.5V129.5C301.858 131.506 304.603 132.63 307.464 132.63L308.115 132.63L302.269 184.491C300.925 196.409 290.03 204.881 278.148 203.248V203.248C266.468 201.643 258.301 190.872 259.906 179.192L267.2 126.13L272.999 122.63Z" fill="url(#paint2_linear_3363_7941)"/>
<path d="M303.33 43.4633C309.032 33.1178 322.041 29.3536 332.387 35.0557V35.0557C342.883 40.8408 346.578 54.1198 340.579 64.4948L309.222 118.722L303.618 107.317C303.116 106.295 301.916 105.828 300.855 106.24V106.24C299.552 106.746 298.115 105.921 297.895 104.54L296.598 96.3835L284.86 100.44L282.347 93.0454L274.675 95.4508C274.674 95.451 274.674 95.452 274.675 95.4522V95.4522C274.675 95.4524 274.675 95.4522 274.676 95.4519L303.33 43.4633Z" fill="url(#paint3_linear_3363_7941)"/>
<circle cx="322.386" cy="53.5182" r="21.6109" transform="rotate(10.4852 322.386 53.5182)" fill="url(#paint4_linear_3363_7941)"/>
<path d="M297.746 98C296.742 98.6953 295.884 99.5754 295.033 100.448C294.069 101.437 292.773 102.6 292.285 103.956C291.536 106.039 292.257 108.548 291.879 110.706C291.509 112.813 289.686 115.803 287.584 116.591C285.784 117.267 283.723 116.473 282 115.973" stroke="#BCCCED"/>
<path d="M279.318 94C279.489 95.2516 280.231 96.3992 280.979 97.3754C282.671 99.5846 281.466 103.379 280 105C278.666 104.833 276.4 103.9 278 101.5C279.6 99.1 282.333 102.167 283.5 104" stroke="#D0D9EB"/>
<path d="M296.1 132.702C296.048 131.297 295.684 129.765 296.771 128.637C297.606 127.772 298.779 127.478 299.882 127.135C300.977 126.795 302.152 126.47 303.063 125.739C303.806 125.143 304.058 123.86 304.371 123" stroke="#B6C9ED"/>
<defs>
<filter id="filter0_f_3363_7941" x="11" y="195" width="476" height="30" filterUnits="userSpaceOnUse" color-interpolation-filters="sRGB">
<feFlood flood-opacity="0" result="BackgroundImageFix"/>
<feBlend mode="normal" in="SourceGraphic" in2="BackgroundImageFix" result="shape"/>
<feGaussianBlur stdDeviation="6.5" result="effect1_foregroundBlur_3363_7941"/>
</filter>
<linearGradient id="paint0_linear_3363_7941" x1="148.95" y1="182.947" x2="192.049" y2="182.947" gradientUnits="userSpaceOnUse">
<stop stop-color="#5B12D9"/>
<stop offset="0.497917" stop-color="#580ED7"/>
<stop offset="1" stop-color="#4A06C0"/>
</linearGradient>
<linearGradient id="paint1_linear_3363_7941" x1="247.157" y1="152.566" x2="204.059" y2="152.566" gradientUnits="userSpaceOnUse">
<stop stop-color="#3F04A6"/>
<stop offset="1" stop-color="#6013E3"/>
</linearGradient>
<linearGradient id="paint2_linear_3363_7941" x1="308.577" y1="135.859" x2="271.131" y2="130.913" gradientUnits="userSpaceOnUse">
<stop stop-color="#AAB1EE"/>
<stop offset="1" stop-color="#E1D0EB"/>
</linearGradient>
<linearGradient id="paint3_linear_3363_7941" x1="309.799" y1="119.384" x2="276.624" y2="101.326" gradientUnits="userSpaceOnUse">
<stop stop-color="#AAB1EE"/>
<stop offset="1" stop-color="#E1D0EB"/>
</linearGradient>
<linearGradient id="paint4_linear_3363_7941" x1="301.114" y1="52.5428" x2="342.213" y2="55.8081" gradientUnits="userSpaceOnUse">
<stop stop-color="#D0EBE3"/>
<stop offset="1" stop-color="#92DDC6"/>
</linearGradient>
</defs>
</svg>
